G04 MADE WITH FRITZING*
G04 WWW.FRITZING.ORG*
G04 DOUBLE SIDED*
G04 HOLES PLATED*
G04 CONTOUR ON CENTER OF CONTOUR VECTOR*
%ASAXBY*%
%FSLAX23Y23*%
%MOIN*%
%OFA0B0*%
%SFA1.0B1.0*%
%ADD10C,0.070925*%
%ADD11C,0.070866*%
%ADD12C,0.075000*%
%ADD13C,0.078000*%
%ADD14C,0.039370*%
%ADD15R,0.080000X0.026000*%
%ADD16R,0.055118X0.059055*%
%ADD17R,0.295276X0.059055*%
%ADD18R,0.255906X0.039370*%
%ADD19C,0.008000*%
%ADD20C,0.024000*%
%ADD21C,0.020000*%
%LNCOPPER1*%
G90*
G70*
G54D10*
X591Y123D03*
G54D11*
X784Y123D03*
G54D12*
X2650Y99D03*
X2650Y399D03*
X2750Y99D03*
X2750Y399D03*
X2850Y99D03*
X2850Y399D03*
X2950Y99D03*
X2950Y399D03*
X3050Y99D03*
X3050Y399D03*
X3150Y99D03*
X3150Y399D03*
X3250Y99D03*
X3250Y399D03*
X3350Y99D03*
X3350Y399D03*
G54D13*
X2286Y313D03*
X2186Y313D03*
X2086Y313D03*
X2286Y313D03*
X2186Y313D03*
X2086Y313D03*
X2086Y213D03*
X2186Y213D03*
X2286Y213D03*
G54D14*
X430Y207D03*
X436Y315D03*
X1720Y411D03*
X1252Y363D03*
X1972Y147D03*
X1252Y309D03*
X1492Y351D03*
X1084Y75D03*
X1966Y249D03*
X376Y453D03*
X1324Y81D03*
X598Y369D03*
X922Y321D03*
X2452Y81D03*
X2404Y249D03*
G54D15*
X1170Y162D03*
G54D16*
X922Y399D03*
X1003Y399D03*
X436Y369D03*
X517Y369D03*
G54D17*
X200Y110D03*
G54D18*
X220Y209D03*
X220Y287D03*
G54D17*
X200Y386D03*
G54D16*
X1636Y249D03*
X1717Y249D03*
X1636Y147D03*
X1717Y147D03*
G54D19*
X1378Y447D02*
X536Y447D01*
D02*
X1405Y420D02*
X1378Y447D01*
D02*
X880Y177D02*
X880Y213D01*
D02*
X880Y213D02*
X868Y225D01*
D02*
X892Y165D02*
X880Y177D01*
D02*
X610Y225D02*
X592Y213D01*
D02*
X868Y225D02*
X610Y225D01*
D02*
X939Y162D02*
X892Y165D01*
D02*
X592Y213D02*
X591Y145D01*
D02*
X376Y286D02*
X342Y286D01*
D02*
X388Y273D02*
X376Y286D01*
D02*
X1126Y213D02*
X1060Y267D01*
D02*
X1060Y267D02*
X388Y273D01*
D02*
X1135Y213D02*
X1126Y213D01*
D02*
X1797Y249D02*
X1739Y249D01*
D02*
X1204Y363D02*
X1238Y363D01*
D02*
X1204Y311D02*
X1238Y310D01*
D02*
X382Y237D02*
X382Y219D01*
D02*
X382Y219D02*
X370Y207D01*
D02*
X370Y207D02*
X342Y207D01*
D02*
X394Y249D02*
X382Y237D01*
D02*
X1054Y244D02*
X394Y249D01*
D02*
X1120Y165D02*
X1108Y177D01*
D02*
X1108Y202D02*
X1054Y244D01*
D02*
X1108Y177D02*
X1108Y202D01*
D02*
X1135Y164D02*
X1120Y165D01*
D02*
X982Y40D02*
X961Y63D01*
D02*
X1126Y63D02*
X1108Y39D01*
D02*
X1135Y63D02*
X1126Y63D01*
D02*
X1108Y39D02*
X982Y40D01*
D02*
X1000Y351D02*
X1001Y375D01*
D02*
X1114Y261D02*
X1102Y273D01*
D02*
X1135Y262D02*
X1114Y261D01*
D02*
X1012Y345D02*
X1000Y351D01*
D02*
X1090Y345D02*
X1012Y345D01*
D02*
X1102Y333D02*
X1090Y345D01*
D02*
X1102Y273D02*
X1102Y333D01*
G54D20*
D02*
X430Y188D02*
X430Y176D01*
D02*
X430Y51D02*
X430Y51D01*
D02*
X370Y111D02*
X430Y51D01*
D02*
X342Y111D02*
X370Y111D01*
G54D19*
D02*
X820Y87D02*
X917Y87D01*
D02*
X799Y108D02*
X820Y87D01*
D02*
X940Y207D02*
X940Y186D01*
D02*
X958Y219D02*
X940Y207D01*
D02*
X1066Y129D02*
X1066Y195D01*
D02*
X1090Y111D02*
X1066Y129D01*
D02*
X1066Y195D02*
X1046Y217D01*
D02*
X1135Y112D02*
X1090Y111D01*
D02*
X1046Y217D02*
X958Y219D01*
G54D20*
D02*
X436Y345D02*
X436Y334D01*
G54D19*
D02*
X2290Y106D02*
X2287Y189D01*
D02*
X1486Y81D02*
X2278Y87D01*
D02*
X2278Y87D02*
X2290Y106D01*
D02*
X1474Y93D02*
X1486Y81D01*
D02*
X1474Y249D02*
X1474Y93D01*
D02*
X1462Y261D02*
X1474Y249D01*
D02*
X1446Y262D02*
X1462Y261D01*
D02*
X1446Y314D02*
X1474Y315D01*
D02*
X1474Y315D02*
X1486Y339D01*
G54D20*
D02*
X1701Y411D02*
X1658Y411D01*
G54D19*
D02*
X1797Y147D02*
X1739Y147D01*
G54D20*
D02*
X1446Y412D02*
X1533Y411D01*
D02*
X1636Y273D02*
X1636Y387D01*
D02*
X1636Y225D02*
X1636Y171D01*
G54D19*
D02*
X1922Y249D02*
X1952Y249D01*
D02*
X1042Y83D02*
X1071Y78D01*
G54D20*
D02*
X1020Y138D02*
X1020Y111D01*
D02*
X395Y451D02*
X411Y450D01*
D02*
X820Y399D02*
X796Y370D01*
D02*
X796Y370D02*
X617Y369D01*
D02*
X579Y369D02*
X539Y369D01*
D02*
X900Y399D02*
X820Y399D01*
D02*
X1324Y388D02*
X1300Y412D01*
D02*
X1324Y100D02*
X1324Y388D01*
D02*
X1300Y412D02*
X1204Y412D01*
D02*
X376Y399D02*
X364Y387D01*
D02*
X364Y387D02*
X342Y387D01*
D02*
X376Y434D02*
X376Y399D01*
D02*
X922Y375D02*
X922Y340D01*
D02*
X2008Y411D02*
X1739Y411D01*
D02*
X2067Y337D02*
X2008Y411D01*
D02*
X2621Y400D02*
X2140Y405D01*
D02*
X2140Y405D02*
X2101Y339D01*
D02*
X2452Y285D02*
X2452Y100D01*
D02*
X2416Y315D02*
X2452Y285D01*
D02*
X2316Y314D02*
X2416Y315D01*
D02*
X2950Y153D02*
X2926Y183D01*
D02*
X2926Y183D02*
X2548Y183D01*
D02*
X2548Y183D02*
X2524Y159D01*
D02*
X2524Y111D02*
X2500Y81D01*
D02*
X2950Y128D02*
X2950Y153D01*
D02*
X2524Y159D02*
X2524Y111D01*
D02*
X2500Y81D02*
X2471Y81D01*
G54D19*
D02*
X1953Y147D02*
X1922Y147D01*
D02*
X2392Y63D02*
X2404Y75D01*
D02*
X2404Y75D02*
X2404Y236D01*
D02*
X1446Y62D02*
X2392Y63D01*
D02*
X2182Y147D02*
X1985Y147D01*
D02*
X2187Y189D02*
X2188Y153D01*
D02*
X2188Y153D02*
X2182Y147D01*
G36*
X1210Y399D02*
X1130Y399D01*
X1130Y425D01*
X1210Y425D01*
X1210Y399D01*
G37*
D02*
G36*
X1210Y349D02*
X1130Y349D01*
X1130Y375D01*
X1210Y375D01*
X1210Y349D01*
G37*
D02*
G36*
X1210Y299D02*
X1130Y299D01*
X1130Y325D01*
X1210Y325D01*
X1210Y299D01*
G37*
D02*
G36*
X1210Y249D02*
X1130Y249D01*
X1130Y275D01*
X1210Y275D01*
X1210Y249D01*
G37*
D02*
G36*
X1210Y199D02*
X1130Y199D01*
X1130Y225D01*
X1210Y225D01*
X1210Y199D01*
G37*
D02*
G36*
X1210Y99D02*
X1130Y99D01*
X1130Y125D01*
X1210Y125D01*
X1210Y99D01*
G37*
D02*
G36*
X1210Y49D02*
X1130Y49D01*
X1130Y75D01*
X1210Y75D01*
X1210Y49D01*
G37*
D02*
G36*
X1452Y49D02*
X1372Y49D01*
X1372Y75D01*
X1452Y75D01*
X1452Y49D01*
G37*
D02*
G36*
X1452Y99D02*
X1372Y99D01*
X1372Y125D01*
X1452Y125D01*
X1452Y99D01*
G37*
D02*
G36*
X1452Y149D02*
X1372Y149D01*
X1372Y175D01*
X1452Y175D01*
X1452Y149D01*
G37*
D02*
G36*
X1452Y199D02*
X1372Y199D01*
X1372Y225D01*
X1452Y225D01*
X1452Y199D01*
G37*
D02*
G36*
X1452Y249D02*
X1372Y249D01*
X1372Y275D01*
X1452Y275D01*
X1452Y249D01*
G37*
D02*
G36*
X1452Y299D02*
X1372Y299D01*
X1372Y325D01*
X1452Y325D01*
X1452Y299D01*
G37*
D02*
G36*
X1452Y349D02*
X1372Y349D01*
X1372Y375D01*
X1452Y375D01*
X1452Y349D01*
G37*
D02*
G36*
X1452Y399D02*
X1372Y399D01*
X1372Y425D01*
X1452Y425D01*
X1452Y399D01*
G37*
D02*
G36*
X992Y133D02*
X992Y192D01*
X1047Y192D01*
X1047Y133D01*
X992Y133D01*
G37*
D02*
G36*
X912Y133D02*
X912Y192D01*
X967Y192D01*
X967Y133D01*
X912Y133D01*
G37*
D02*
G36*
X992Y58D02*
X992Y117D01*
X1047Y117D01*
X1047Y58D01*
X992Y58D01*
G37*
D02*
G36*
X912Y58D02*
X912Y117D01*
X967Y117D01*
X967Y58D01*
X912Y58D01*
G37*
D02*
G36*
X486Y418D02*
X486Y477D01*
X541Y477D01*
X541Y418D01*
X486Y418D01*
G37*
D02*
G36*
X406Y418D02*
X406Y477D01*
X461Y477D01*
X461Y418D01*
X406Y418D01*
G37*
D02*
G36*
X1608Y382D02*
X1608Y441D01*
X1663Y441D01*
X1663Y382D01*
X1608Y382D01*
G37*
D02*
G36*
X1528Y382D02*
X1528Y441D01*
X1583Y441D01*
X1583Y382D01*
X1528Y382D01*
G37*
D02*
G36*
X1872Y118D02*
X1872Y177D01*
X1927Y177D01*
X1927Y118D01*
X1872Y118D01*
G37*
D02*
G36*
X1792Y118D02*
X1792Y177D01*
X1847Y177D01*
X1847Y118D01*
X1792Y118D01*
G37*
D02*
G36*
X1872Y220D02*
X1872Y279D01*
X1927Y279D01*
X1927Y220D01*
X1872Y220D01*
G37*
D02*
G36*
X1792Y220D02*
X1792Y279D01*
X1847Y279D01*
X1847Y220D01*
X1792Y220D01*
G37*
D02*
G54D21*
X2622Y127D02*
X2677Y127D01*
X2677Y72D01*
X2622Y72D01*
X2622Y127D01*
D02*
G36*
X394Y71D02*
X465Y71D01*
X465Y32D01*
X394Y32D01*
X394Y71D01*
G37*
D02*
G36*
X394Y181D02*
X465Y181D01*
X465Y142D01*
X394Y142D01*
X394Y181D01*
G37*
D02*
G04 End of Copper1*
M02*