; NON-PLATED HOLES START AT T1
; THROUGH (PLATED) HOLES START AT T100
M48
INCH
T100C0.038000
T101C0.031555
T102C0.015748
T103C0.031496
T104C0.035000
%
T100
X020859Y002132
X021859Y002132
X020859Y003132
X021859Y003132
X022859Y002132
X022859Y003132
T101
X005908Y001232
T102
X017199Y004112
X024039Y002491
X012519Y003092
X004359Y003152
X024516Y000813
X003759Y004532
X010839Y000752
X014919Y003512
X019719Y001472
X013239Y000809
X009219Y003212
X019659Y002492
X005979Y003692
X004299Y002068
X012519Y003632
T103
X007839Y001232
T104
X031499Y000992
X026499Y003992
X032499Y000992
X027499Y003992
X033499Y000992
X030499Y003992
X028499Y003992
X029499Y003992
X031499Y003992
X026499Y000992
X032499Y003992
X027499Y000992
X033499Y003992
X030499Y000992
X028499Y000992
X029499Y000992
T00
M30
