G04 MADE WITH FRITZING*
G04 WWW.FRITZING.ORG*
G04 DOUBLE SIDED*
G04 HOLES PLATED*
G04 CONTOUR ON CENTER OF CONTOUR VECTOR*
%ASAXBY*%
%FSLAX23Y23*%
%MOIN*%
%OFA0B0*%
%SFA1.0B1.0*%
%ADD10C,0.006000*%
%ADD11C,0.005000*%
%ADD12C,0.010000*%
%ADD13C,0.008000*%
%ADD14C,0.009843*%
%ADD15R,0.001000X0.001000*%
%LNSILK1*%
G90*
G70*
G54D10*
X1229Y37D02*
X1353Y37D01*
D02*
X1353Y437D02*
X1311Y437D01*
D02*
X1311Y437D02*
X1271Y437D01*
D02*
X1271Y437D02*
X1229Y437D01*
G54D11*
D02*
X11Y484D02*
X354Y484D01*
D02*
X354Y12D02*
X11Y12D01*
D02*
X11Y12D02*
X11Y484D01*
G54D12*
D02*
X2600Y49D02*
X3400Y49D01*
D02*
X3400Y49D02*
X3400Y449D01*
D02*
X3400Y449D02*
X2600Y449D01*
D02*
X2600Y49D02*
X2600Y199D01*
D02*
X2600Y299D02*
X2600Y449D01*
D02*
X2336Y363D02*
X2036Y363D01*
D02*
X2036Y363D02*
X2036Y163D01*
D02*
X2036Y163D02*
X2336Y163D01*
D02*
X2336Y163D02*
X2336Y363D01*
G54D11*
D02*
X2301Y363D02*
X2336Y328D01*
G54D13*
D02*
X460Y131D02*
X460Y81D01*
D02*
X400Y81D02*
X400Y131D01*
G54D14*
X673Y80D02*
X673Y167D01*
X702Y167D01*
X702Y80D01*
X673Y80D01*
D02*
G54D15*
X0Y495D02*
X3441Y495D01*
X0Y494D02*
X3441Y494D01*
X0Y493D02*
X3441Y493D01*
X0Y492D02*
X3441Y492D01*
X0Y491D02*
X3441Y491D01*
X0Y490D02*
X3441Y490D01*
X0Y489D02*
X3441Y489D01*
X0Y488D02*
X3441Y488D01*
X0Y487D02*
X7Y487D01*
X3434Y487D02*
X3441Y487D01*
X0Y486D02*
X7Y486D01*
X352Y486D02*
X354Y486D01*
X3434Y486D02*
X3441Y486D01*
X0Y485D02*
X7Y485D01*
X351Y485D02*
X355Y485D01*
X3434Y485D02*
X3441Y485D01*
X0Y484D02*
X7Y484D01*
X351Y484D02*
X355Y484D01*
X398Y484D02*
X548Y484D01*
X3434Y484D02*
X3441Y484D01*
X0Y483D02*
X7Y483D01*
X351Y483D02*
X355Y483D01*
X398Y483D02*
X548Y483D01*
X3434Y483D02*
X3441Y483D01*
X0Y482D02*
X7Y482D01*
X351Y482D02*
X355Y482D01*
X398Y482D02*
X548Y482D01*
X3434Y482D02*
X3441Y482D01*
X0Y481D02*
X7Y481D01*
X351Y481D02*
X355Y481D01*
X398Y481D02*
X400Y481D01*
X466Y481D02*
X480Y481D01*
X546Y481D02*
X548Y481D01*
X3434Y481D02*
X3441Y481D01*
X0Y480D02*
X7Y480D01*
X351Y480D02*
X355Y480D01*
X398Y480D02*
X400Y480D01*
X546Y480D02*
X548Y480D01*
X3434Y480D02*
X3441Y480D01*
X0Y479D02*
X7Y479D01*
X351Y479D02*
X355Y479D01*
X398Y479D02*
X400Y479D01*
X546Y479D02*
X548Y479D01*
X3434Y479D02*
X3441Y479D01*
X0Y478D02*
X7Y478D01*
X351Y478D02*
X355Y478D01*
X398Y478D02*
X400Y478D01*
X546Y478D02*
X548Y478D01*
X3434Y478D02*
X3441Y478D01*
X0Y477D02*
X7Y477D01*
X351Y477D02*
X355Y477D01*
X398Y477D02*
X400Y477D01*
X546Y477D02*
X548Y477D01*
X3434Y477D02*
X3441Y477D01*
X0Y476D02*
X7Y476D01*
X351Y476D02*
X355Y476D01*
X398Y476D02*
X400Y476D01*
X546Y476D02*
X548Y476D01*
X3434Y476D02*
X3441Y476D01*
X0Y475D02*
X7Y475D01*
X351Y475D02*
X355Y475D01*
X398Y475D02*
X400Y475D01*
X546Y475D02*
X548Y475D01*
X3434Y475D02*
X3441Y475D01*
X0Y474D02*
X7Y474D01*
X351Y474D02*
X355Y474D01*
X398Y474D02*
X400Y474D01*
X546Y474D02*
X548Y474D01*
X3434Y474D02*
X3441Y474D01*
X0Y473D02*
X7Y473D01*
X351Y473D02*
X355Y473D01*
X398Y473D02*
X400Y473D01*
X546Y473D02*
X548Y473D01*
X3434Y473D02*
X3441Y473D01*
X0Y472D02*
X7Y472D01*
X351Y472D02*
X355Y472D01*
X398Y472D02*
X400Y472D01*
X546Y472D02*
X548Y472D01*
X3434Y472D02*
X3441Y472D01*
X0Y471D02*
X7Y471D01*
X351Y471D02*
X355Y471D01*
X398Y471D02*
X400Y471D01*
X546Y471D02*
X548Y471D01*
X3434Y471D02*
X3441Y471D01*
X0Y470D02*
X7Y470D01*
X351Y470D02*
X355Y470D01*
X398Y470D02*
X400Y470D01*
X546Y470D02*
X548Y470D01*
X3434Y470D02*
X3441Y470D01*
X0Y469D02*
X7Y469D01*
X351Y469D02*
X355Y469D01*
X398Y469D02*
X400Y469D01*
X546Y469D02*
X548Y469D01*
X3434Y469D02*
X3441Y469D01*
X0Y468D02*
X7Y468D01*
X351Y468D02*
X355Y468D01*
X398Y468D02*
X400Y468D01*
X546Y468D02*
X548Y468D01*
X3434Y468D02*
X3441Y468D01*
X0Y467D02*
X7Y467D01*
X351Y467D02*
X354Y467D01*
X398Y467D02*
X400Y467D01*
X546Y467D02*
X548Y467D01*
X3434Y467D02*
X3441Y467D01*
X0Y466D02*
X7Y466D01*
X351Y466D02*
X354Y466D01*
X398Y466D02*
X400Y466D01*
X546Y466D02*
X548Y466D01*
X3434Y466D02*
X3441Y466D01*
X0Y465D02*
X7Y465D01*
X351Y465D02*
X353Y465D01*
X398Y465D02*
X400Y465D01*
X546Y465D02*
X548Y465D01*
X3434Y465D02*
X3441Y465D01*
X0Y464D02*
X7Y464D01*
X351Y464D02*
X353Y464D01*
X398Y464D02*
X400Y464D01*
X546Y464D02*
X548Y464D01*
X3434Y464D02*
X3441Y464D01*
X0Y463D02*
X7Y463D01*
X351Y463D02*
X352Y463D01*
X398Y463D02*
X400Y463D01*
X546Y463D02*
X548Y463D01*
X3434Y463D02*
X3441Y463D01*
X0Y462D02*
X7Y462D01*
X351Y462D02*
X352Y462D01*
X399Y462D02*
X400Y462D01*
X546Y462D02*
X548Y462D01*
X3434Y462D02*
X3441Y462D01*
X0Y461D02*
X7Y461D01*
X351Y461D02*
X352Y461D01*
X399Y461D02*
X400Y461D01*
X546Y461D02*
X548Y461D01*
X3434Y461D02*
X3441Y461D01*
X0Y460D02*
X7Y460D01*
X351Y460D02*
X351Y460D01*
X399Y460D02*
X400Y460D01*
X546Y460D02*
X548Y460D01*
X3434Y460D02*
X3441Y460D01*
X0Y459D02*
X7Y459D01*
X351Y459D02*
X351Y459D01*
X400Y459D02*
X400Y459D01*
X546Y459D02*
X548Y459D01*
X3434Y459D02*
X3441Y459D01*
X0Y458D02*
X7Y458D01*
X351Y458D02*
X351Y458D01*
X400Y458D02*
X400Y458D01*
X546Y458D02*
X548Y458D01*
X3434Y458D02*
X3441Y458D01*
X0Y457D02*
X7Y457D01*
X351Y457D02*
X351Y457D01*
X400Y457D02*
X400Y457D01*
X546Y457D02*
X548Y457D01*
X563Y457D02*
X574Y457D01*
X586Y457D02*
X603Y457D01*
X3434Y457D02*
X3441Y457D01*
X0Y456D02*
X7Y456D01*
X400Y456D02*
X400Y456D01*
X546Y456D02*
X548Y456D01*
X562Y456D02*
X575Y456D01*
X585Y456D02*
X604Y456D01*
X3434Y456D02*
X3441Y456D01*
X0Y455D02*
X7Y455D01*
X400Y455D02*
X400Y455D01*
X546Y455D02*
X548Y455D01*
X561Y455D02*
X575Y455D01*
X585Y455D02*
X605Y455D01*
X3434Y455D02*
X3441Y455D01*
X0Y454D02*
X7Y454D01*
X546Y454D02*
X548Y454D01*
X560Y454D02*
X574Y454D01*
X586Y454D02*
X605Y454D01*
X3434Y454D02*
X3441Y454D01*
X0Y453D02*
X7Y453D01*
X546Y453D02*
X548Y453D01*
X560Y453D02*
X564Y453D01*
X602Y453D02*
X605Y453D01*
X2070Y453D02*
X2071Y453D01*
X2097Y453D02*
X2099Y453D01*
X3434Y453D02*
X3441Y453D01*
X0Y452D02*
X7Y452D01*
X400Y452D02*
X400Y452D01*
X546Y452D02*
X548Y452D01*
X559Y452D02*
X563Y452D01*
X602Y452D02*
X605Y452D01*
X2069Y452D02*
X2072Y452D01*
X2096Y452D02*
X2099Y452D01*
X2282Y452D02*
X2288Y452D01*
X3434Y452D02*
X3441Y452D01*
X0Y451D02*
X7Y451D01*
X400Y451D02*
X400Y451D01*
X546Y451D02*
X548Y451D01*
X559Y451D02*
X563Y451D01*
X602Y451D02*
X605Y451D01*
X2069Y451D02*
X2072Y451D01*
X2096Y451D02*
X2099Y451D01*
X2280Y451D02*
X2290Y451D01*
X3434Y451D02*
X3441Y451D01*
X0Y450D02*
X7Y450D01*
X351Y450D02*
X351Y450D01*
X400Y450D02*
X400Y450D01*
X546Y450D02*
X548Y450D01*
X558Y450D02*
X562Y450D01*
X602Y450D02*
X605Y450D01*
X2069Y450D02*
X2072Y450D01*
X2096Y450D02*
X2099Y450D01*
X2278Y450D02*
X2292Y450D01*
X3434Y450D02*
X3441Y450D01*
X0Y449D02*
X7Y449D01*
X351Y449D02*
X351Y449D01*
X400Y449D02*
X400Y449D01*
X546Y449D02*
X548Y449D01*
X558Y449D02*
X561Y449D01*
X602Y449D02*
X605Y449D01*
X2069Y449D02*
X2072Y449D01*
X2096Y449D02*
X2099Y449D01*
X2276Y449D02*
X2294Y449D01*
X3434Y449D02*
X3441Y449D01*
X0Y448D02*
X7Y448D01*
X351Y448D02*
X351Y448D01*
X400Y448D02*
X400Y448D01*
X546Y448D02*
X548Y448D01*
X557Y448D02*
X561Y448D01*
X602Y448D02*
X605Y448D01*
X1520Y448D02*
X1670Y448D01*
X2069Y448D02*
X2072Y448D01*
X2096Y448D02*
X2099Y448D01*
X2171Y448D02*
X2173Y448D01*
X2192Y448D02*
X2195Y448D01*
X2274Y448D02*
X2282Y448D01*
X2288Y448D02*
X2296Y448D01*
X3434Y448D02*
X3441Y448D01*
X0Y447D02*
X7Y447D01*
X351Y447D02*
X351Y447D01*
X399Y447D02*
X400Y447D01*
X546Y447D02*
X548Y447D01*
X557Y447D02*
X560Y447D01*
X602Y447D02*
X605Y447D01*
X1520Y447D02*
X1670Y447D01*
X2069Y447D02*
X2072Y447D01*
X2096Y447D02*
X2099Y447D01*
X2169Y447D02*
X2174Y447D01*
X2191Y447D02*
X2197Y447D01*
X2272Y447D02*
X2280Y447D01*
X2290Y447D02*
X2298Y447D01*
X3434Y447D02*
X3441Y447D01*
X0Y446D02*
X7Y446D01*
X351Y446D02*
X352Y446D01*
X399Y446D02*
X400Y446D01*
X546Y446D02*
X548Y446D01*
X556Y446D02*
X560Y446D01*
X602Y446D02*
X605Y446D01*
X1520Y446D02*
X1522Y446D01*
X1587Y446D02*
X1603Y446D01*
X1668Y446D02*
X1670Y446D01*
X2069Y446D02*
X2072Y446D01*
X2096Y446D02*
X2099Y446D01*
X2169Y446D02*
X2174Y446D01*
X2190Y446D02*
X2197Y446D01*
X2271Y446D02*
X2278Y446D01*
X2292Y446D02*
X2299Y446D01*
X3434Y446D02*
X3441Y446D01*
X0Y445D02*
X7Y445D01*
X351Y445D02*
X352Y445D01*
X399Y445D02*
X400Y445D01*
X546Y445D02*
X548Y445D01*
X556Y445D02*
X559Y445D01*
X602Y445D02*
X605Y445D01*
X1520Y445D02*
X1521Y445D01*
X1588Y445D02*
X1602Y445D01*
X1668Y445D02*
X1670Y445D01*
X2069Y445D02*
X2072Y445D01*
X2096Y445D02*
X2099Y445D01*
X2168Y445D02*
X2173Y445D01*
X2188Y445D02*
X2198Y445D01*
X2270Y445D02*
X2276Y445D01*
X2294Y445D02*
X2299Y445D01*
X3434Y445D02*
X3441Y445D01*
X0Y444D02*
X7Y444D01*
X351Y444D02*
X352Y444D01*
X398Y444D02*
X400Y444D01*
X546Y444D02*
X548Y444D01*
X556Y444D02*
X559Y444D01*
X602Y444D02*
X605Y444D01*
X1520Y444D02*
X1521Y444D01*
X1668Y444D02*
X1670Y444D01*
X2069Y444D02*
X2072Y444D01*
X2096Y444D02*
X2099Y444D01*
X2168Y444D02*
X2171Y444D01*
X2187Y444D02*
X2193Y444D01*
X2195Y444D02*
X2198Y444D01*
X2270Y444D02*
X2274Y444D01*
X2296Y444D02*
X2300Y444D01*
X3434Y444D02*
X3441Y444D01*
X0Y443D02*
X7Y443D01*
X351Y443D02*
X353Y443D01*
X398Y443D02*
X400Y443D01*
X546Y443D02*
X548Y443D01*
X555Y443D02*
X559Y443D01*
X587Y443D02*
X605Y443D01*
X1520Y443D02*
X1521Y443D01*
X1668Y443D02*
X1670Y443D01*
X2069Y443D02*
X2072Y443D01*
X2096Y443D02*
X2099Y443D01*
X2168Y443D02*
X2171Y443D01*
X2186Y443D02*
X2191Y443D01*
X2195Y443D02*
X2198Y443D01*
X2270Y443D02*
X2273Y443D01*
X2297Y443D02*
X2300Y443D01*
X3434Y443D02*
X3441Y443D01*
X0Y442D02*
X7Y442D01*
X351Y442D02*
X353Y442D01*
X398Y442D02*
X400Y442D01*
X546Y442D02*
X548Y442D01*
X555Y442D02*
X558Y442D01*
X586Y442D02*
X605Y442D01*
X1520Y442D02*
X1521Y442D01*
X1668Y442D02*
X1670Y442D01*
X2069Y442D02*
X2074Y442D01*
X2095Y442D02*
X2099Y442D01*
X2168Y442D02*
X2171Y442D01*
X2184Y442D02*
X2190Y442D01*
X2195Y442D02*
X2198Y442D01*
X2270Y442D02*
X2273Y442D01*
X2297Y442D02*
X2300Y442D01*
X3434Y442D02*
X3441Y442D01*
X0Y441D02*
X7Y441D01*
X351Y441D02*
X354Y441D01*
X398Y441D02*
X400Y441D01*
X546Y441D02*
X548Y441D01*
X555Y441D02*
X558Y441D01*
X586Y441D02*
X604Y441D01*
X1520Y441D02*
X1521Y441D01*
X1668Y441D02*
X1670Y441D01*
X2070Y441D02*
X2076Y441D01*
X2093Y441D02*
X2098Y441D01*
X2168Y441D02*
X2171Y441D01*
X2183Y441D02*
X2189Y441D01*
X2195Y441D02*
X2198Y441D01*
X2270Y441D02*
X2273Y441D01*
X2297Y441D02*
X2300Y441D01*
X3434Y441D02*
X3441Y441D01*
X0Y440D02*
X7Y440D01*
X351Y440D02*
X354Y440D01*
X398Y440D02*
X400Y440D01*
X546Y440D02*
X548Y440D01*
X555Y440D02*
X559Y440D01*
X585Y440D02*
X603Y440D01*
X1225Y440D02*
X1228Y440D01*
X1353Y440D02*
X1356Y440D01*
X1520Y440D02*
X1521Y440D01*
X1668Y440D02*
X1670Y440D01*
X2071Y440D02*
X2078Y440D01*
X2091Y440D02*
X2098Y440D01*
X2168Y440D02*
X2171Y440D01*
X2182Y440D02*
X2187Y440D01*
X2195Y440D02*
X2198Y440D01*
X2270Y440D02*
X2300Y440D01*
X3434Y440D02*
X3441Y440D01*
X0Y439D02*
X7Y439D01*
X351Y439D02*
X355Y439D01*
X398Y439D02*
X400Y439D01*
X546Y439D02*
X548Y439D01*
X556Y439D02*
X559Y439D01*
X585Y439D02*
X589Y439D01*
X1222Y439D02*
X1228Y439D01*
X1353Y439D02*
X1359Y439D01*
X1520Y439D02*
X1521Y439D01*
X1668Y439D02*
X1670Y439D01*
X2072Y439D02*
X2080Y439D01*
X2089Y439D02*
X2096Y439D01*
X2168Y439D02*
X2171Y439D01*
X2181Y439D02*
X2186Y439D01*
X2195Y439D02*
X2198Y439D01*
X2270Y439D02*
X2300Y439D01*
X3434Y439D02*
X3441Y439D01*
X0Y438D02*
X7Y438D01*
X351Y438D02*
X355Y438D01*
X398Y438D02*
X400Y438D01*
X546Y438D02*
X548Y438D01*
X556Y438D02*
X560Y438D01*
X585Y438D02*
X589Y438D01*
X1220Y438D02*
X1228Y438D01*
X1353Y438D02*
X1360Y438D01*
X1520Y438D02*
X1521Y438D01*
X1668Y438D02*
X1670Y438D01*
X2074Y438D02*
X2082Y438D01*
X2087Y438D02*
X2095Y438D01*
X2168Y438D02*
X2171Y438D01*
X2179Y438D02*
X2185Y438D01*
X2195Y438D02*
X2198Y438D01*
X2270Y438D02*
X2300Y438D01*
X3434Y438D02*
X3441Y438D01*
X0Y437D02*
X7Y437D01*
X351Y437D02*
X355Y437D01*
X398Y437D02*
X400Y437D01*
X546Y437D02*
X548Y437D01*
X556Y437D02*
X560Y437D01*
X585Y437D02*
X589Y437D01*
X1218Y437D02*
X1228Y437D01*
X1268Y437D02*
X1273Y437D01*
X1308Y437D02*
X1313Y437D01*
X1353Y437D02*
X1362Y437D01*
X1520Y437D02*
X1521Y437D01*
X1668Y437D02*
X1670Y437D01*
X2076Y437D02*
X2093Y437D01*
X2168Y437D02*
X2171Y437D01*
X2178Y437D02*
X2184Y437D01*
X2195Y437D02*
X2198Y437D01*
X2270Y437D02*
X2300Y437D01*
X3434Y437D02*
X3441Y437D01*
X0Y436D02*
X7Y436D01*
X351Y436D02*
X355Y436D01*
X398Y436D02*
X400Y436D01*
X546Y436D02*
X548Y436D01*
X557Y436D02*
X561Y436D01*
X585Y436D02*
X589Y436D01*
X886Y436D02*
X1037Y436D01*
X1217Y436D02*
X1228Y436D01*
X1268Y436D02*
X1273Y436D01*
X1308Y436D02*
X1313Y436D01*
X1353Y436D02*
X1363Y436D01*
X1520Y436D02*
X1521Y436D01*
X1668Y436D02*
X1670Y436D01*
X2078Y436D02*
X2091Y436D01*
X2168Y436D02*
X2171Y436D01*
X2177Y436D02*
X2182Y436D01*
X2195Y436D02*
X2198Y436D01*
X2270Y436D02*
X2273Y436D01*
X2297Y436D02*
X2300Y436D01*
X3434Y436D02*
X3441Y436D01*
X0Y435D02*
X7Y435D01*
X351Y435D02*
X355Y435D01*
X398Y435D02*
X400Y435D01*
X546Y435D02*
X548Y435D01*
X557Y435D02*
X561Y435D01*
X585Y435D02*
X589Y435D01*
X886Y435D02*
X1037Y435D01*
X1216Y435D02*
X1228Y435D01*
X1268Y435D02*
X1273Y435D01*
X1307Y435D02*
X1313Y435D01*
X1353Y435D02*
X1364Y435D01*
X1520Y435D02*
X1521Y435D01*
X1668Y435D02*
X1670Y435D01*
X2080Y435D02*
X2089Y435D01*
X2168Y435D02*
X2171Y435D01*
X2175Y435D02*
X2181Y435D01*
X2195Y435D02*
X2198Y435D01*
X2270Y435D02*
X2273Y435D01*
X2297Y435D02*
X2300Y435D01*
X3434Y435D02*
X3441Y435D01*
X0Y434D02*
X7Y434D01*
X351Y434D02*
X355Y434D01*
X398Y434D02*
X400Y434D01*
X546Y434D02*
X548Y434D01*
X558Y434D02*
X562Y434D01*
X585Y434D02*
X589Y434D01*
X886Y434D02*
X889Y434D01*
X954Y434D02*
X969Y434D01*
X1035Y434D02*
X1037Y434D01*
X1215Y434D02*
X1224Y434D01*
X1227Y434D02*
X1228Y434D01*
X1268Y434D02*
X1273Y434D01*
X1307Y434D02*
X1312Y434D01*
X1356Y434D02*
X1365Y434D01*
X1520Y434D02*
X1521Y434D01*
X1668Y434D02*
X1670Y434D01*
X2082Y434D02*
X2086Y434D01*
X2168Y434D02*
X2171Y434D01*
X2174Y434D02*
X2180Y434D01*
X2195Y434D02*
X2198Y434D01*
X2270Y434D02*
X2273Y434D01*
X2297Y434D02*
X2300Y434D01*
X3434Y434D02*
X3441Y434D01*
X0Y433D02*
X7Y433D01*
X351Y433D02*
X355Y433D01*
X398Y433D02*
X400Y433D01*
X546Y433D02*
X548Y433D01*
X558Y433D02*
X562Y433D01*
X585Y433D02*
X589Y433D01*
X886Y433D02*
X888Y433D01*
X954Y433D02*
X969Y433D01*
X1035Y433D02*
X1037Y433D01*
X1214Y433D02*
X1222Y433D01*
X1227Y433D02*
X1228Y433D01*
X1268Y433D02*
X1273Y433D01*
X1307Y433D02*
X1312Y433D01*
X1359Y433D02*
X1366Y433D01*
X1520Y433D02*
X1521Y433D01*
X1668Y433D02*
X1670Y433D01*
X2168Y433D02*
X2171Y433D01*
X2173Y433D02*
X2178Y433D01*
X2194Y433D02*
X2198Y433D01*
X2271Y433D02*
X2272Y433D01*
X2298Y433D02*
X2299Y433D01*
X3434Y433D02*
X3441Y433D01*
X0Y432D02*
X7Y432D01*
X351Y432D02*
X355Y432D01*
X398Y432D02*
X400Y432D01*
X546Y432D02*
X548Y432D01*
X559Y432D02*
X563Y432D01*
X585Y432D02*
X589Y432D01*
X886Y432D02*
X888Y432D01*
X1035Y432D02*
X1037Y432D01*
X1214Y432D02*
X1220Y432D01*
X1227Y432D02*
X1228Y432D01*
X1269Y432D02*
X1274Y432D01*
X1307Y432D02*
X1312Y432D01*
X1360Y432D02*
X1367Y432D01*
X1520Y432D02*
X1521Y432D01*
X1668Y432D02*
X1670Y432D01*
X2168Y432D02*
X2177Y432D01*
X2192Y432D02*
X2197Y432D01*
X3434Y432D02*
X3441Y432D01*
X0Y431D02*
X7Y431D01*
X351Y431D02*
X355Y431D01*
X398Y431D02*
X400Y431D01*
X546Y431D02*
X548Y431D01*
X559Y431D02*
X563Y431D01*
X585Y431D02*
X589Y431D01*
X886Y431D02*
X888Y431D01*
X1035Y431D02*
X1037Y431D01*
X1213Y431D02*
X1219Y431D01*
X1227Y431D02*
X1228Y431D01*
X1269Y431D02*
X1274Y431D01*
X1307Y431D02*
X1312Y431D01*
X1361Y431D02*
X1367Y431D01*
X1520Y431D02*
X1521Y431D01*
X1668Y431D02*
X1670Y431D01*
X2168Y431D02*
X2176Y431D01*
X2191Y431D02*
X2197Y431D01*
X3434Y431D02*
X3441Y431D01*
X0Y430D02*
X7Y430D01*
X351Y430D02*
X355Y430D01*
X398Y430D02*
X400Y430D01*
X546Y430D02*
X548Y430D01*
X560Y430D02*
X564Y430D01*
X585Y430D02*
X589Y430D01*
X886Y430D02*
X888Y430D01*
X1035Y430D02*
X1037Y430D01*
X1215Y430D02*
X1218Y430D01*
X1227Y430D02*
X1228Y430D01*
X1269Y430D02*
X1274Y430D01*
X1306Y430D02*
X1311Y430D01*
X1362Y430D02*
X1366Y430D01*
X1520Y430D02*
X1521Y430D01*
X1668Y430D02*
X1670Y430D01*
X2169Y430D02*
X2175Y430D01*
X2192Y430D02*
X2196Y430D01*
X3434Y430D02*
X3441Y430D01*
X0Y429D02*
X7Y429D01*
X351Y429D02*
X355Y429D01*
X398Y429D02*
X400Y429D01*
X546Y429D02*
X548Y429D01*
X560Y429D02*
X574Y429D01*
X585Y429D02*
X604Y429D01*
X886Y429D02*
X888Y429D01*
X1035Y429D02*
X1037Y429D01*
X1215Y429D02*
X1217Y429D01*
X1227Y429D02*
X1228Y429D01*
X1270Y429D02*
X1275Y429D01*
X1306Y429D02*
X1311Y429D01*
X1363Y429D02*
X1366Y429D01*
X1520Y429D02*
X1521Y429D01*
X1668Y429D02*
X1670Y429D01*
X2170Y429D02*
X2173Y429D01*
X2192Y429D02*
X2194Y429D01*
X3434Y429D02*
X3441Y429D01*
X0Y428D02*
X7Y428D01*
X351Y428D02*
X355Y428D01*
X398Y428D02*
X400Y428D01*
X546Y428D02*
X548Y428D01*
X561Y428D02*
X575Y428D01*
X585Y428D02*
X605Y428D01*
X886Y428D02*
X888Y428D01*
X1035Y428D02*
X1037Y428D01*
X1215Y428D02*
X1217Y428D01*
X1227Y428D02*
X1228Y428D01*
X1270Y428D02*
X1275Y428D01*
X1305Y428D02*
X1310Y428D01*
X1363Y428D02*
X1366Y428D01*
X1520Y428D02*
X1521Y428D01*
X1668Y428D02*
X1670Y428D01*
X3434Y428D02*
X3441Y428D01*
X0Y427D02*
X7Y427D01*
X351Y427D02*
X355Y427D01*
X398Y427D02*
X400Y427D01*
X546Y427D02*
X548Y427D01*
X562Y427D02*
X575Y427D01*
X585Y427D02*
X605Y427D01*
X886Y427D02*
X888Y427D01*
X1035Y427D02*
X1037Y427D01*
X1215Y427D02*
X1217Y427D01*
X1227Y427D02*
X1228Y427D01*
X1271Y427D02*
X1276Y427D01*
X1304Y427D02*
X1310Y427D01*
X1364Y427D02*
X1366Y427D01*
X1520Y427D02*
X1521Y427D01*
X1668Y427D02*
X1670Y427D01*
X3434Y427D02*
X3441Y427D01*
X0Y426D02*
X7Y426D01*
X351Y426D02*
X355Y426D01*
X398Y426D02*
X400Y426D01*
X546Y426D02*
X548Y426D01*
X563Y426D02*
X574Y426D01*
X585Y426D02*
X604Y426D01*
X886Y426D02*
X888Y426D01*
X1035Y426D02*
X1037Y426D01*
X1215Y426D02*
X1216Y426D01*
X1227Y426D02*
X1228Y426D01*
X1271Y426D02*
X1277Y426D01*
X1303Y426D02*
X1309Y426D01*
X1364Y426D02*
X1366Y426D01*
X1520Y426D02*
X1521Y426D01*
X1668Y426D02*
X1670Y426D01*
X3434Y426D02*
X3441Y426D01*
X0Y425D02*
X7Y425D01*
X351Y425D02*
X355Y425D01*
X398Y425D02*
X400Y425D01*
X546Y425D02*
X548Y425D01*
X886Y425D02*
X888Y425D01*
X1035Y425D02*
X1037Y425D01*
X1215Y425D02*
X1216Y425D01*
X1227Y425D02*
X1228Y425D01*
X1272Y425D02*
X1278Y425D01*
X1302Y425D02*
X1309Y425D01*
X1364Y425D02*
X1366Y425D01*
X1520Y425D02*
X1521Y425D01*
X1668Y425D02*
X1670Y425D01*
X3434Y425D02*
X3441Y425D01*
X0Y424D02*
X7Y424D01*
X351Y424D02*
X355Y424D01*
X398Y424D02*
X400Y424D01*
X546Y424D02*
X548Y424D01*
X886Y424D02*
X888Y424D01*
X1035Y424D02*
X1037Y424D01*
X1215Y424D02*
X1216Y424D01*
X1227Y424D02*
X1228Y424D01*
X1272Y424D02*
X1279Y424D01*
X1301Y424D02*
X1308Y424D01*
X1365Y424D02*
X1366Y424D01*
X1520Y424D02*
X1521Y424D01*
X1668Y424D02*
X1670Y424D01*
X2070Y424D02*
X2071Y424D01*
X2097Y424D02*
X2099Y424D01*
X3434Y424D02*
X3441Y424D01*
X0Y423D02*
X7Y423D01*
X351Y423D02*
X355Y423D01*
X398Y423D02*
X400Y423D01*
X546Y423D02*
X548Y423D01*
X886Y423D02*
X888Y423D01*
X1035Y423D02*
X1037Y423D01*
X1215Y423D02*
X1216Y423D01*
X1227Y423D02*
X1228Y423D01*
X1273Y423D02*
X1281Y423D01*
X1300Y423D02*
X1307Y423D01*
X1365Y423D02*
X1366Y423D01*
X1520Y423D02*
X1521Y423D01*
X1668Y423D02*
X1670Y423D01*
X2069Y423D02*
X2072Y423D01*
X2096Y423D02*
X2099Y423D01*
X2270Y423D02*
X2300Y423D01*
X3434Y423D02*
X3441Y423D01*
X0Y422D02*
X7Y422D01*
X351Y422D02*
X355Y422D01*
X398Y422D02*
X400Y422D01*
X546Y422D02*
X548Y422D01*
X886Y422D02*
X888Y422D01*
X1035Y422D02*
X1037Y422D01*
X1215Y422D02*
X1216Y422D01*
X1227Y422D02*
X1228Y422D01*
X1274Y422D02*
X1283Y422D01*
X1298Y422D02*
X1306Y422D01*
X1365Y422D02*
X1366Y422D01*
X1520Y422D02*
X1521Y422D01*
X1668Y422D02*
X1670Y422D01*
X2069Y422D02*
X2072Y422D01*
X2096Y422D02*
X2099Y422D01*
X2270Y422D02*
X2300Y422D01*
X3434Y422D02*
X3441Y422D01*
X0Y421D02*
X7Y421D01*
X351Y421D02*
X355Y421D01*
X398Y421D02*
X400Y421D01*
X546Y421D02*
X548Y421D01*
X886Y421D02*
X888Y421D01*
X1035Y421D02*
X1037Y421D01*
X1215Y421D02*
X1216Y421D01*
X1227Y421D02*
X1228Y421D01*
X1275Y421D02*
X1286Y421D01*
X1295Y421D02*
X1305Y421D01*
X1365Y421D02*
X1366Y421D01*
X1520Y421D02*
X1521Y421D01*
X1668Y421D02*
X1670Y421D01*
X2069Y421D02*
X2072Y421D01*
X2096Y421D02*
X2099Y421D01*
X2270Y421D02*
X2300Y421D01*
X3434Y421D02*
X3441Y421D01*
X0Y420D02*
X7Y420D01*
X353Y420D02*
X355Y420D01*
X398Y420D02*
X400Y420D01*
X546Y420D02*
X548Y420D01*
X886Y420D02*
X888Y420D01*
X1035Y420D02*
X1037Y420D01*
X1215Y420D02*
X1216Y420D01*
X1227Y420D02*
X1228Y420D01*
X1276Y420D02*
X1304Y420D01*
X1365Y420D02*
X1366Y420D01*
X1520Y420D02*
X1521Y420D01*
X1668Y420D02*
X1670Y420D01*
X2069Y420D02*
X2072Y420D01*
X2096Y420D02*
X2099Y420D01*
X2271Y420D02*
X2300Y420D01*
X3434Y420D02*
X3441Y420D01*
X0Y419D02*
X7Y419D01*
X353Y419D02*
X355Y419D01*
X398Y419D02*
X400Y419D01*
X546Y419D02*
X548Y419D01*
X886Y419D02*
X888Y419D01*
X1035Y419D02*
X1037Y419D01*
X1215Y419D02*
X1216Y419D01*
X1227Y419D02*
X1228Y419D01*
X1277Y419D02*
X1303Y419D01*
X1365Y419D02*
X1366Y419D01*
X1520Y419D02*
X1521Y419D01*
X1668Y419D02*
X1670Y419D01*
X2069Y419D02*
X2072Y419D01*
X2096Y419D02*
X2099Y419D01*
X2168Y419D02*
X2173Y419D01*
X2292Y419D02*
X2300Y419D01*
X3434Y419D02*
X3441Y419D01*
X0Y418D02*
X7Y418D01*
X353Y418D02*
X355Y418D01*
X398Y418D02*
X400Y418D01*
X546Y418D02*
X548Y418D01*
X886Y418D02*
X888Y418D01*
X1035Y418D02*
X1037Y418D01*
X1215Y418D02*
X1216Y418D01*
X1227Y418D02*
X1228Y418D01*
X1279Y418D02*
X1301Y418D01*
X1365Y418D02*
X1366Y418D01*
X1520Y418D02*
X1521Y418D01*
X1668Y418D02*
X1670Y418D01*
X2069Y418D02*
X2072Y418D01*
X2096Y418D02*
X2099Y418D01*
X2168Y418D02*
X2174Y418D01*
X2290Y418D02*
X2299Y418D01*
X3434Y418D02*
X3441Y418D01*
X0Y417D02*
X7Y417D01*
X353Y417D02*
X355Y417D01*
X398Y417D02*
X400Y417D01*
X546Y417D02*
X548Y417D01*
X886Y417D02*
X888Y417D01*
X1035Y417D02*
X1037Y417D01*
X1215Y417D02*
X1216Y417D01*
X1227Y417D02*
X1228Y417D01*
X1281Y417D02*
X1300Y417D01*
X1365Y417D02*
X1366Y417D01*
X1520Y417D02*
X1521Y417D01*
X1668Y417D02*
X1670Y417D01*
X2069Y417D02*
X2072Y417D01*
X2096Y417D02*
X2099Y417D01*
X2168Y417D02*
X2174Y417D01*
X2288Y417D02*
X2297Y417D01*
X3434Y417D02*
X3441Y417D01*
X0Y416D02*
X7Y416D01*
X353Y416D02*
X355Y416D01*
X398Y416D02*
X400Y416D01*
X546Y416D02*
X548Y416D01*
X886Y416D02*
X888Y416D01*
X1035Y416D02*
X1037Y416D01*
X1215Y416D02*
X1216Y416D01*
X1227Y416D02*
X1228Y416D01*
X1283Y416D02*
X1297Y416D01*
X1365Y416D02*
X1366Y416D01*
X1520Y416D02*
X1521Y416D01*
X1668Y416D02*
X1670Y416D01*
X2069Y416D02*
X2072Y416D01*
X2096Y416D02*
X2099Y416D01*
X2168Y416D02*
X2173Y416D01*
X2285Y416D02*
X2294Y416D01*
X3434Y416D02*
X3441Y416D01*
X0Y415D02*
X7Y415D01*
X353Y415D02*
X355Y415D01*
X398Y415D02*
X400Y415D01*
X546Y415D02*
X548Y415D01*
X886Y415D02*
X888Y415D01*
X1035Y415D02*
X1037Y415D01*
X1215Y415D02*
X1216Y415D01*
X1227Y415D02*
X1228Y415D01*
X1286Y415D02*
X1294Y415D01*
X1365Y415D02*
X1366Y415D01*
X1520Y415D02*
X1521Y415D01*
X1668Y415D02*
X1670Y415D01*
X2069Y415D02*
X2072Y415D01*
X2096Y415D02*
X2099Y415D01*
X2168Y415D02*
X2171Y415D01*
X2283Y415D02*
X2292Y415D01*
X3434Y415D02*
X3441Y415D01*
X0Y414D02*
X7Y414D01*
X353Y414D02*
X355Y414D01*
X398Y414D02*
X400Y414D01*
X466Y414D02*
X480Y414D01*
X546Y414D02*
X548Y414D01*
X886Y414D02*
X888Y414D01*
X1035Y414D02*
X1037Y414D01*
X1215Y414D02*
X1216Y414D01*
X1227Y414D02*
X1228Y414D01*
X1365Y414D02*
X1366Y414D01*
X1520Y414D02*
X1521Y414D01*
X1668Y414D02*
X1670Y414D01*
X2069Y414D02*
X2073Y414D01*
X2096Y414D02*
X2099Y414D01*
X2168Y414D02*
X2171Y414D01*
X2281Y414D02*
X2290Y414D01*
X3434Y414D02*
X3441Y414D01*
X0Y413D02*
X7Y413D01*
X353Y413D02*
X355Y413D01*
X398Y413D02*
X400Y413D01*
X465Y413D02*
X481Y413D01*
X546Y413D02*
X548Y413D01*
X886Y413D02*
X888Y413D01*
X1035Y413D02*
X1037Y413D01*
X1215Y413D02*
X1216Y413D01*
X1227Y413D02*
X1228Y413D01*
X1365Y413D02*
X1366Y413D01*
X1520Y413D02*
X1521Y413D01*
X1668Y413D02*
X1670Y413D01*
X2069Y413D02*
X2074Y413D01*
X2094Y413D02*
X2099Y413D01*
X2168Y413D02*
X2171Y413D01*
X2278Y413D02*
X2288Y413D01*
X3434Y413D02*
X3441Y413D01*
X0Y412D02*
X7Y412D01*
X353Y412D02*
X355Y412D01*
X398Y412D02*
X548Y412D01*
X886Y412D02*
X888Y412D01*
X1035Y412D02*
X1037Y412D01*
X1215Y412D02*
X1216Y412D01*
X1227Y412D02*
X1228Y412D01*
X1365Y412D02*
X1366Y412D01*
X1520Y412D02*
X1521Y412D01*
X1668Y412D02*
X1670Y412D01*
X2070Y412D02*
X2076Y412D01*
X2092Y412D02*
X2098Y412D01*
X2168Y412D02*
X2171Y412D01*
X2276Y412D02*
X2285Y412D01*
X3434Y412D02*
X3441Y412D01*
X0Y411D02*
X7Y411D01*
X353Y411D02*
X355Y411D01*
X398Y411D02*
X548Y411D01*
X886Y411D02*
X888Y411D01*
X1035Y411D02*
X1037Y411D01*
X1215Y411D02*
X1216Y411D01*
X1227Y411D02*
X1228Y411D01*
X1365Y411D02*
X1366Y411D01*
X1520Y411D02*
X1521Y411D01*
X1668Y411D02*
X1670Y411D01*
X2071Y411D02*
X2078Y411D01*
X2091Y411D02*
X2098Y411D01*
X2168Y411D02*
X2197Y411D01*
X2274Y411D02*
X2283Y411D01*
X3434Y411D02*
X3441Y411D01*
X0Y410D02*
X7Y410D01*
X353Y410D02*
X355Y410D01*
X886Y410D02*
X888Y410D01*
X1035Y410D02*
X1037Y410D01*
X1215Y410D02*
X1216Y410D01*
X1227Y410D02*
X1228Y410D01*
X1365Y410D02*
X1366Y410D01*
X1520Y410D02*
X1521Y410D01*
X1668Y410D02*
X1670Y410D01*
X2072Y410D02*
X2080Y410D01*
X2089Y410D02*
X2096Y410D01*
X2168Y410D02*
X2198Y410D01*
X2272Y410D02*
X2281Y410D01*
X3434Y410D02*
X3441Y410D01*
X0Y409D02*
X7Y409D01*
X353Y409D02*
X355Y409D01*
X886Y409D02*
X888Y409D01*
X1035Y409D02*
X1037Y409D01*
X1215Y409D02*
X1216Y409D01*
X1227Y409D02*
X1228Y409D01*
X1365Y409D02*
X1366Y409D01*
X1520Y409D02*
X1521Y409D01*
X1668Y409D02*
X1670Y409D01*
X2074Y409D02*
X2082Y409D01*
X2086Y409D02*
X2095Y409D01*
X2168Y409D02*
X2198Y409D01*
X2270Y409D02*
X2279Y409D01*
X3434Y409D02*
X3441Y409D01*
X0Y408D02*
X7Y408D01*
X353Y408D02*
X355Y408D01*
X886Y408D02*
X888Y408D01*
X1035Y408D02*
X1037Y408D01*
X1215Y408D02*
X1216Y408D01*
X1227Y408D02*
X1228Y408D01*
X1365Y408D02*
X1366Y408D01*
X1520Y408D02*
X1521Y408D01*
X1668Y408D02*
X1670Y408D01*
X2076Y408D02*
X2093Y408D01*
X2168Y408D02*
X2197Y408D01*
X2270Y408D02*
X2277Y408D01*
X3434Y408D02*
X3441Y408D01*
X0Y407D02*
X7Y407D01*
X353Y407D02*
X355Y407D01*
X886Y407D02*
X888Y407D01*
X1035Y407D02*
X1037Y407D01*
X1215Y407D02*
X1216Y407D01*
X1227Y407D02*
X1228Y407D01*
X1365Y407D02*
X1366Y407D01*
X1520Y407D02*
X1521Y407D01*
X1668Y407D02*
X1670Y407D01*
X2078Y407D02*
X2091Y407D01*
X2168Y407D02*
X2171Y407D01*
X2270Y407D02*
X2300Y407D01*
X3434Y407D02*
X3441Y407D01*
X0Y406D02*
X7Y406D01*
X353Y406D02*
X355Y406D01*
X400Y406D02*
X551Y406D01*
X886Y406D02*
X888Y406D01*
X1035Y406D02*
X1037Y406D01*
X1215Y406D02*
X1216Y406D01*
X1227Y406D02*
X1228Y406D01*
X1365Y406D02*
X1366Y406D01*
X1520Y406D02*
X1521Y406D01*
X1668Y406D02*
X1670Y406D01*
X2080Y406D02*
X2089Y406D01*
X2168Y406D02*
X2171Y406D01*
X2270Y406D02*
X2300Y406D01*
X3434Y406D02*
X3441Y406D01*
X0Y405D02*
X7Y405D01*
X353Y405D02*
X355Y405D01*
X400Y405D02*
X551Y405D01*
X886Y405D02*
X888Y405D01*
X1035Y405D02*
X1037Y405D01*
X1215Y405D02*
X1216Y405D01*
X1227Y405D02*
X1228Y405D01*
X1365Y405D02*
X1366Y405D01*
X1520Y405D02*
X1521Y405D01*
X1668Y405D02*
X1670Y405D01*
X2082Y405D02*
X2086Y405D01*
X2168Y405D02*
X2171Y405D01*
X2270Y405D02*
X2300Y405D01*
X3434Y405D02*
X3441Y405D01*
X0Y404D02*
X7Y404D01*
X353Y404D02*
X355Y404D01*
X400Y404D02*
X403Y404D01*
X468Y404D02*
X483Y404D01*
X549Y404D02*
X551Y404D01*
X886Y404D02*
X888Y404D01*
X1035Y404D02*
X1037Y404D01*
X1215Y404D02*
X1216Y404D01*
X1227Y404D02*
X1228Y404D01*
X1365Y404D02*
X1366Y404D01*
X1520Y404D02*
X1521Y404D01*
X1668Y404D02*
X1670Y404D01*
X2168Y404D02*
X2171Y404D01*
X2270Y404D02*
X2299Y404D01*
X3434Y404D02*
X3441Y404D01*
X0Y403D02*
X7Y403D01*
X353Y403D02*
X355Y403D01*
X400Y403D02*
X402Y403D01*
X468Y403D02*
X483Y403D01*
X549Y403D02*
X551Y403D01*
X886Y403D02*
X888Y403D01*
X1035Y403D02*
X1037Y403D01*
X1215Y403D02*
X1216Y403D01*
X1227Y403D02*
X1228Y403D01*
X1365Y403D02*
X1366Y403D01*
X1520Y403D02*
X1521Y403D01*
X1668Y403D02*
X1670Y403D01*
X2168Y403D02*
X2173Y403D01*
X3434Y403D02*
X3441Y403D01*
X0Y402D02*
X7Y402D01*
X353Y402D02*
X355Y402D01*
X400Y402D02*
X402Y402D01*
X549Y402D02*
X551Y402D01*
X886Y402D02*
X888Y402D01*
X1035Y402D02*
X1037Y402D01*
X1215Y402D02*
X1216Y402D01*
X1227Y402D02*
X1228Y402D01*
X1365Y402D02*
X1366Y402D01*
X1520Y402D02*
X1521Y402D01*
X1668Y402D02*
X1670Y402D01*
X2168Y402D02*
X2174Y402D01*
X3434Y402D02*
X3441Y402D01*
X0Y401D02*
X7Y401D01*
X353Y401D02*
X355Y401D01*
X400Y401D02*
X402Y401D01*
X549Y401D02*
X551Y401D01*
X886Y401D02*
X888Y401D01*
X1035Y401D02*
X1037Y401D01*
X1215Y401D02*
X1216Y401D01*
X1227Y401D02*
X1228Y401D01*
X1365Y401D02*
X1366Y401D01*
X1520Y401D02*
X1521Y401D01*
X1668Y401D02*
X1670Y401D01*
X2168Y401D02*
X2174Y401D01*
X3434Y401D02*
X3441Y401D01*
X0Y400D02*
X7Y400D01*
X353Y400D02*
X355Y400D01*
X400Y400D02*
X402Y400D01*
X549Y400D02*
X551Y400D01*
X886Y400D02*
X888Y400D01*
X1035Y400D02*
X1037Y400D01*
X1215Y400D02*
X1216Y400D01*
X1227Y400D02*
X1228Y400D01*
X1365Y400D02*
X1366Y400D01*
X1520Y400D02*
X1521Y400D01*
X1668Y400D02*
X1670Y400D01*
X2168Y400D02*
X2173Y400D01*
X3434Y400D02*
X3441Y400D01*
X0Y399D02*
X7Y399D01*
X353Y399D02*
X355Y399D01*
X400Y399D02*
X402Y399D01*
X549Y399D02*
X551Y399D01*
X886Y399D02*
X888Y399D01*
X1035Y399D02*
X1037Y399D01*
X1215Y399D02*
X1216Y399D01*
X1227Y399D02*
X1228Y399D01*
X1365Y399D02*
X1366Y399D01*
X1520Y399D02*
X1521Y399D01*
X1668Y399D02*
X1670Y399D01*
X3434Y399D02*
X3441Y399D01*
X0Y398D02*
X7Y398D01*
X353Y398D02*
X355Y398D01*
X400Y398D02*
X402Y398D01*
X549Y398D02*
X551Y398D01*
X886Y398D02*
X888Y398D01*
X1035Y398D02*
X1037Y398D01*
X1215Y398D02*
X1216Y398D01*
X1227Y398D02*
X1228Y398D01*
X1365Y398D02*
X1366Y398D01*
X1520Y398D02*
X1521Y398D01*
X1668Y398D02*
X1670Y398D01*
X3434Y398D02*
X3441Y398D01*
X0Y397D02*
X7Y397D01*
X353Y397D02*
X355Y397D01*
X400Y397D02*
X402Y397D01*
X549Y397D02*
X551Y397D01*
X886Y397D02*
X888Y397D01*
X1035Y397D02*
X1037Y397D01*
X1215Y397D02*
X1216Y397D01*
X1227Y397D02*
X1228Y397D01*
X1365Y397D02*
X1366Y397D01*
X1520Y397D02*
X1521Y397D01*
X1668Y397D02*
X1670Y397D01*
X3434Y397D02*
X3441Y397D01*
X0Y396D02*
X7Y396D01*
X353Y396D02*
X355Y396D01*
X400Y396D02*
X402Y396D01*
X549Y396D02*
X551Y396D01*
X886Y396D02*
X888Y396D01*
X1035Y396D02*
X1037Y396D01*
X1215Y396D02*
X1216Y396D01*
X1227Y396D02*
X1228Y396D01*
X1365Y396D02*
X1366Y396D01*
X1520Y396D02*
X1521Y396D01*
X1668Y396D02*
X1670Y396D01*
X3434Y396D02*
X3441Y396D01*
X0Y395D02*
X7Y395D01*
X353Y395D02*
X355Y395D01*
X400Y395D02*
X402Y395D01*
X549Y395D02*
X551Y395D01*
X886Y395D02*
X888Y395D01*
X1035Y395D02*
X1037Y395D01*
X1215Y395D02*
X1216Y395D01*
X1227Y395D02*
X1228Y395D01*
X1365Y395D02*
X1366Y395D01*
X1520Y395D02*
X1521Y395D01*
X1668Y395D02*
X1670Y395D01*
X2070Y395D02*
X2079Y395D01*
X3434Y395D02*
X3441Y395D01*
X0Y394D02*
X7Y394D01*
X353Y394D02*
X355Y394D01*
X400Y394D02*
X402Y394D01*
X549Y394D02*
X551Y394D01*
X886Y394D02*
X888Y394D01*
X1035Y394D02*
X1037Y394D01*
X1211Y394D02*
X1216Y394D01*
X1227Y394D02*
X1228Y394D01*
X1365Y394D02*
X1370Y394D01*
X1520Y394D02*
X1521Y394D01*
X1668Y394D02*
X1670Y394D01*
X2069Y394D02*
X2081Y394D01*
X2270Y394D02*
X2272Y394D01*
X2287Y394D02*
X2297Y394D01*
X3434Y394D02*
X3441Y394D01*
X0Y393D02*
X7Y393D01*
X353Y393D02*
X355Y393D01*
X400Y393D02*
X402Y393D01*
X549Y393D02*
X551Y393D01*
X886Y393D02*
X888Y393D01*
X1035Y393D02*
X1037Y393D01*
X1211Y393D02*
X1216Y393D01*
X1227Y393D02*
X1228Y393D01*
X1365Y393D02*
X1370Y393D01*
X1520Y393D02*
X1521Y393D01*
X1668Y393D02*
X1670Y393D01*
X2069Y393D02*
X2084Y393D01*
X2270Y393D02*
X2273Y393D01*
X2287Y393D02*
X2298Y393D01*
X3434Y393D02*
X3441Y393D01*
X0Y392D02*
X7Y392D01*
X353Y392D02*
X355Y392D01*
X400Y392D02*
X402Y392D01*
X549Y392D02*
X551Y392D01*
X886Y392D02*
X888Y392D01*
X1035Y392D02*
X1037Y392D01*
X1211Y392D02*
X1216Y392D01*
X1227Y392D02*
X1228Y392D01*
X1365Y392D02*
X1370Y392D01*
X1520Y392D02*
X1521Y392D01*
X1668Y392D02*
X1670Y392D01*
X2070Y392D02*
X2087Y392D01*
X2270Y392D02*
X2273Y392D01*
X2287Y392D02*
X2299Y392D01*
X3434Y392D02*
X3441Y392D01*
X0Y391D02*
X7Y391D01*
X353Y391D02*
X355Y391D01*
X400Y391D02*
X402Y391D01*
X549Y391D02*
X551Y391D01*
X886Y391D02*
X888Y391D01*
X1035Y391D02*
X1037Y391D01*
X1211Y391D02*
X1216Y391D01*
X1227Y391D02*
X1228Y391D01*
X1365Y391D02*
X1370Y391D01*
X1520Y391D02*
X1521Y391D01*
X1668Y391D02*
X1670Y391D01*
X2079Y391D02*
X2089Y391D01*
X2270Y391D02*
X2273Y391D01*
X2287Y391D02*
X2300Y391D01*
X3434Y391D02*
X3441Y391D01*
X0Y390D02*
X7Y390D01*
X353Y390D02*
X355Y390D01*
X400Y390D02*
X402Y390D01*
X549Y390D02*
X551Y390D01*
X886Y390D02*
X888Y390D01*
X1035Y390D02*
X1037Y390D01*
X1211Y390D02*
X1216Y390D01*
X1227Y390D02*
X1228Y390D01*
X1365Y390D02*
X1370Y390D01*
X1520Y390D02*
X1521Y390D01*
X1668Y390D02*
X1670Y390D01*
X2082Y390D02*
X2092Y390D01*
X2168Y390D02*
X2170Y390D01*
X2195Y390D02*
X2197Y390D01*
X2270Y390D02*
X2273Y390D01*
X2287Y390D02*
X2290Y390D01*
X2296Y390D02*
X2300Y390D01*
X3434Y390D02*
X3441Y390D01*
X0Y389D02*
X7Y389D01*
X353Y389D02*
X355Y389D01*
X400Y389D02*
X402Y389D01*
X549Y389D02*
X551Y389D01*
X886Y389D02*
X888Y389D01*
X1035Y389D02*
X1037Y389D01*
X1211Y389D02*
X1216Y389D01*
X1227Y389D02*
X1228Y389D01*
X1365Y389D02*
X1370Y389D01*
X1520Y389D02*
X1521Y389D01*
X1668Y389D02*
X1670Y389D01*
X2084Y389D02*
X2094Y389D01*
X2168Y389D02*
X2171Y389D01*
X2195Y389D02*
X2198Y389D01*
X2270Y389D02*
X2273Y389D01*
X2287Y389D02*
X2290Y389D01*
X2297Y389D02*
X2300Y389D01*
X3434Y389D02*
X3441Y389D01*
X0Y388D02*
X7Y388D01*
X353Y388D02*
X355Y388D01*
X400Y388D02*
X402Y388D01*
X549Y388D02*
X551Y388D01*
X886Y388D02*
X888Y388D01*
X1035Y388D02*
X1037Y388D01*
X1211Y388D02*
X1216Y388D01*
X1227Y388D02*
X1228Y388D01*
X1365Y388D02*
X1370Y388D01*
X1520Y388D02*
X1521Y388D01*
X1668Y388D02*
X1670Y388D01*
X2087Y388D02*
X2097Y388D01*
X2168Y388D02*
X2171Y388D01*
X2195Y388D02*
X2198Y388D01*
X2270Y388D02*
X2273Y388D01*
X2287Y388D02*
X2290Y388D01*
X2297Y388D02*
X2300Y388D01*
X3434Y388D02*
X3441Y388D01*
X0Y387D02*
X7Y387D01*
X353Y387D02*
X355Y387D01*
X400Y387D02*
X402Y387D01*
X549Y387D02*
X551Y387D01*
X886Y387D02*
X888Y387D01*
X1035Y387D02*
X1037Y387D01*
X1211Y387D02*
X1216Y387D01*
X1227Y387D02*
X1228Y387D01*
X1365Y387D02*
X1370Y387D01*
X1520Y387D02*
X1521Y387D01*
X1668Y387D02*
X1670Y387D01*
X2089Y387D02*
X2099Y387D01*
X2168Y387D02*
X2171Y387D01*
X2195Y387D02*
X2198Y387D01*
X2270Y387D02*
X2273Y387D01*
X2287Y387D02*
X2290Y387D01*
X2297Y387D02*
X2300Y387D01*
X3434Y387D02*
X3441Y387D01*
X0Y386D02*
X7Y386D01*
X353Y386D02*
X355Y386D01*
X400Y386D02*
X402Y386D01*
X549Y386D02*
X551Y386D01*
X886Y386D02*
X888Y386D01*
X1035Y386D02*
X1037Y386D01*
X1211Y386D02*
X1216Y386D01*
X1227Y386D02*
X1228Y386D01*
X1365Y386D02*
X1370Y386D01*
X1520Y386D02*
X1521Y386D01*
X1668Y386D02*
X1670Y386D01*
X2092Y386D02*
X2099Y386D01*
X2168Y386D02*
X2171Y386D01*
X2195Y386D02*
X2198Y386D01*
X2270Y386D02*
X2273Y386D01*
X2287Y386D02*
X2290Y386D01*
X2297Y386D02*
X2300Y386D01*
X3434Y386D02*
X3441Y386D01*
X0Y385D02*
X7Y385D01*
X353Y385D02*
X355Y385D01*
X400Y385D02*
X402Y385D01*
X549Y385D02*
X551Y385D01*
X886Y385D02*
X888Y385D01*
X1035Y385D02*
X1037Y385D01*
X1211Y385D02*
X1216Y385D01*
X1227Y385D02*
X1228Y385D01*
X1365Y385D02*
X1370Y385D01*
X1520Y385D02*
X1521Y385D01*
X1668Y385D02*
X1670Y385D01*
X2091Y385D02*
X2099Y385D01*
X2168Y385D02*
X2171Y385D01*
X2195Y385D02*
X2198Y385D01*
X2270Y385D02*
X2274Y385D01*
X2288Y385D02*
X2288Y385D01*
X2297Y385D02*
X2300Y385D01*
X3434Y385D02*
X3441Y385D01*
X0Y384D02*
X7Y384D01*
X353Y384D02*
X355Y384D01*
X400Y384D02*
X402Y384D01*
X549Y384D02*
X551Y384D01*
X886Y384D02*
X888Y384D01*
X1035Y384D02*
X1037Y384D01*
X1211Y384D02*
X1216Y384D01*
X1227Y384D02*
X1228Y384D01*
X1365Y384D02*
X1370Y384D01*
X1520Y384D02*
X1521Y384D01*
X1668Y384D02*
X1670Y384D01*
X2088Y384D02*
X2098Y384D01*
X2168Y384D02*
X2171Y384D01*
X2195Y384D02*
X2198Y384D01*
X2270Y384D02*
X2275Y384D01*
X2297Y384D02*
X2300Y384D01*
X3434Y384D02*
X3441Y384D01*
X0Y383D02*
X7Y383D01*
X353Y383D02*
X355Y383D01*
X400Y383D02*
X402Y383D01*
X549Y383D02*
X551Y383D01*
X886Y383D02*
X888Y383D01*
X1035Y383D02*
X1037Y383D01*
X1211Y383D02*
X1216Y383D01*
X1227Y383D02*
X1228Y383D01*
X1365Y383D02*
X1370Y383D01*
X1520Y383D02*
X1521Y383D01*
X1668Y383D02*
X1670Y383D01*
X2086Y383D02*
X2096Y383D01*
X2168Y383D02*
X2171Y383D01*
X2195Y383D02*
X2198Y383D01*
X2271Y383D02*
X2276Y383D01*
X2297Y383D02*
X2300Y383D01*
X3434Y383D02*
X3441Y383D01*
X0Y382D02*
X7Y382D01*
X353Y382D02*
X355Y382D01*
X400Y382D02*
X402Y382D01*
X549Y382D02*
X551Y382D01*
X886Y382D02*
X888Y382D01*
X1035Y382D02*
X1037Y382D01*
X1211Y382D02*
X1216Y382D01*
X1227Y382D02*
X1228Y382D01*
X1365Y382D02*
X1370Y382D01*
X1520Y382D02*
X1521Y382D01*
X1668Y382D02*
X1670Y382D01*
X2083Y382D02*
X2094Y382D01*
X2168Y382D02*
X2171Y382D01*
X2195Y382D02*
X2198Y382D01*
X2272Y382D02*
X2278Y382D01*
X2297Y382D02*
X2300Y382D01*
X3434Y382D02*
X3441Y382D01*
X0Y381D02*
X7Y381D01*
X353Y381D02*
X355Y381D01*
X400Y381D02*
X402Y381D01*
X549Y381D02*
X551Y381D01*
X886Y381D02*
X888Y381D01*
X1035Y381D02*
X1037Y381D01*
X1211Y381D02*
X1216Y381D01*
X1227Y381D02*
X1228Y381D01*
X1365Y381D02*
X1370Y381D01*
X1520Y381D02*
X1521Y381D01*
X1668Y381D02*
X1670Y381D01*
X2081Y381D02*
X2091Y381D01*
X2168Y381D02*
X2171Y381D01*
X2195Y381D02*
X2198Y381D01*
X2273Y381D02*
X2279Y381D01*
X2297Y381D02*
X2300Y381D01*
X3434Y381D02*
X3441Y381D01*
X0Y380D02*
X7Y380D01*
X353Y380D02*
X355Y380D01*
X400Y380D02*
X402Y380D01*
X549Y380D02*
X551Y380D01*
X886Y380D02*
X888Y380D01*
X1035Y380D02*
X1037Y380D01*
X1215Y380D02*
X1216Y380D01*
X1227Y380D02*
X1228Y380D01*
X1365Y380D02*
X1366Y380D01*
X1520Y380D02*
X1521Y380D01*
X1668Y380D02*
X1670Y380D01*
X2078Y380D02*
X2088Y380D01*
X2168Y380D02*
X2171Y380D01*
X2194Y380D02*
X2198Y380D01*
X2275Y380D02*
X2280Y380D01*
X2297Y380D02*
X2300Y380D01*
X3434Y380D02*
X3441Y380D01*
X0Y379D02*
X7Y379D01*
X353Y379D02*
X355Y379D01*
X400Y379D02*
X402Y379D01*
X549Y379D02*
X551Y379D01*
X886Y379D02*
X888Y379D01*
X1035Y379D02*
X1037Y379D01*
X1215Y379D02*
X1216Y379D01*
X1227Y379D02*
X1228Y379D01*
X1365Y379D02*
X1366Y379D01*
X1520Y379D02*
X1521Y379D01*
X1668Y379D02*
X1670Y379D01*
X2070Y379D02*
X2086Y379D01*
X2168Y379D02*
X2173Y379D01*
X2193Y379D02*
X2197Y379D01*
X2276Y379D02*
X2283Y379D01*
X2295Y379D02*
X2300Y379D01*
X3434Y379D02*
X3441Y379D01*
X0Y378D02*
X7Y378D01*
X353Y378D02*
X355Y378D01*
X400Y378D02*
X402Y378D01*
X549Y378D02*
X551Y378D01*
X886Y378D02*
X888Y378D01*
X1035Y378D02*
X1037Y378D01*
X1215Y378D02*
X1216Y378D01*
X1227Y378D02*
X1228Y378D01*
X1365Y378D02*
X1366Y378D01*
X1520Y378D02*
X1521Y378D01*
X1588Y378D02*
X1602Y378D01*
X1668Y378D02*
X1670Y378D01*
X2069Y378D02*
X2083Y378D01*
X2169Y378D02*
X2175Y378D01*
X2191Y378D02*
X2197Y378D01*
X2277Y378D02*
X2299Y378D01*
X3434Y378D02*
X3441Y378D01*
X0Y377D02*
X7Y377D01*
X353Y377D02*
X355Y377D01*
X400Y377D02*
X402Y377D01*
X549Y377D02*
X551Y377D01*
X886Y377D02*
X888Y377D01*
X1035Y377D02*
X1037Y377D01*
X1215Y377D02*
X1216Y377D01*
X1227Y377D02*
X1228Y377D01*
X1365Y377D02*
X1366Y377D01*
X1520Y377D02*
X1522Y377D01*
X1587Y377D02*
X1603Y377D01*
X1668Y377D02*
X1670Y377D01*
X2069Y377D02*
X2081Y377D01*
X2169Y377D02*
X2177Y377D01*
X2189Y377D02*
X2196Y377D01*
X2279Y377D02*
X2298Y377D01*
X3434Y377D02*
X3441Y377D01*
X0Y376D02*
X7Y376D01*
X353Y376D02*
X355Y376D01*
X400Y376D02*
X402Y376D01*
X549Y376D02*
X551Y376D01*
X886Y376D02*
X888Y376D01*
X1035Y376D02*
X1037Y376D01*
X1215Y376D02*
X1216Y376D01*
X1227Y376D02*
X1228Y376D01*
X1365Y376D02*
X1366Y376D01*
X1520Y376D02*
X1670Y376D01*
X2070Y376D02*
X2078Y376D01*
X2171Y376D02*
X2179Y376D01*
X2187Y376D02*
X2195Y376D01*
X2280Y376D02*
X2297Y376D01*
X3434Y376D02*
X3441Y376D01*
X0Y375D02*
X7Y375D01*
X353Y375D02*
X355Y375D01*
X400Y375D02*
X402Y375D01*
X549Y375D02*
X551Y375D01*
X886Y375D02*
X888Y375D01*
X1035Y375D02*
X1037Y375D01*
X1215Y375D02*
X1216Y375D01*
X1227Y375D02*
X1228Y375D01*
X1365Y375D02*
X1366Y375D01*
X1520Y375D02*
X1670Y375D01*
X2172Y375D02*
X2181Y375D01*
X2185Y375D02*
X2193Y375D01*
X2283Y375D02*
X2295Y375D01*
X3434Y375D02*
X3441Y375D01*
X0Y374D02*
X7Y374D01*
X353Y374D02*
X355Y374D01*
X400Y374D02*
X402Y374D01*
X549Y374D02*
X551Y374D01*
X886Y374D02*
X888Y374D01*
X1035Y374D02*
X1037Y374D01*
X1215Y374D02*
X1216Y374D01*
X1227Y374D02*
X1228Y374D01*
X1365Y374D02*
X1366Y374D01*
X2174Y374D02*
X2191Y374D01*
X3434Y374D02*
X3441Y374D01*
X0Y373D02*
X7Y373D01*
X353Y373D02*
X355Y373D01*
X400Y373D02*
X402Y373D01*
X549Y373D02*
X551Y373D01*
X886Y373D02*
X888Y373D01*
X1035Y373D02*
X1037Y373D01*
X1215Y373D02*
X1216Y373D01*
X1227Y373D02*
X1228Y373D01*
X1365Y373D02*
X1366Y373D01*
X2176Y373D02*
X2189Y373D01*
X3434Y373D02*
X3441Y373D01*
X0Y372D02*
X7Y372D01*
X353Y372D02*
X355Y372D01*
X400Y372D02*
X402Y372D01*
X549Y372D02*
X551Y372D01*
X886Y372D02*
X888Y372D01*
X1035Y372D02*
X1037Y372D01*
X1215Y372D02*
X1216Y372D01*
X1227Y372D02*
X1228Y372D01*
X1365Y372D02*
X1366Y372D01*
X2178Y372D02*
X2187Y372D01*
X3434Y372D02*
X3441Y372D01*
X0Y371D02*
X7Y371D01*
X353Y371D02*
X355Y371D01*
X400Y371D02*
X402Y371D01*
X549Y371D02*
X551Y371D01*
X886Y371D02*
X888Y371D01*
X1035Y371D02*
X1037Y371D01*
X1215Y371D02*
X1216Y371D01*
X1227Y371D02*
X1228Y371D01*
X1365Y371D02*
X1366Y371D01*
X2181Y371D02*
X2184Y371D01*
X3434Y371D02*
X3441Y371D01*
X0Y370D02*
X7Y370D01*
X353Y370D02*
X355Y370D01*
X400Y370D02*
X402Y370D01*
X549Y370D02*
X551Y370D01*
X886Y370D02*
X888Y370D01*
X1035Y370D02*
X1037Y370D01*
X1215Y370D02*
X1216Y370D01*
X1227Y370D02*
X1227Y370D01*
X1365Y370D02*
X1366Y370D01*
X3434Y370D02*
X3441Y370D01*
X0Y369D02*
X7Y369D01*
X353Y369D02*
X355Y369D01*
X400Y369D02*
X402Y369D01*
X549Y369D02*
X551Y369D01*
X886Y369D02*
X888Y369D01*
X1035Y369D02*
X1037Y369D01*
X1215Y369D02*
X1216Y369D01*
X1227Y369D02*
X1227Y369D01*
X1365Y369D02*
X1366Y369D01*
X3434Y369D02*
X3441Y369D01*
X0Y368D02*
X7Y368D01*
X353Y368D02*
X355Y368D01*
X400Y368D02*
X402Y368D01*
X549Y368D02*
X551Y368D01*
X886Y368D02*
X888Y368D01*
X1035Y368D02*
X1037Y368D01*
X1215Y368D02*
X1216Y368D01*
X1227Y368D02*
X1227Y368D01*
X1365Y368D02*
X1366Y368D01*
X1578Y368D02*
X1592Y368D01*
X1609Y368D02*
X1619Y368D01*
X3434Y368D02*
X3441Y368D01*
X0Y367D02*
X7Y367D01*
X353Y367D02*
X355Y367D01*
X400Y367D02*
X402Y367D01*
X549Y367D02*
X551Y367D01*
X886Y367D02*
X888Y367D01*
X1035Y367D02*
X1037Y367D01*
X1215Y367D02*
X1216Y367D01*
X1365Y367D02*
X1366Y367D01*
X1577Y367D02*
X1594Y367D01*
X1608Y367D02*
X1619Y367D01*
X3434Y367D02*
X3441Y367D01*
X0Y366D02*
X7Y366D01*
X353Y366D02*
X355Y366D01*
X400Y366D02*
X402Y366D01*
X549Y366D02*
X551Y366D01*
X886Y366D02*
X888Y366D01*
X954Y366D02*
X969Y366D01*
X1035Y366D02*
X1037Y366D01*
X1215Y366D02*
X1216Y366D01*
X1365Y366D02*
X1366Y366D01*
X1577Y366D02*
X1595Y366D01*
X1607Y366D02*
X1619Y366D01*
X3434Y366D02*
X3441Y366D01*
X0Y365D02*
X7Y365D01*
X353Y365D02*
X355Y365D01*
X400Y365D02*
X402Y365D01*
X549Y365D02*
X551Y365D01*
X886Y365D02*
X889Y365D01*
X954Y365D02*
X969Y365D01*
X1035Y365D02*
X1037Y365D01*
X1215Y365D02*
X1216Y365D01*
X1365Y365D02*
X1366Y365D01*
X1577Y365D02*
X1596Y365D01*
X1608Y365D02*
X1619Y365D01*
X3434Y365D02*
X3441Y365D01*
X0Y364D02*
X7Y364D01*
X353Y364D02*
X355Y364D01*
X400Y364D02*
X402Y364D01*
X549Y364D02*
X551Y364D01*
X886Y364D02*
X1037Y364D01*
X1215Y364D02*
X1216Y364D01*
X1365Y364D02*
X1366Y364D01*
X1577Y364D02*
X1597Y364D01*
X1609Y364D02*
X1619Y364D01*
X3434Y364D02*
X3441Y364D01*
X0Y363D02*
X7Y363D01*
X353Y363D02*
X355Y363D01*
X400Y363D02*
X402Y363D01*
X549Y363D02*
X551Y363D01*
X886Y363D02*
X1037Y363D01*
X1215Y363D02*
X1216Y363D01*
X1365Y363D02*
X1366Y363D01*
X1577Y363D02*
X1580Y363D01*
X1593Y363D02*
X1597Y363D01*
X1616Y363D02*
X1619Y363D01*
X3434Y363D02*
X3441Y363D01*
X0Y362D02*
X7Y362D01*
X353Y362D02*
X355Y362D01*
X400Y362D02*
X402Y362D01*
X549Y362D02*
X551Y362D01*
X1215Y362D02*
X1216Y362D01*
X1365Y362D02*
X1366Y362D01*
X1577Y362D02*
X1580Y362D01*
X1594Y362D02*
X1597Y362D01*
X1616Y362D02*
X1619Y362D01*
X3434Y362D02*
X3441Y362D01*
X0Y361D02*
X7Y361D01*
X353Y361D02*
X355Y361D01*
X400Y361D02*
X402Y361D01*
X549Y361D02*
X551Y361D01*
X1215Y361D02*
X1216Y361D01*
X1365Y361D02*
X1366Y361D01*
X1577Y361D02*
X1580Y361D01*
X1594Y361D02*
X1597Y361D01*
X1616Y361D02*
X1619Y361D01*
X3434Y361D02*
X3441Y361D01*
X0Y360D02*
X7Y360D01*
X353Y360D02*
X355Y360D01*
X400Y360D02*
X402Y360D01*
X549Y360D02*
X551Y360D01*
X1215Y360D02*
X1216Y360D01*
X1365Y360D02*
X1366Y360D01*
X1577Y360D02*
X1580Y360D01*
X1594Y360D02*
X1597Y360D01*
X1616Y360D02*
X1619Y360D01*
X3434Y360D02*
X3441Y360D01*
X0Y359D02*
X7Y359D01*
X353Y359D02*
X355Y359D01*
X400Y359D02*
X402Y359D01*
X549Y359D02*
X551Y359D01*
X1215Y359D02*
X1216Y359D01*
X1227Y359D02*
X1227Y359D01*
X1365Y359D02*
X1366Y359D01*
X1577Y359D02*
X1580Y359D01*
X1594Y359D02*
X1597Y359D01*
X1616Y359D02*
X1619Y359D01*
X3434Y359D02*
X3441Y359D01*
X0Y358D02*
X7Y358D01*
X353Y358D02*
X355Y358D01*
X400Y358D02*
X402Y358D01*
X549Y358D02*
X551Y358D01*
X1215Y358D02*
X1216Y358D01*
X1227Y358D02*
X1227Y358D01*
X1365Y358D02*
X1366Y358D01*
X1577Y358D02*
X1581Y358D01*
X1593Y358D02*
X1597Y358D01*
X1616Y358D02*
X1619Y358D01*
X3434Y358D02*
X3441Y358D01*
X0Y357D02*
X7Y357D01*
X353Y357D02*
X355Y357D01*
X400Y357D02*
X402Y357D01*
X549Y357D02*
X551Y357D01*
X1215Y357D02*
X1216Y357D01*
X1227Y357D02*
X1227Y357D01*
X1365Y357D02*
X1366Y357D01*
X1577Y357D02*
X1596Y357D01*
X1616Y357D02*
X1619Y357D01*
X3434Y357D02*
X3441Y357D01*
X0Y356D02*
X7Y356D01*
X353Y356D02*
X355Y356D01*
X400Y356D02*
X402Y356D01*
X549Y356D02*
X551Y356D01*
X975Y356D02*
X986Y356D01*
X998Y356D02*
X1014Y356D01*
X1215Y356D02*
X1216Y356D01*
X1227Y356D02*
X1228Y356D01*
X1365Y356D02*
X1366Y356D01*
X1577Y356D02*
X1596Y356D01*
X1616Y356D02*
X1619Y356D01*
X3434Y356D02*
X3441Y356D01*
X0Y355D02*
X7Y355D01*
X353Y355D02*
X355Y355D01*
X400Y355D02*
X402Y355D01*
X549Y355D02*
X551Y355D01*
X973Y355D02*
X986Y355D01*
X997Y355D02*
X1015Y355D01*
X1215Y355D02*
X1216Y355D01*
X1227Y355D02*
X1228Y355D01*
X1365Y355D02*
X1366Y355D01*
X1577Y355D02*
X1595Y355D01*
X1616Y355D02*
X1619Y355D01*
X3434Y355D02*
X3441Y355D01*
X0Y354D02*
X7Y354D01*
X353Y354D02*
X355Y354D01*
X400Y354D02*
X402Y354D01*
X549Y354D02*
X551Y354D01*
X972Y354D02*
X986Y354D01*
X997Y354D02*
X1016Y354D01*
X1215Y354D02*
X1216Y354D01*
X1227Y354D02*
X1228Y354D01*
X1365Y354D02*
X1366Y354D01*
X1577Y354D02*
X1593Y354D01*
X1616Y354D02*
X1619Y354D01*
X3434Y354D02*
X3441Y354D01*
X0Y353D02*
X7Y353D01*
X353Y353D02*
X355Y353D01*
X400Y353D02*
X402Y353D01*
X549Y353D02*
X551Y353D01*
X972Y353D02*
X986Y353D01*
X997Y353D02*
X1016Y353D01*
X1215Y353D02*
X1216Y353D01*
X1227Y353D02*
X1228Y353D01*
X1365Y353D02*
X1366Y353D01*
X1577Y353D02*
X1581Y353D01*
X1584Y353D02*
X1589Y353D01*
X1616Y353D02*
X1619Y353D01*
X3434Y353D02*
X3441Y353D01*
X0Y352D02*
X7Y352D01*
X353Y352D02*
X355Y352D01*
X400Y352D02*
X402Y352D01*
X549Y352D02*
X551Y352D01*
X971Y352D02*
X975Y352D01*
X1013Y352D02*
X1017Y352D01*
X1215Y352D02*
X1216Y352D01*
X1227Y352D02*
X1228Y352D01*
X1365Y352D02*
X1366Y352D01*
X1577Y352D02*
X1580Y352D01*
X1585Y352D02*
X1589Y352D01*
X1616Y352D02*
X1619Y352D01*
X3434Y352D02*
X3441Y352D01*
X0Y351D02*
X7Y351D01*
X351Y351D02*
X355Y351D01*
X400Y351D02*
X402Y351D01*
X549Y351D02*
X551Y351D01*
X971Y351D02*
X975Y351D01*
X1013Y351D02*
X1017Y351D01*
X1215Y351D02*
X1216Y351D01*
X1227Y351D02*
X1228Y351D01*
X1365Y351D02*
X1366Y351D01*
X1577Y351D02*
X1580Y351D01*
X1586Y351D02*
X1590Y351D01*
X1616Y351D02*
X1619Y351D01*
X3434Y351D02*
X3441Y351D01*
X0Y350D02*
X7Y350D01*
X351Y350D02*
X355Y350D01*
X400Y350D02*
X402Y350D01*
X549Y350D02*
X551Y350D01*
X970Y350D02*
X974Y350D01*
X1013Y350D02*
X1017Y350D01*
X1215Y350D02*
X1216Y350D01*
X1227Y350D02*
X1228Y350D01*
X1365Y350D02*
X1366Y350D01*
X1577Y350D02*
X1580Y350D01*
X1586Y350D02*
X1590Y350D01*
X1616Y350D02*
X1619Y350D01*
X1625Y350D02*
X1626Y350D01*
X3434Y350D02*
X3441Y350D01*
X0Y349D02*
X7Y349D01*
X351Y349D02*
X355Y349D01*
X400Y349D02*
X402Y349D01*
X549Y349D02*
X551Y349D01*
X970Y349D02*
X974Y349D01*
X1013Y349D02*
X1017Y349D01*
X1215Y349D02*
X1216Y349D01*
X1227Y349D02*
X1228Y349D01*
X1365Y349D02*
X1366Y349D01*
X1577Y349D02*
X1580Y349D01*
X1587Y349D02*
X1591Y349D01*
X1616Y349D02*
X1619Y349D01*
X1624Y349D02*
X1627Y349D01*
X3434Y349D02*
X3441Y349D01*
X0Y348D02*
X7Y348D01*
X351Y348D02*
X355Y348D01*
X400Y348D02*
X402Y348D01*
X549Y348D02*
X551Y348D01*
X969Y348D02*
X973Y348D01*
X1013Y348D02*
X1017Y348D01*
X1215Y348D02*
X1216Y348D01*
X1227Y348D02*
X1228Y348D01*
X1365Y348D02*
X1366Y348D01*
X1577Y348D02*
X1580Y348D01*
X1587Y348D02*
X1591Y348D01*
X1616Y348D02*
X1619Y348D01*
X1624Y348D02*
X1627Y348D01*
X3434Y348D02*
X3441Y348D01*
X0Y347D02*
X7Y347D01*
X351Y347D02*
X355Y347D01*
X400Y347D02*
X402Y347D01*
X549Y347D02*
X551Y347D01*
X969Y347D02*
X973Y347D01*
X1013Y347D02*
X1017Y347D01*
X1215Y347D02*
X1216Y347D01*
X1227Y347D02*
X1228Y347D01*
X1365Y347D02*
X1366Y347D01*
X1577Y347D02*
X1580Y347D01*
X1588Y347D02*
X1592Y347D01*
X1616Y347D02*
X1619Y347D01*
X1624Y347D02*
X1627Y347D01*
X3434Y347D02*
X3441Y347D01*
X0Y346D02*
X7Y346D01*
X351Y346D02*
X355Y346D01*
X400Y346D02*
X402Y346D01*
X549Y346D02*
X551Y346D01*
X968Y346D02*
X972Y346D01*
X1013Y346D02*
X1017Y346D01*
X1215Y346D02*
X1216Y346D01*
X1227Y346D02*
X1228Y346D01*
X1365Y346D02*
X1366Y346D01*
X1577Y346D02*
X1580Y346D01*
X1589Y346D02*
X1593Y346D01*
X1616Y346D02*
X1619Y346D01*
X1624Y346D02*
X1627Y346D01*
X3434Y346D02*
X3441Y346D01*
X0Y345D02*
X7Y345D01*
X351Y345D02*
X355Y345D01*
X400Y345D02*
X402Y345D01*
X549Y345D02*
X551Y345D01*
X968Y345D02*
X972Y345D01*
X1013Y345D02*
X1017Y345D01*
X1215Y345D02*
X1216Y345D01*
X1227Y345D02*
X1228Y345D01*
X1365Y345D02*
X1366Y345D01*
X1577Y345D02*
X1580Y345D01*
X1589Y345D02*
X1593Y345D01*
X1616Y345D02*
X1619Y345D01*
X1624Y345D02*
X1627Y345D01*
X3434Y345D02*
X3441Y345D01*
X0Y344D02*
X7Y344D01*
X351Y344D02*
X355Y344D01*
X400Y344D02*
X402Y344D01*
X549Y344D02*
X551Y344D01*
X967Y344D02*
X971Y344D01*
X1013Y344D02*
X1016Y344D01*
X1211Y344D02*
X1216Y344D01*
X1227Y344D02*
X1228Y344D01*
X1365Y344D02*
X1370Y344D01*
X1577Y344D02*
X1580Y344D01*
X1590Y344D02*
X1594Y344D01*
X1616Y344D02*
X1619Y344D01*
X1624Y344D02*
X1627Y344D01*
X3434Y344D02*
X3441Y344D01*
X0Y343D02*
X7Y343D01*
X351Y343D02*
X355Y343D01*
X400Y343D02*
X402Y343D01*
X549Y343D02*
X551Y343D01*
X967Y343D02*
X971Y343D01*
X1012Y343D02*
X1016Y343D01*
X1211Y343D02*
X1216Y343D01*
X1227Y343D02*
X1228Y343D01*
X1365Y343D02*
X1370Y343D01*
X1577Y343D02*
X1580Y343D01*
X1590Y343D02*
X1594Y343D01*
X1616Y343D02*
X1619Y343D01*
X1624Y343D02*
X1627Y343D01*
X3434Y343D02*
X3441Y343D01*
X0Y342D02*
X7Y342D01*
X351Y342D02*
X355Y342D01*
X400Y342D02*
X402Y342D01*
X549Y342D02*
X551Y342D01*
X967Y342D02*
X970Y342D01*
X1002Y342D02*
X1016Y342D01*
X1211Y342D02*
X1216Y342D01*
X1227Y342D02*
X1228Y342D01*
X1365Y342D02*
X1370Y342D01*
X1577Y342D02*
X1580Y342D01*
X1591Y342D02*
X1595Y342D01*
X1616Y342D02*
X1619Y342D01*
X1624Y342D02*
X1627Y342D01*
X3434Y342D02*
X3441Y342D01*
X0Y341D02*
X7Y341D01*
X351Y341D02*
X355Y341D01*
X400Y341D02*
X402Y341D01*
X549Y341D02*
X551Y341D01*
X967Y341D02*
X970Y341D01*
X1001Y341D02*
X1015Y341D01*
X1211Y341D02*
X1216Y341D01*
X1227Y341D02*
X1228Y341D01*
X1365Y341D02*
X1370Y341D01*
X1577Y341D02*
X1580Y341D01*
X1592Y341D02*
X1595Y341D01*
X1616Y341D02*
X1619Y341D01*
X1624Y341D02*
X1627Y341D01*
X3434Y341D02*
X3441Y341D01*
X0Y340D02*
X7Y340D01*
X351Y340D02*
X355Y340D01*
X400Y340D02*
X402Y340D01*
X549Y340D02*
X551Y340D01*
X967Y340D02*
X970Y340D01*
X1001Y340D02*
X1015Y340D01*
X1211Y340D02*
X1216Y340D01*
X1227Y340D02*
X1228Y340D01*
X1365Y340D02*
X1370Y340D01*
X1577Y340D02*
X1580Y340D01*
X1592Y340D02*
X1596Y340D01*
X1615Y340D02*
X1619Y340D01*
X1624Y340D02*
X1627Y340D01*
X3434Y340D02*
X3441Y340D01*
X0Y339D02*
X7Y339D01*
X351Y339D02*
X355Y339D01*
X400Y339D02*
X402Y339D01*
X549Y339D02*
X551Y339D01*
X967Y339D02*
X970Y339D01*
X1001Y339D02*
X1016Y339D01*
X1211Y339D02*
X1216Y339D01*
X1227Y339D02*
X1228Y339D01*
X1365Y339D02*
X1370Y339D01*
X1577Y339D02*
X1580Y339D01*
X1593Y339D02*
X1597Y339D01*
X1608Y339D02*
X1627Y339D01*
X3434Y339D02*
X3441Y339D01*
X0Y338D02*
X7Y338D01*
X351Y338D02*
X355Y338D01*
X400Y338D02*
X402Y338D01*
X549Y338D02*
X551Y338D01*
X967Y338D02*
X970Y338D01*
X1012Y338D02*
X1016Y338D01*
X1211Y338D02*
X1216Y338D01*
X1227Y338D02*
X1228Y338D01*
X1365Y338D02*
X1370Y338D01*
X1577Y338D02*
X1580Y338D01*
X1593Y338D02*
X1597Y338D01*
X1607Y338D02*
X1627Y338D01*
X3434Y338D02*
X3441Y338D01*
X0Y337D02*
X7Y337D01*
X351Y337D02*
X355Y337D01*
X400Y337D02*
X402Y337D01*
X549Y337D02*
X551Y337D01*
X967Y337D02*
X971Y337D01*
X1013Y337D02*
X1016Y337D01*
X1211Y337D02*
X1216Y337D01*
X1227Y337D02*
X1228Y337D01*
X1365Y337D02*
X1370Y337D01*
X1577Y337D02*
X1580Y337D01*
X1594Y337D02*
X1597Y337D01*
X1608Y337D02*
X1627Y337D01*
X3434Y337D02*
X3441Y337D01*
X0Y336D02*
X7Y336D01*
X351Y336D02*
X355Y336D01*
X400Y336D02*
X402Y336D01*
X468Y336D02*
X483Y336D01*
X549Y336D02*
X551Y336D01*
X968Y336D02*
X971Y336D01*
X1013Y336D02*
X1017Y336D01*
X1211Y336D02*
X1216Y336D01*
X1227Y336D02*
X1228Y336D01*
X1365Y336D02*
X1370Y336D01*
X1578Y336D02*
X1579Y336D01*
X1595Y336D02*
X1596Y336D01*
X1608Y336D02*
X1626Y336D01*
X3434Y336D02*
X3441Y336D01*
X0Y335D02*
X7Y335D01*
X351Y335D02*
X355Y335D01*
X400Y335D02*
X420Y335D01*
X451Y335D02*
X551Y335D01*
X968Y335D02*
X972Y335D01*
X1013Y335D02*
X1017Y335D01*
X1211Y335D02*
X1216Y335D01*
X1227Y335D02*
X1228Y335D01*
X1365Y335D02*
X1370Y335D01*
X3434Y335D02*
X3441Y335D01*
X0Y334D02*
X7Y334D01*
X351Y334D02*
X355Y334D01*
X400Y334D02*
X419Y334D01*
X452Y334D02*
X551Y334D01*
X969Y334D02*
X972Y334D01*
X1013Y334D02*
X1017Y334D01*
X1211Y334D02*
X1216Y334D01*
X1227Y334D02*
X1228Y334D01*
X1365Y334D02*
X1370Y334D01*
X3434Y334D02*
X3441Y334D01*
X0Y333D02*
X7Y333D01*
X351Y333D02*
X355Y333D01*
X400Y333D02*
X417Y333D01*
X453Y333D02*
X551Y333D01*
X969Y333D02*
X973Y333D01*
X1013Y333D02*
X1017Y333D01*
X1211Y333D02*
X1216Y333D01*
X1227Y333D02*
X1228Y333D01*
X1365Y333D02*
X1370Y333D01*
X3434Y333D02*
X3441Y333D01*
X0Y332D02*
X7Y332D01*
X351Y332D02*
X355Y332D01*
X970Y332D02*
X973Y332D01*
X1013Y332D02*
X1017Y332D01*
X1211Y332D02*
X1216Y332D01*
X1227Y332D02*
X1228Y332D01*
X1365Y332D02*
X1370Y332D01*
X3434Y332D02*
X3441Y332D01*
X0Y331D02*
X7Y331D01*
X351Y331D02*
X355Y331D01*
X970Y331D02*
X974Y331D01*
X1013Y331D02*
X1017Y331D01*
X1211Y331D02*
X1216Y331D01*
X1227Y331D02*
X1228Y331D01*
X1365Y331D02*
X1370Y331D01*
X3434Y331D02*
X3441Y331D01*
X0Y330D02*
X7Y330D01*
X351Y330D02*
X355Y330D01*
X971Y330D02*
X974Y330D01*
X1013Y330D02*
X1017Y330D01*
X1215Y330D02*
X1216Y330D01*
X1227Y330D02*
X1228Y330D01*
X1365Y330D02*
X1366Y330D01*
X3434Y330D02*
X3441Y330D01*
X0Y329D02*
X7Y329D01*
X351Y329D02*
X355Y329D01*
X971Y329D02*
X975Y329D01*
X1013Y329D02*
X1017Y329D01*
X1215Y329D02*
X1216Y329D01*
X1227Y329D02*
X1228Y329D01*
X1365Y329D02*
X1366Y329D01*
X3434Y329D02*
X3441Y329D01*
X0Y328D02*
X7Y328D01*
X351Y328D02*
X355Y328D01*
X508Y328D02*
X518Y328D01*
X530Y328D02*
X541Y328D01*
X972Y328D02*
X985Y328D01*
X998Y328D02*
X1016Y328D01*
X1215Y328D02*
X1216Y328D01*
X1227Y328D02*
X1228Y328D01*
X1365Y328D02*
X1366Y328D01*
X3434Y328D02*
X3441Y328D01*
X0Y327D02*
X7Y327D01*
X351Y327D02*
X355Y327D01*
X506Y327D02*
X519Y327D01*
X530Y327D02*
X541Y327D01*
X972Y327D02*
X986Y327D01*
X997Y327D02*
X1016Y327D01*
X1215Y327D02*
X1216Y327D01*
X1227Y327D02*
X1228Y327D01*
X1365Y327D02*
X1366Y327D01*
X3434Y327D02*
X3441Y327D01*
X0Y326D02*
X7Y326D01*
X351Y326D02*
X355Y326D01*
X505Y326D02*
X519Y326D01*
X530Y326D02*
X541Y326D01*
X973Y326D02*
X986Y326D01*
X997Y326D02*
X1016Y326D01*
X1215Y326D02*
X1216Y326D01*
X1227Y326D02*
X1228Y326D01*
X1365Y326D02*
X1366Y326D01*
X3434Y326D02*
X3441Y326D01*
X0Y325D02*
X7Y325D01*
X351Y325D02*
X355Y325D01*
X505Y325D02*
X519Y325D01*
X530Y325D02*
X541Y325D01*
X974Y325D02*
X986Y325D01*
X997Y325D02*
X1015Y325D01*
X1215Y325D02*
X1216Y325D01*
X1227Y325D02*
X1228Y325D01*
X1365Y325D02*
X1366Y325D01*
X3434Y325D02*
X3441Y325D01*
X0Y324D02*
X7Y324D01*
X351Y324D02*
X355Y324D01*
X504Y324D02*
X508Y324D01*
X538Y324D02*
X541Y324D01*
X1215Y324D02*
X1216Y324D01*
X1227Y324D02*
X1228Y324D01*
X1365Y324D02*
X1366Y324D01*
X3434Y324D02*
X3441Y324D01*
X0Y323D02*
X7Y323D01*
X351Y323D02*
X355Y323D01*
X504Y323D02*
X507Y323D01*
X538Y323D02*
X541Y323D01*
X1215Y323D02*
X1216Y323D01*
X1227Y323D02*
X1228Y323D01*
X1365Y323D02*
X1366Y323D01*
X3434Y323D02*
X3441Y323D01*
X0Y322D02*
X7Y322D01*
X351Y322D02*
X355Y322D01*
X503Y322D02*
X507Y322D01*
X538Y322D02*
X541Y322D01*
X1215Y322D02*
X1216Y322D01*
X1227Y322D02*
X1228Y322D01*
X1365Y322D02*
X1366Y322D01*
X1839Y322D02*
X1841Y322D01*
X1870Y322D02*
X1880Y322D01*
X3434Y322D02*
X3441Y322D01*
X0Y321D02*
X7Y321D01*
X351Y321D02*
X355Y321D01*
X503Y321D02*
X506Y321D01*
X538Y321D02*
X541Y321D01*
X1215Y321D02*
X1216Y321D01*
X1227Y321D02*
X1228Y321D01*
X1365Y321D02*
X1366Y321D01*
X1839Y321D02*
X1842Y321D01*
X1869Y321D02*
X1880Y321D01*
X3434Y321D02*
X3441Y321D01*
X0Y320D02*
X7Y320D01*
X351Y320D02*
X355Y320D01*
X502Y320D02*
X506Y320D01*
X538Y320D02*
X541Y320D01*
X1215Y320D02*
X1216Y320D01*
X1227Y320D02*
X1228Y320D01*
X1365Y320D02*
X1366Y320D01*
X1839Y320D02*
X1842Y320D01*
X1869Y320D02*
X1880Y320D01*
X3434Y320D02*
X3441Y320D01*
X0Y319D02*
X7Y319D01*
X351Y319D02*
X355Y319D01*
X502Y319D02*
X505Y319D01*
X538Y319D02*
X541Y319D01*
X1215Y319D02*
X1216Y319D01*
X1227Y319D02*
X1228Y319D01*
X1365Y319D02*
X1366Y319D01*
X1839Y319D02*
X1842Y319D01*
X1870Y319D02*
X1880Y319D01*
X3434Y319D02*
X3441Y319D01*
X0Y318D02*
X7Y318D01*
X351Y318D02*
X355Y318D01*
X501Y318D02*
X505Y318D01*
X538Y318D02*
X541Y318D01*
X1215Y318D02*
X1216Y318D01*
X1227Y318D02*
X1228Y318D01*
X1365Y318D02*
X1366Y318D01*
X1839Y318D02*
X1842Y318D01*
X1877Y318D02*
X1880Y318D01*
X3434Y318D02*
X3441Y318D01*
X0Y317D02*
X7Y317D01*
X351Y317D02*
X355Y317D01*
X501Y317D02*
X504Y317D01*
X538Y317D02*
X541Y317D01*
X1215Y317D02*
X1216Y317D01*
X1227Y317D02*
X1227Y317D01*
X1365Y317D02*
X1366Y317D01*
X1839Y317D02*
X1842Y317D01*
X1877Y317D02*
X1880Y317D01*
X3434Y317D02*
X3441Y317D01*
X0Y316D02*
X7Y316D01*
X351Y316D02*
X355Y316D01*
X500Y316D02*
X504Y316D01*
X538Y316D02*
X541Y316D01*
X1215Y316D02*
X1216Y316D01*
X1227Y316D02*
X1227Y316D01*
X1365Y316D02*
X1366Y316D01*
X1839Y316D02*
X1842Y316D01*
X1877Y316D02*
X1880Y316D01*
X3434Y316D02*
X3441Y316D01*
X0Y315D02*
X7Y315D01*
X351Y315D02*
X355Y315D01*
X500Y315D02*
X503Y315D01*
X538Y315D02*
X541Y315D01*
X1215Y315D02*
X1216Y315D01*
X1227Y315D02*
X1227Y315D01*
X1365Y315D02*
X1366Y315D01*
X1839Y315D02*
X1842Y315D01*
X1877Y315D02*
X1880Y315D01*
X3434Y315D02*
X3441Y315D01*
X0Y314D02*
X7Y314D01*
X351Y314D02*
X355Y314D01*
X500Y314D02*
X503Y314D01*
X538Y314D02*
X541Y314D01*
X1215Y314D02*
X1216Y314D01*
X1227Y314D02*
X1227Y314D01*
X1365Y314D02*
X1366Y314D01*
X1839Y314D02*
X1842Y314D01*
X1877Y314D02*
X1880Y314D01*
X3434Y314D02*
X3441Y314D01*
X0Y313D02*
X7Y313D01*
X351Y313D02*
X355Y313D01*
X500Y313D02*
X503Y313D01*
X538Y313D02*
X541Y313D01*
X1215Y313D02*
X1216Y313D01*
X1365Y313D02*
X1366Y313D01*
X1839Y313D02*
X1842Y313D01*
X1877Y313D02*
X1880Y313D01*
X3434Y313D02*
X3441Y313D01*
X0Y312D02*
X7Y312D01*
X353Y312D02*
X355Y312D01*
X500Y312D02*
X503Y312D01*
X538Y312D02*
X541Y312D01*
X1215Y312D02*
X1216Y312D01*
X1365Y312D02*
X1366Y312D01*
X1839Y312D02*
X1842Y312D01*
X1877Y312D02*
X1880Y312D01*
X3434Y312D02*
X3441Y312D01*
X0Y311D02*
X7Y311D01*
X353Y311D02*
X355Y311D01*
X500Y311D02*
X503Y311D01*
X538Y311D02*
X541Y311D01*
X1215Y311D02*
X1216Y311D01*
X1365Y311D02*
X1366Y311D01*
X1839Y311D02*
X1842Y311D01*
X1877Y311D02*
X1880Y311D01*
X3434Y311D02*
X3441Y311D01*
X0Y310D02*
X7Y310D01*
X353Y310D02*
X355Y310D01*
X500Y310D02*
X503Y310D01*
X538Y310D02*
X541Y310D01*
X547Y310D02*
X549Y310D01*
X1215Y310D02*
X1216Y310D01*
X1365Y310D02*
X1366Y310D01*
X1839Y310D02*
X1842Y310D01*
X1877Y310D02*
X1880Y310D01*
X3434Y310D02*
X3441Y310D01*
X0Y309D02*
X7Y309D01*
X353Y309D02*
X355Y309D01*
X500Y309D02*
X504Y309D01*
X538Y309D02*
X541Y309D01*
X546Y309D02*
X549Y309D01*
X1215Y309D02*
X1216Y309D01*
X1365Y309D02*
X1366Y309D01*
X1839Y309D02*
X1842Y309D01*
X1877Y309D02*
X1880Y309D01*
X3434Y309D02*
X3441Y309D01*
X0Y308D02*
X7Y308D01*
X353Y308D02*
X355Y308D01*
X500Y308D02*
X504Y308D01*
X538Y308D02*
X541Y308D01*
X546Y308D02*
X549Y308D01*
X1215Y308D02*
X1216Y308D01*
X1365Y308D02*
X1366Y308D01*
X1839Y308D02*
X1842Y308D01*
X1877Y308D02*
X1880Y308D01*
X3434Y308D02*
X3441Y308D01*
X0Y307D02*
X7Y307D01*
X353Y307D02*
X355Y307D01*
X501Y307D02*
X505Y307D01*
X538Y307D02*
X541Y307D01*
X546Y307D02*
X549Y307D01*
X1215Y307D02*
X1216Y307D01*
X1365Y307D02*
X1366Y307D01*
X1839Y307D02*
X1842Y307D01*
X1877Y307D02*
X1880Y307D01*
X3434Y307D02*
X3441Y307D01*
X0Y306D02*
X7Y306D01*
X353Y306D02*
X355Y306D01*
X501Y306D02*
X505Y306D01*
X538Y306D02*
X541Y306D01*
X546Y306D02*
X549Y306D01*
X1215Y306D02*
X1216Y306D01*
X1365Y306D02*
X1366Y306D01*
X1839Y306D02*
X1842Y306D01*
X1877Y306D02*
X1880Y306D01*
X3434Y306D02*
X3441Y306D01*
X0Y305D02*
X7Y305D01*
X353Y305D02*
X355Y305D01*
X502Y305D02*
X506Y305D01*
X538Y305D02*
X541Y305D01*
X546Y305D02*
X549Y305D01*
X1215Y305D02*
X1216Y305D01*
X1227Y305D02*
X1227Y305D01*
X1365Y305D02*
X1366Y305D01*
X1839Y305D02*
X1842Y305D01*
X1877Y305D02*
X1880Y305D01*
X3434Y305D02*
X3441Y305D01*
X0Y304D02*
X7Y304D01*
X353Y304D02*
X355Y304D01*
X502Y304D02*
X506Y304D01*
X538Y304D02*
X541Y304D01*
X546Y304D02*
X549Y304D01*
X1215Y304D02*
X1216Y304D01*
X1227Y304D02*
X1227Y304D01*
X1365Y304D02*
X1366Y304D01*
X1839Y304D02*
X1842Y304D01*
X1877Y304D02*
X1880Y304D01*
X1886Y304D02*
X1888Y304D01*
X2376Y304D02*
X2396Y304D01*
X3434Y304D02*
X3441Y304D01*
X0Y303D02*
X7Y303D01*
X353Y303D02*
X355Y303D01*
X503Y303D02*
X507Y303D01*
X538Y303D02*
X541Y303D01*
X546Y303D02*
X549Y303D01*
X1215Y303D02*
X1216Y303D01*
X1227Y303D02*
X1227Y303D01*
X1365Y303D02*
X1366Y303D01*
X1839Y303D02*
X1842Y303D01*
X1877Y303D02*
X1880Y303D01*
X1885Y303D02*
X1889Y303D01*
X2375Y303D02*
X2397Y303D01*
X3434Y303D02*
X3441Y303D01*
X0Y302D02*
X7Y302D01*
X353Y302D02*
X355Y302D01*
X503Y302D02*
X507Y302D01*
X538Y302D02*
X541Y302D01*
X546Y302D02*
X549Y302D01*
X1215Y302D02*
X1216Y302D01*
X1227Y302D02*
X1228Y302D01*
X1365Y302D02*
X1366Y302D01*
X1839Y302D02*
X1842Y302D01*
X1877Y302D02*
X1880Y302D01*
X1885Y302D02*
X1889Y302D01*
X2375Y302D02*
X2398Y302D01*
X3434Y302D02*
X3441Y302D01*
X0Y301D02*
X7Y301D01*
X353Y301D02*
X355Y301D01*
X504Y301D02*
X508Y301D01*
X538Y301D02*
X541Y301D01*
X546Y301D02*
X549Y301D01*
X1215Y301D02*
X1216Y301D01*
X1227Y301D02*
X1228Y301D01*
X1365Y301D02*
X1366Y301D01*
X1839Y301D02*
X1842Y301D01*
X1877Y301D02*
X1880Y301D01*
X1885Y301D02*
X1889Y301D01*
X2374Y301D02*
X2398Y301D01*
X3434Y301D02*
X3441Y301D01*
X0Y300D02*
X7Y300D01*
X353Y300D02*
X355Y300D01*
X504Y300D02*
X518Y300D01*
X531Y300D02*
X549Y300D01*
X1215Y300D02*
X1216Y300D01*
X1227Y300D02*
X1228Y300D01*
X1365Y300D02*
X1366Y300D01*
X1839Y300D02*
X1842Y300D01*
X1877Y300D02*
X1880Y300D01*
X1885Y300D02*
X1889Y300D01*
X2375Y300D02*
X2398Y300D01*
X3434Y300D02*
X3441Y300D01*
X0Y299D02*
X7Y299D01*
X353Y299D02*
X355Y299D01*
X505Y299D02*
X519Y299D01*
X530Y299D02*
X549Y299D01*
X1215Y299D02*
X1216Y299D01*
X1227Y299D02*
X1228Y299D01*
X1365Y299D02*
X1366Y299D01*
X1839Y299D02*
X1842Y299D01*
X1877Y299D02*
X1880Y299D01*
X1885Y299D02*
X1889Y299D01*
X2375Y299D02*
X2398Y299D01*
X3434Y299D02*
X3441Y299D01*
X0Y298D02*
X7Y298D01*
X353Y298D02*
X355Y298D01*
X506Y298D02*
X519Y298D01*
X530Y298D02*
X549Y298D01*
X1215Y298D02*
X1216Y298D01*
X1227Y298D02*
X1228Y298D01*
X1365Y298D02*
X1366Y298D01*
X1839Y298D02*
X1842Y298D01*
X1877Y298D02*
X1880Y298D01*
X1885Y298D02*
X1889Y298D01*
X2376Y298D02*
X2398Y298D01*
X3434Y298D02*
X3441Y298D01*
X0Y297D02*
X7Y297D01*
X353Y297D02*
X355Y297D01*
X507Y297D02*
X519Y297D01*
X530Y297D02*
X549Y297D01*
X1215Y297D02*
X1216Y297D01*
X1227Y297D02*
X1228Y297D01*
X1365Y297D02*
X1366Y297D01*
X1839Y297D02*
X1842Y297D01*
X1877Y297D02*
X1880Y297D01*
X1885Y297D02*
X1889Y297D01*
X2392Y297D02*
X2398Y297D01*
X3434Y297D02*
X3441Y297D01*
X0Y296D02*
X7Y296D01*
X353Y296D02*
X355Y296D01*
X1215Y296D02*
X1216Y296D01*
X1227Y296D02*
X1228Y296D01*
X1365Y296D02*
X1366Y296D01*
X1839Y296D02*
X1842Y296D01*
X1877Y296D02*
X1880Y296D01*
X1885Y296D02*
X1889Y296D01*
X2392Y296D02*
X2398Y296D01*
X3434Y296D02*
X3441Y296D01*
X0Y295D02*
X7Y295D01*
X353Y295D02*
X355Y295D01*
X1215Y295D02*
X1216Y295D01*
X1227Y295D02*
X1228Y295D01*
X1365Y295D02*
X1366Y295D01*
X1839Y295D02*
X1842Y295D01*
X1877Y295D02*
X1880Y295D01*
X1885Y295D02*
X1889Y295D01*
X2392Y295D02*
X2398Y295D01*
X3434Y295D02*
X3441Y295D01*
X0Y294D02*
X7Y294D01*
X353Y294D02*
X355Y294D01*
X1211Y294D02*
X1216Y294D01*
X1227Y294D02*
X1228Y294D01*
X1365Y294D02*
X1370Y294D01*
X1839Y294D02*
X1858Y294D01*
X1870Y294D02*
X1889Y294D01*
X2392Y294D02*
X2398Y294D01*
X3434Y294D02*
X3441Y294D01*
X0Y293D02*
X7Y293D01*
X353Y293D02*
X355Y293D01*
X1211Y293D02*
X1216Y293D01*
X1227Y293D02*
X1228Y293D01*
X1365Y293D02*
X1370Y293D01*
X1839Y293D02*
X1858Y293D01*
X1869Y293D02*
X1889Y293D01*
X2392Y293D02*
X2398Y293D01*
X3434Y293D02*
X3441Y293D01*
X0Y292D02*
X7Y292D01*
X353Y292D02*
X355Y292D01*
X1211Y292D02*
X1216Y292D01*
X1227Y292D02*
X1228Y292D01*
X1365Y292D02*
X1370Y292D01*
X1839Y292D02*
X1858Y292D01*
X1869Y292D02*
X1889Y292D01*
X2392Y292D02*
X2398Y292D01*
X3434Y292D02*
X3441Y292D01*
X0Y291D02*
X7Y291D01*
X353Y291D02*
X355Y291D01*
X1211Y291D02*
X1216Y291D01*
X1227Y291D02*
X1228Y291D01*
X1365Y291D02*
X1370Y291D01*
X1839Y291D02*
X1858Y291D01*
X1869Y291D02*
X1888Y291D01*
X2392Y291D02*
X2398Y291D01*
X3434Y291D02*
X3441Y291D01*
X0Y290D02*
X7Y290D01*
X353Y290D02*
X355Y290D01*
X1211Y290D02*
X1216Y290D01*
X1227Y290D02*
X1228Y290D01*
X1365Y290D02*
X1370Y290D01*
X2345Y290D02*
X2398Y290D01*
X3434Y290D02*
X3441Y290D01*
X0Y289D02*
X7Y289D01*
X353Y289D02*
X355Y289D01*
X1211Y289D02*
X1216Y289D01*
X1227Y289D02*
X1228Y289D01*
X1365Y289D02*
X1370Y289D01*
X2345Y289D02*
X2398Y289D01*
X3434Y289D02*
X3441Y289D01*
X0Y288D02*
X7Y288D01*
X353Y288D02*
X355Y288D01*
X1211Y288D02*
X1216Y288D01*
X1227Y288D02*
X1228Y288D01*
X1365Y288D02*
X1370Y288D01*
X2345Y288D02*
X2398Y288D01*
X3434Y288D02*
X3441Y288D01*
X0Y287D02*
X7Y287D01*
X353Y287D02*
X355Y287D01*
X1211Y287D02*
X1216Y287D01*
X1227Y287D02*
X1228Y287D01*
X1365Y287D02*
X1370Y287D01*
X2345Y287D02*
X2398Y287D01*
X3434Y287D02*
X3441Y287D01*
X0Y286D02*
X7Y286D01*
X353Y286D02*
X355Y286D01*
X1211Y286D02*
X1216Y286D01*
X1227Y286D02*
X1228Y286D01*
X1365Y286D02*
X1370Y286D01*
X1600Y286D02*
X1751Y286D01*
X1783Y286D02*
X1934Y286D01*
X2345Y286D02*
X2398Y286D01*
X3434Y286D02*
X3441Y286D01*
X0Y285D02*
X7Y285D01*
X353Y285D02*
X355Y285D01*
X1211Y285D02*
X1216Y285D01*
X1227Y285D02*
X1228Y285D01*
X1365Y285D02*
X1370Y285D01*
X1600Y285D02*
X1751Y285D01*
X1783Y285D02*
X1934Y285D01*
X2345Y285D02*
X2398Y285D01*
X3434Y285D02*
X3441Y285D01*
X0Y284D02*
X7Y284D01*
X353Y284D02*
X355Y284D01*
X1211Y284D02*
X1216Y284D01*
X1227Y284D02*
X1228Y284D01*
X1365Y284D02*
X1370Y284D01*
X1600Y284D02*
X1602Y284D01*
X1668Y284D02*
X1683Y284D01*
X1749Y284D02*
X1751Y284D01*
X1783Y284D02*
X1786Y284D01*
X1851Y284D02*
X1866Y284D01*
X1932Y284D02*
X1934Y284D01*
X2345Y284D02*
X2398Y284D01*
X3434Y284D02*
X3441Y284D01*
X0Y283D02*
X7Y283D01*
X353Y283D02*
X355Y283D01*
X1211Y283D02*
X1216Y283D01*
X1227Y283D02*
X1228Y283D01*
X1365Y283D02*
X1370Y283D01*
X1600Y283D02*
X1602Y283D01*
X1749Y283D02*
X1751Y283D01*
X1783Y283D02*
X1785Y283D01*
X1932Y283D02*
X1934Y283D01*
X2345Y283D02*
X2351Y283D01*
X2392Y283D02*
X2398Y283D01*
X3434Y283D02*
X3441Y283D01*
X0Y282D02*
X7Y282D01*
X353Y282D02*
X355Y282D01*
X1211Y282D02*
X1216Y282D01*
X1227Y282D02*
X1228Y282D01*
X1365Y282D02*
X1370Y282D01*
X1600Y282D02*
X1602Y282D01*
X1749Y282D02*
X1751Y282D01*
X1783Y282D02*
X1785Y282D01*
X1932Y282D02*
X1934Y282D01*
X2345Y282D02*
X2351Y282D01*
X2392Y282D02*
X2398Y282D01*
X3434Y282D02*
X3441Y282D01*
X0Y281D02*
X7Y281D01*
X353Y281D02*
X355Y281D01*
X1211Y281D02*
X1216Y281D01*
X1227Y281D02*
X1228Y281D01*
X1365Y281D02*
X1370Y281D01*
X1600Y281D02*
X1602Y281D01*
X1749Y281D02*
X1751Y281D01*
X1783Y281D02*
X1785Y281D01*
X1932Y281D02*
X1934Y281D01*
X2345Y281D02*
X2351Y281D01*
X2392Y281D02*
X2398Y281D01*
X3434Y281D02*
X3441Y281D01*
X0Y280D02*
X7Y280D01*
X353Y280D02*
X355Y280D01*
X1215Y280D02*
X1216Y280D01*
X1227Y280D02*
X1228Y280D01*
X1365Y280D02*
X1366Y280D01*
X1600Y280D02*
X1602Y280D01*
X1749Y280D02*
X1751Y280D01*
X1783Y280D02*
X1785Y280D01*
X1932Y280D02*
X1934Y280D01*
X2345Y280D02*
X2351Y280D01*
X2392Y280D02*
X2398Y280D01*
X3434Y280D02*
X3441Y280D01*
X0Y279D02*
X7Y279D01*
X353Y279D02*
X355Y279D01*
X1215Y279D02*
X1216Y279D01*
X1227Y279D02*
X1228Y279D01*
X1365Y279D02*
X1366Y279D01*
X1600Y279D02*
X1602Y279D01*
X1749Y279D02*
X1751Y279D01*
X1783Y279D02*
X1785Y279D01*
X1865Y279D02*
X1866Y279D01*
X1932Y279D02*
X1934Y279D01*
X2345Y279D02*
X2351Y279D01*
X2392Y279D02*
X2398Y279D01*
X3434Y279D02*
X3441Y279D01*
X0Y278D02*
X7Y278D01*
X353Y278D02*
X355Y278D01*
X1215Y278D02*
X1216Y278D01*
X1227Y278D02*
X1228Y278D01*
X1365Y278D02*
X1366Y278D01*
X1600Y278D02*
X1602Y278D01*
X1749Y278D02*
X1751Y278D01*
X1783Y278D02*
X1785Y278D01*
X1864Y278D02*
X1866Y278D01*
X1932Y278D02*
X1934Y278D01*
X2345Y278D02*
X2351Y278D01*
X2392Y278D02*
X2398Y278D01*
X3434Y278D02*
X3441Y278D01*
X0Y277D02*
X7Y277D01*
X353Y277D02*
X355Y277D01*
X1215Y277D02*
X1216Y277D01*
X1227Y277D02*
X1228Y277D01*
X1365Y277D02*
X1366Y277D01*
X1600Y277D02*
X1602Y277D01*
X1749Y277D02*
X1751Y277D01*
X1783Y277D02*
X1785Y277D01*
X1864Y277D02*
X1866Y277D01*
X1932Y277D02*
X1934Y277D01*
X2345Y277D02*
X2351Y277D01*
X2392Y277D02*
X2398Y277D01*
X2962Y277D02*
X2965Y277D01*
X2990Y277D02*
X2993Y277D01*
X3012Y277D02*
X3041Y277D01*
X3434Y277D02*
X3441Y277D01*
X0Y276D02*
X7Y276D01*
X353Y276D02*
X355Y276D01*
X1215Y276D02*
X1216Y276D01*
X1227Y276D02*
X1228Y276D01*
X1365Y276D02*
X1366Y276D01*
X1600Y276D02*
X1602Y276D01*
X1749Y276D02*
X1751Y276D01*
X1783Y276D02*
X1785Y276D01*
X1864Y276D02*
X1866Y276D01*
X1932Y276D02*
X1934Y276D01*
X2345Y276D02*
X2351Y276D01*
X2392Y276D02*
X2398Y276D01*
X2961Y276D02*
X2966Y276D01*
X2989Y276D02*
X2994Y276D01*
X3011Y276D02*
X3042Y276D01*
X3434Y276D02*
X3441Y276D01*
X0Y275D02*
X7Y275D01*
X353Y275D02*
X355Y275D01*
X1215Y275D02*
X1216Y275D01*
X1227Y275D02*
X1228Y275D01*
X1365Y275D02*
X1366Y275D01*
X1600Y275D02*
X1602Y275D01*
X1749Y275D02*
X1751Y275D01*
X1783Y275D02*
X1785Y275D01*
X1864Y275D02*
X1866Y275D01*
X1932Y275D02*
X1934Y275D01*
X2345Y275D02*
X2351Y275D01*
X2392Y275D02*
X2398Y275D01*
X2961Y275D02*
X2967Y275D01*
X2988Y275D02*
X2994Y275D01*
X3011Y275D02*
X3043Y275D01*
X3434Y275D02*
X3441Y275D01*
X0Y274D02*
X7Y274D01*
X353Y274D02*
X355Y274D01*
X1215Y274D02*
X1216Y274D01*
X1227Y274D02*
X1228Y274D01*
X1365Y274D02*
X1366Y274D01*
X1600Y274D02*
X1602Y274D01*
X1749Y274D02*
X1751Y274D01*
X1783Y274D02*
X1785Y274D01*
X1864Y274D02*
X1866Y274D01*
X1932Y274D02*
X1934Y274D01*
X2345Y274D02*
X2351Y274D01*
X2392Y274D02*
X2398Y274D01*
X2961Y274D02*
X2967Y274D01*
X2988Y274D02*
X2994Y274D01*
X3011Y274D02*
X3044Y274D01*
X3434Y274D02*
X3441Y274D01*
X0Y273D02*
X7Y273D01*
X353Y273D02*
X355Y273D01*
X1215Y273D02*
X1216Y273D01*
X1227Y273D02*
X1228Y273D01*
X1365Y273D02*
X1366Y273D01*
X1600Y273D02*
X1602Y273D01*
X1749Y273D02*
X1751Y273D01*
X1783Y273D02*
X1785Y273D01*
X1864Y273D02*
X1866Y273D01*
X1932Y273D02*
X1934Y273D01*
X2345Y273D02*
X2351Y273D01*
X2392Y273D02*
X2396Y273D01*
X2961Y273D02*
X2967Y273D01*
X2988Y273D02*
X2994Y273D01*
X3011Y273D02*
X3044Y273D01*
X3434Y273D02*
X3441Y273D01*
X0Y272D02*
X7Y272D01*
X353Y272D02*
X355Y272D01*
X1215Y272D02*
X1216Y272D01*
X1227Y272D02*
X1228Y272D01*
X1365Y272D02*
X1366Y272D01*
X1600Y272D02*
X1602Y272D01*
X1749Y272D02*
X1751Y272D01*
X1783Y272D02*
X1785Y272D01*
X1864Y272D02*
X1866Y272D01*
X1932Y272D02*
X1934Y272D01*
X2345Y272D02*
X2351Y272D01*
X2393Y272D02*
X2393Y272D01*
X2961Y272D02*
X2967Y272D01*
X2988Y272D02*
X2994Y272D01*
X3012Y272D02*
X3044Y272D01*
X3434Y272D02*
X3441Y272D01*
X0Y271D02*
X7Y271D01*
X353Y271D02*
X355Y271D01*
X1215Y271D02*
X1216Y271D01*
X1227Y271D02*
X1228Y271D01*
X1365Y271D02*
X1366Y271D01*
X1600Y271D02*
X1602Y271D01*
X1749Y271D02*
X1751Y271D01*
X1783Y271D02*
X1785Y271D01*
X1864Y271D02*
X1866Y271D01*
X1932Y271D02*
X1934Y271D01*
X2346Y271D02*
X2350Y271D01*
X2961Y271D02*
X2967Y271D01*
X2988Y271D02*
X2994Y271D01*
X3014Y271D02*
X3045Y271D01*
X3434Y271D02*
X3441Y271D01*
X0Y270D02*
X7Y270D01*
X353Y270D02*
X355Y270D01*
X1215Y270D02*
X1216Y270D01*
X1227Y270D02*
X1228Y270D01*
X1365Y270D02*
X1366Y270D01*
X1600Y270D02*
X1602Y270D01*
X1749Y270D02*
X1751Y270D01*
X1783Y270D02*
X1785Y270D01*
X1864Y270D02*
X1866Y270D01*
X1932Y270D02*
X1934Y270D01*
X2961Y270D02*
X2967Y270D01*
X2988Y270D02*
X2994Y270D01*
X3039Y270D02*
X3045Y270D01*
X3434Y270D02*
X3441Y270D01*
X0Y269D02*
X7Y269D01*
X353Y269D02*
X355Y269D01*
X1215Y269D02*
X1216Y269D01*
X1227Y269D02*
X1228Y269D01*
X1365Y269D02*
X1366Y269D01*
X1600Y269D02*
X1602Y269D01*
X1749Y269D02*
X1751Y269D01*
X1783Y269D02*
X1785Y269D01*
X1864Y269D02*
X1866Y269D01*
X1932Y269D02*
X1934Y269D01*
X2961Y269D02*
X2967Y269D01*
X2988Y269D02*
X2994Y269D01*
X3039Y269D02*
X3045Y269D01*
X3434Y269D02*
X3441Y269D01*
X0Y268D02*
X7Y268D01*
X353Y268D02*
X355Y268D01*
X1215Y268D02*
X1216Y268D01*
X1227Y268D02*
X1228Y268D01*
X1365Y268D02*
X1366Y268D01*
X1600Y268D02*
X1602Y268D01*
X1749Y268D02*
X1751Y268D01*
X1783Y268D02*
X1785Y268D01*
X1864Y268D02*
X1866Y268D01*
X1932Y268D02*
X1934Y268D01*
X2961Y268D02*
X2967Y268D01*
X2988Y268D02*
X2994Y268D01*
X3039Y268D02*
X3045Y268D01*
X3434Y268D02*
X3441Y268D01*
X0Y267D02*
X7Y267D01*
X353Y267D02*
X355Y267D01*
X1215Y267D02*
X1216Y267D01*
X1227Y267D02*
X1228Y267D01*
X1365Y267D02*
X1366Y267D01*
X1600Y267D02*
X1602Y267D01*
X1749Y267D02*
X1751Y267D01*
X1783Y267D02*
X1785Y267D01*
X1864Y267D02*
X1866Y267D01*
X1932Y267D02*
X1934Y267D01*
X2961Y267D02*
X2967Y267D01*
X2988Y267D02*
X2994Y267D01*
X3039Y267D02*
X3045Y267D01*
X3434Y267D02*
X3441Y267D01*
X0Y266D02*
X7Y266D01*
X353Y266D02*
X355Y266D01*
X1215Y266D02*
X1216Y266D01*
X1227Y266D02*
X1228Y266D01*
X1365Y266D02*
X1366Y266D01*
X1600Y266D02*
X1602Y266D01*
X1749Y266D02*
X1751Y266D01*
X1783Y266D02*
X1785Y266D01*
X1864Y266D02*
X1866Y266D01*
X1932Y266D02*
X1934Y266D01*
X2961Y266D02*
X2967Y266D01*
X2988Y266D02*
X2994Y266D01*
X3039Y266D02*
X3045Y266D01*
X3434Y266D02*
X3441Y266D01*
X0Y265D02*
X7Y265D01*
X353Y265D02*
X355Y265D01*
X1215Y265D02*
X1216Y265D01*
X1227Y265D02*
X1228Y265D01*
X1365Y265D02*
X1366Y265D01*
X1600Y265D02*
X1602Y265D01*
X1749Y265D02*
X1751Y265D01*
X1783Y265D02*
X1785Y265D01*
X1864Y265D02*
X1866Y265D01*
X1932Y265D02*
X1934Y265D01*
X2961Y265D02*
X2967Y265D01*
X2988Y265D02*
X2994Y265D01*
X3039Y265D02*
X3045Y265D01*
X3434Y265D02*
X3441Y265D01*
X0Y264D02*
X7Y264D01*
X353Y264D02*
X355Y264D01*
X1215Y264D02*
X1216Y264D01*
X1227Y264D02*
X1228Y264D01*
X1365Y264D02*
X1366Y264D01*
X1600Y264D02*
X1602Y264D01*
X1749Y264D02*
X1751Y264D01*
X1783Y264D02*
X1785Y264D01*
X1864Y264D02*
X1866Y264D01*
X1932Y264D02*
X1934Y264D01*
X2961Y264D02*
X2967Y264D01*
X2988Y264D02*
X2994Y264D01*
X3039Y264D02*
X3045Y264D01*
X3434Y264D02*
X3441Y264D01*
X0Y263D02*
X7Y263D01*
X352Y263D02*
X355Y263D01*
X1215Y263D02*
X1216Y263D01*
X1227Y263D02*
X1228Y263D01*
X1365Y263D02*
X1366Y263D01*
X1600Y263D02*
X1602Y263D01*
X1749Y263D02*
X1751Y263D01*
X1783Y263D02*
X1785Y263D01*
X1864Y263D02*
X1866Y263D01*
X1932Y263D02*
X1934Y263D01*
X2961Y263D02*
X2967Y263D01*
X2988Y263D02*
X2994Y263D01*
X3039Y263D02*
X3045Y263D01*
X3434Y263D02*
X3441Y263D01*
X0Y262D02*
X7Y262D01*
X351Y262D02*
X355Y262D01*
X1215Y262D02*
X1216Y262D01*
X1227Y262D02*
X1228Y262D01*
X1365Y262D02*
X1366Y262D01*
X1549Y262D02*
X1565Y262D01*
X1579Y262D02*
X1597Y262D01*
X1600Y262D02*
X1602Y262D01*
X1749Y262D02*
X1751Y262D01*
X1783Y262D02*
X1785Y262D01*
X1864Y262D02*
X1866Y262D01*
X1932Y262D02*
X1934Y262D01*
X2961Y262D02*
X2967Y262D01*
X2988Y262D02*
X2994Y262D01*
X3039Y262D02*
X3045Y262D01*
X3434Y262D02*
X3441Y262D01*
X0Y261D02*
X7Y261D01*
X351Y261D02*
X355Y261D01*
X1215Y261D02*
X1216Y261D01*
X1227Y261D02*
X1228Y261D01*
X1365Y261D02*
X1366Y261D01*
X1549Y261D02*
X1566Y261D01*
X1579Y261D02*
X1598Y261D01*
X1600Y261D02*
X1602Y261D01*
X1749Y261D02*
X1751Y261D01*
X1783Y261D02*
X1785Y261D01*
X1864Y261D02*
X1866Y261D01*
X1932Y261D02*
X1934Y261D01*
X2961Y261D02*
X2967Y261D01*
X2988Y261D02*
X2994Y261D01*
X3039Y261D02*
X3045Y261D01*
X3434Y261D02*
X3441Y261D01*
X0Y260D02*
X7Y260D01*
X351Y260D02*
X355Y260D01*
X1215Y260D02*
X1216Y260D01*
X1227Y260D02*
X1228Y260D01*
X1365Y260D02*
X1366Y260D01*
X1549Y260D02*
X1567Y260D01*
X1579Y260D02*
X1598Y260D01*
X1600Y260D02*
X1602Y260D01*
X1749Y260D02*
X1751Y260D01*
X1783Y260D02*
X1785Y260D01*
X1864Y260D02*
X1866Y260D01*
X1932Y260D02*
X1934Y260D01*
X2961Y260D02*
X2967Y260D01*
X2988Y260D02*
X2994Y260D01*
X3039Y260D02*
X3045Y260D01*
X3434Y260D02*
X3441Y260D01*
X0Y259D02*
X7Y259D01*
X351Y259D02*
X355Y259D01*
X1215Y259D02*
X1216Y259D01*
X1227Y259D02*
X1228Y259D01*
X1365Y259D02*
X1366Y259D01*
X1549Y259D02*
X1568Y259D01*
X1580Y259D02*
X1598Y259D01*
X1600Y259D02*
X1602Y259D01*
X1749Y259D02*
X1751Y259D01*
X1783Y259D02*
X1785Y259D01*
X1864Y259D02*
X1866Y259D01*
X1932Y259D02*
X1934Y259D01*
X2961Y259D02*
X2967Y259D01*
X2988Y259D02*
X2994Y259D01*
X3039Y259D02*
X3045Y259D01*
X3434Y259D02*
X3441Y259D01*
X0Y258D02*
X7Y258D01*
X351Y258D02*
X355Y258D01*
X1215Y258D02*
X1216Y258D01*
X1227Y258D02*
X1228Y258D01*
X1365Y258D02*
X1366Y258D01*
X1549Y258D02*
X1552Y258D01*
X1564Y258D02*
X1568Y258D01*
X1595Y258D02*
X1598Y258D01*
X1600Y258D02*
X1602Y258D01*
X1749Y258D02*
X1751Y258D01*
X1783Y258D02*
X1785Y258D01*
X1864Y258D02*
X1866Y258D01*
X1932Y258D02*
X1934Y258D01*
X2961Y258D02*
X2967Y258D01*
X2988Y258D02*
X2994Y258D01*
X3039Y258D02*
X3045Y258D01*
X3434Y258D02*
X3441Y258D01*
X0Y257D02*
X7Y257D01*
X351Y257D02*
X355Y257D01*
X1215Y257D02*
X1216Y257D01*
X1227Y257D02*
X1228Y257D01*
X1365Y257D02*
X1366Y257D01*
X1549Y257D02*
X1552Y257D01*
X1565Y257D02*
X1568Y257D01*
X1595Y257D02*
X1598Y257D01*
X1600Y257D02*
X1602Y257D01*
X1749Y257D02*
X1751Y257D01*
X1783Y257D02*
X1785Y257D01*
X1864Y257D02*
X1866Y257D01*
X1932Y257D02*
X1934Y257D01*
X2961Y257D02*
X2967Y257D01*
X2988Y257D02*
X2994Y257D01*
X3039Y257D02*
X3045Y257D01*
X3434Y257D02*
X3441Y257D01*
X0Y256D02*
X7Y256D01*
X351Y256D02*
X355Y256D01*
X1215Y256D02*
X1216Y256D01*
X1227Y256D02*
X1228Y256D01*
X1365Y256D02*
X1366Y256D01*
X1549Y256D02*
X1552Y256D01*
X1565Y256D02*
X1568Y256D01*
X1595Y256D02*
X1598Y256D01*
X1600Y256D02*
X1602Y256D01*
X1749Y256D02*
X1751Y256D01*
X1783Y256D02*
X1785Y256D01*
X1864Y256D02*
X1866Y256D01*
X1932Y256D02*
X1934Y256D01*
X2961Y256D02*
X2967Y256D01*
X2988Y256D02*
X2994Y256D01*
X3039Y256D02*
X3045Y256D01*
X3434Y256D02*
X3441Y256D01*
X0Y255D02*
X7Y255D01*
X351Y255D02*
X355Y255D01*
X1215Y255D02*
X1216Y255D01*
X1227Y255D02*
X1228Y255D01*
X1365Y255D02*
X1366Y255D01*
X1549Y255D02*
X1552Y255D01*
X1565Y255D02*
X1568Y255D01*
X1595Y255D02*
X1598Y255D01*
X1600Y255D02*
X1602Y255D01*
X1749Y255D02*
X1751Y255D01*
X1783Y255D02*
X1785Y255D01*
X1864Y255D02*
X1866Y255D01*
X1932Y255D02*
X1934Y255D01*
X2961Y255D02*
X2967Y255D01*
X2988Y255D02*
X2994Y255D01*
X3039Y255D02*
X3045Y255D01*
X3434Y255D02*
X3441Y255D01*
X0Y254D02*
X7Y254D01*
X351Y254D02*
X355Y254D01*
X1215Y254D02*
X1216Y254D01*
X1227Y254D02*
X1228Y254D01*
X1365Y254D02*
X1366Y254D01*
X1549Y254D02*
X1552Y254D01*
X1565Y254D02*
X1568Y254D01*
X1595Y254D02*
X1598Y254D01*
X1600Y254D02*
X1602Y254D01*
X1749Y254D02*
X1751Y254D01*
X1783Y254D02*
X1785Y254D01*
X1864Y254D02*
X1866Y254D01*
X1932Y254D02*
X1934Y254D01*
X2961Y254D02*
X2967Y254D01*
X2988Y254D02*
X2994Y254D01*
X3016Y254D02*
X3045Y254D01*
X3434Y254D02*
X3441Y254D01*
X0Y253D02*
X7Y253D01*
X351Y253D02*
X355Y253D01*
X1215Y253D02*
X1216Y253D01*
X1227Y253D02*
X1228Y253D01*
X1365Y253D02*
X1366Y253D01*
X1549Y253D02*
X1552Y253D01*
X1564Y253D02*
X1568Y253D01*
X1595Y253D02*
X1598Y253D01*
X1600Y253D02*
X1602Y253D01*
X1749Y253D02*
X1751Y253D01*
X1783Y253D02*
X1785Y253D01*
X1864Y253D02*
X1866Y253D01*
X1932Y253D02*
X1934Y253D01*
X2961Y253D02*
X2967Y253D01*
X2988Y253D02*
X2994Y253D01*
X3014Y253D02*
X3044Y253D01*
X3434Y253D02*
X3441Y253D01*
X0Y252D02*
X7Y252D01*
X351Y252D02*
X355Y252D01*
X1215Y252D02*
X1216Y252D01*
X1227Y252D02*
X1228Y252D01*
X1365Y252D02*
X1366Y252D01*
X1549Y252D02*
X1568Y252D01*
X1595Y252D02*
X1598Y252D01*
X1600Y252D02*
X1602Y252D01*
X1749Y252D02*
X1751Y252D01*
X1783Y252D02*
X1785Y252D01*
X1864Y252D02*
X1866Y252D01*
X1932Y252D02*
X1934Y252D01*
X2961Y252D02*
X2967Y252D01*
X2988Y252D02*
X2994Y252D01*
X3013Y252D02*
X3044Y252D01*
X3434Y252D02*
X3441Y252D01*
X0Y251D02*
X7Y251D01*
X351Y251D02*
X355Y251D01*
X1215Y251D02*
X1216Y251D01*
X1227Y251D02*
X1228Y251D01*
X1365Y251D02*
X1366Y251D01*
X1549Y251D02*
X1567Y251D01*
X1595Y251D02*
X1598Y251D01*
X1600Y251D02*
X1602Y251D01*
X1749Y251D02*
X1751Y251D01*
X1783Y251D02*
X1785Y251D01*
X1864Y251D02*
X1866Y251D01*
X1932Y251D02*
X1934Y251D01*
X2961Y251D02*
X2967Y251D01*
X2988Y251D02*
X2994Y251D01*
X3012Y251D02*
X3044Y251D01*
X3434Y251D02*
X3441Y251D01*
X0Y250D02*
X7Y250D01*
X351Y250D02*
X355Y250D01*
X1215Y250D02*
X1216Y250D01*
X1227Y250D02*
X1228Y250D01*
X1365Y250D02*
X1366Y250D01*
X1549Y250D02*
X1566Y250D01*
X1595Y250D02*
X1598Y250D01*
X1600Y250D02*
X1602Y250D01*
X1749Y250D02*
X1751Y250D01*
X1783Y250D02*
X1785Y250D01*
X1864Y250D02*
X1866Y250D01*
X1932Y250D02*
X1934Y250D01*
X2346Y250D02*
X2378Y250D01*
X2961Y250D02*
X2967Y250D01*
X2988Y250D02*
X2994Y250D01*
X3011Y250D02*
X3043Y250D01*
X3434Y250D02*
X3441Y250D01*
X0Y249D02*
X7Y249D01*
X351Y249D02*
X355Y249D01*
X1215Y249D02*
X1216Y249D01*
X1227Y249D02*
X1228Y249D01*
X1365Y249D02*
X1366Y249D01*
X1549Y249D02*
X1565Y249D01*
X1595Y249D02*
X1598Y249D01*
X1600Y249D02*
X1602Y249D01*
X1749Y249D02*
X1751Y249D01*
X1783Y249D02*
X1785Y249D01*
X1864Y249D02*
X1866Y249D01*
X1932Y249D02*
X1934Y249D01*
X2345Y249D02*
X2378Y249D01*
X2961Y249D02*
X2967Y249D01*
X2988Y249D02*
X2994Y249D01*
X3011Y249D02*
X3042Y249D01*
X3434Y249D02*
X3441Y249D01*
X0Y248D02*
X7Y248D01*
X351Y248D02*
X355Y248D01*
X1215Y248D02*
X1216Y248D01*
X1227Y248D02*
X1228Y248D01*
X1365Y248D02*
X1366Y248D01*
X1549Y248D02*
X1552Y248D01*
X1555Y248D02*
X1560Y248D01*
X1581Y248D02*
X1598Y248D01*
X1600Y248D02*
X1602Y248D01*
X1749Y248D02*
X1751Y248D01*
X1783Y248D02*
X1785Y248D01*
X1864Y248D02*
X1866Y248D01*
X1932Y248D02*
X1934Y248D01*
X2345Y248D02*
X2378Y248D01*
X2961Y248D02*
X2967Y248D01*
X2988Y248D02*
X2994Y248D01*
X3011Y248D02*
X3040Y248D01*
X3434Y248D02*
X3441Y248D01*
X0Y247D02*
X7Y247D01*
X351Y247D02*
X355Y247D01*
X1215Y247D02*
X1216Y247D01*
X1227Y247D02*
X1228Y247D01*
X1365Y247D02*
X1366Y247D01*
X1549Y247D02*
X1552Y247D01*
X1556Y247D02*
X1560Y247D01*
X1580Y247D02*
X1598Y247D01*
X1600Y247D02*
X1602Y247D01*
X1749Y247D02*
X1751Y247D01*
X1783Y247D02*
X1785Y247D01*
X1864Y247D02*
X1866Y247D01*
X1932Y247D02*
X1934Y247D01*
X2345Y247D02*
X2378Y247D01*
X2961Y247D02*
X2967Y247D01*
X2988Y247D02*
X2994Y247D01*
X3011Y247D02*
X3017Y247D01*
X3434Y247D02*
X3441Y247D01*
X0Y246D02*
X7Y246D01*
X351Y246D02*
X355Y246D01*
X1215Y246D02*
X1216Y246D01*
X1227Y246D02*
X1228Y246D01*
X1365Y246D02*
X1366Y246D01*
X1549Y246D02*
X1552Y246D01*
X1557Y246D02*
X1561Y246D01*
X1579Y246D02*
X1597Y246D01*
X1600Y246D02*
X1602Y246D01*
X1749Y246D02*
X1751Y246D01*
X1783Y246D02*
X1785Y246D01*
X1864Y246D02*
X1866Y246D01*
X1932Y246D02*
X1934Y246D01*
X2345Y246D02*
X2378Y246D01*
X2961Y246D02*
X2967Y246D01*
X2988Y246D02*
X2994Y246D01*
X3011Y246D02*
X3017Y246D01*
X3434Y246D02*
X3441Y246D01*
X0Y245D02*
X7Y245D01*
X351Y245D02*
X355Y245D01*
X1215Y245D02*
X1216Y245D01*
X1227Y245D02*
X1228Y245D01*
X1365Y245D02*
X1366Y245D01*
X1549Y245D02*
X1552Y245D01*
X1557Y245D02*
X1561Y245D01*
X1579Y245D02*
X1596Y245D01*
X1600Y245D02*
X1602Y245D01*
X1749Y245D02*
X1751Y245D01*
X1783Y245D02*
X1785Y245D01*
X1864Y245D02*
X1866Y245D01*
X1932Y245D02*
X1934Y245D01*
X2346Y245D02*
X2378Y245D01*
X2961Y245D02*
X2967Y245D01*
X2988Y245D02*
X2994Y245D01*
X3011Y245D02*
X3017Y245D01*
X3434Y245D02*
X3441Y245D01*
X0Y244D02*
X7Y244D01*
X351Y244D02*
X355Y244D01*
X1211Y244D02*
X1216Y244D01*
X1227Y244D02*
X1228Y244D01*
X1365Y244D02*
X1370Y244D01*
X1549Y244D02*
X1552Y244D01*
X1558Y244D02*
X1562Y244D01*
X1579Y244D02*
X1582Y244D01*
X1600Y244D02*
X1602Y244D01*
X1749Y244D02*
X1751Y244D01*
X1783Y244D02*
X1785Y244D01*
X1864Y244D02*
X1866Y244D01*
X1932Y244D02*
X1934Y244D01*
X2348Y244D02*
X2379Y244D01*
X2961Y244D02*
X2967Y244D01*
X2988Y244D02*
X2994Y244D01*
X3011Y244D02*
X3017Y244D01*
X3434Y244D02*
X3441Y244D01*
X0Y243D02*
X7Y243D01*
X351Y243D02*
X355Y243D01*
X1211Y243D02*
X1216Y243D01*
X1227Y243D02*
X1228Y243D01*
X1258Y243D02*
X1258Y243D01*
X1285Y243D02*
X1286Y243D01*
X1308Y243D02*
X1325Y243D01*
X1365Y243D02*
X1370Y243D01*
X1549Y243D02*
X1552Y243D01*
X1559Y243D02*
X1563Y243D01*
X1579Y243D02*
X1582Y243D01*
X1600Y243D02*
X1602Y243D01*
X1749Y243D02*
X1751Y243D01*
X1783Y243D02*
X1785Y243D01*
X1864Y243D02*
X1866Y243D01*
X1932Y243D02*
X1934Y243D01*
X2961Y243D02*
X2967Y243D01*
X2988Y243D02*
X2994Y243D01*
X3011Y243D02*
X3017Y243D01*
X3434Y243D02*
X3441Y243D01*
X0Y242D02*
X7Y242D01*
X351Y242D02*
X355Y242D01*
X1211Y242D02*
X1216Y242D01*
X1227Y242D02*
X1228Y242D01*
X1256Y242D02*
X1260Y242D01*
X1283Y242D02*
X1288Y242D01*
X1306Y242D02*
X1325Y242D01*
X1365Y242D02*
X1370Y242D01*
X1549Y242D02*
X1552Y242D01*
X1559Y242D02*
X1563Y242D01*
X1579Y242D02*
X1582Y242D01*
X1600Y242D02*
X1602Y242D01*
X1749Y242D02*
X1751Y242D01*
X1783Y242D02*
X1785Y242D01*
X1864Y242D02*
X1866Y242D01*
X1932Y242D02*
X1934Y242D01*
X2961Y242D02*
X2967Y242D01*
X2988Y242D02*
X2994Y242D01*
X3011Y242D02*
X3017Y242D01*
X3434Y242D02*
X3441Y242D01*
X0Y241D02*
X7Y241D01*
X351Y241D02*
X355Y241D01*
X1211Y241D02*
X1216Y241D01*
X1227Y241D02*
X1228Y241D01*
X1255Y241D02*
X1261Y241D01*
X1283Y241D02*
X1288Y241D01*
X1305Y241D02*
X1325Y241D01*
X1365Y241D02*
X1370Y241D01*
X1549Y241D02*
X1552Y241D01*
X1560Y241D02*
X1564Y241D01*
X1579Y241D02*
X1582Y241D01*
X1600Y241D02*
X1602Y241D01*
X1749Y241D02*
X1751Y241D01*
X1783Y241D02*
X1785Y241D01*
X1864Y241D02*
X1866Y241D01*
X1932Y241D02*
X1934Y241D01*
X2961Y241D02*
X2967Y241D01*
X2988Y241D02*
X2994Y241D01*
X3011Y241D02*
X3017Y241D01*
X3434Y241D02*
X3441Y241D01*
X0Y240D02*
X7Y240D01*
X351Y240D02*
X355Y240D01*
X1211Y240D02*
X1216Y240D01*
X1227Y240D02*
X1228Y240D01*
X1255Y240D02*
X1261Y240D01*
X1283Y240D02*
X1288Y240D01*
X1305Y240D02*
X1325Y240D01*
X1365Y240D02*
X1370Y240D01*
X1549Y240D02*
X1552Y240D01*
X1560Y240D02*
X1564Y240D01*
X1579Y240D02*
X1582Y240D01*
X1600Y240D02*
X1602Y240D01*
X1749Y240D02*
X1751Y240D01*
X1783Y240D02*
X1785Y240D01*
X1864Y240D02*
X1866Y240D01*
X1932Y240D02*
X1934Y240D01*
X2961Y240D02*
X2967Y240D01*
X2988Y240D02*
X2994Y240D01*
X3011Y240D02*
X3017Y240D01*
X3434Y240D02*
X3441Y240D01*
X0Y239D02*
X7Y239D01*
X351Y239D02*
X355Y239D01*
X1211Y239D02*
X1216Y239D01*
X1227Y239D02*
X1228Y239D01*
X1255Y239D02*
X1261Y239D01*
X1282Y239D02*
X1289Y239D01*
X1305Y239D02*
X1325Y239D01*
X1365Y239D02*
X1370Y239D01*
X1549Y239D02*
X1552Y239D01*
X1561Y239D02*
X1565Y239D01*
X1579Y239D02*
X1582Y239D01*
X1600Y239D02*
X1602Y239D01*
X1749Y239D02*
X1751Y239D01*
X1783Y239D02*
X1785Y239D01*
X1864Y239D02*
X1866Y239D01*
X1932Y239D02*
X1934Y239D01*
X2961Y239D02*
X2967Y239D01*
X2988Y239D02*
X2994Y239D01*
X3011Y239D02*
X3017Y239D01*
X3434Y239D02*
X3441Y239D01*
X0Y238D02*
X7Y238D01*
X351Y238D02*
X355Y238D01*
X1211Y238D02*
X1216Y238D01*
X1227Y238D02*
X1228Y238D01*
X1255Y238D02*
X1261Y238D01*
X1282Y238D02*
X1289Y238D01*
X1306Y238D02*
X1325Y238D01*
X1365Y238D02*
X1370Y238D01*
X1549Y238D02*
X1552Y238D01*
X1562Y238D02*
X1565Y238D01*
X1579Y238D02*
X1582Y238D01*
X1600Y238D02*
X1602Y238D01*
X1749Y238D02*
X1751Y238D01*
X1783Y238D02*
X1785Y238D01*
X1864Y238D02*
X1866Y238D01*
X1932Y238D02*
X1934Y238D01*
X2961Y238D02*
X2967Y238D01*
X2988Y238D02*
X2994Y238D01*
X3011Y238D02*
X3017Y238D01*
X3434Y238D02*
X3441Y238D01*
X0Y237D02*
X7Y237D01*
X351Y237D02*
X355Y237D01*
X1211Y237D02*
X1216Y237D01*
X1227Y237D02*
X1228Y237D01*
X1255Y237D02*
X1261Y237D01*
X1282Y237D02*
X1289Y237D01*
X1306Y237D02*
X1325Y237D01*
X1365Y237D02*
X1370Y237D01*
X1549Y237D02*
X1552Y237D01*
X1562Y237D02*
X1566Y237D01*
X1579Y237D02*
X1582Y237D01*
X1600Y237D02*
X1602Y237D01*
X1749Y237D02*
X1751Y237D01*
X1783Y237D02*
X1785Y237D01*
X1864Y237D02*
X1866Y237D01*
X1932Y237D02*
X1934Y237D01*
X2961Y237D02*
X2967Y237D01*
X2988Y237D02*
X2994Y237D01*
X3011Y237D02*
X3017Y237D01*
X3434Y237D02*
X3441Y237D01*
X0Y236D02*
X7Y236D01*
X351Y236D02*
X355Y236D01*
X1211Y236D02*
X1216Y236D01*
X1227Y236D02*
X1228Y236D01*
X1255Y236D02*
X1261Y236D01*
X1282Y236D02*
X1289Y236D01*
X1319Y236D02*
X1325Y236D01*
X1365Y236D02*
X1370Y236D01*
X1549Y236D02*
X1552Y236D01*
X1563Y236D02*
X1567Y236D01*
X1579Y236D02*
X1582Y236D01*
X1600Y236D02*
X1602Y236D01*
X1749Y236D02*
X1751Y236D01*
X1783Y236D02*
X1785Y236D01*
X1864Y236D02*
X1866Y236D01*
X1932Y236D02*
X1934Y236D01*
X2961Y236D02*
X2967Y236D01*
X2988Y236D02*
X2994Y236D01*
X3011Y236D02*
X3017Y236D01*
X3434Y236D02*
X3441Y236D01*
X0Y235D02*
X7Y235D01*
X351Y235D02*
X355Y235D01*
X1211Y235D02*
X1216Y235D01*
X1227Y235D02*
X1228Y235D01*
X1255Y235D02*
X1261Y235D01*
X1282Y235D02*
X1289Y235D01*
X1319Y235D02*
X1325Y235D01*
X1365Y235D02*
X1370Y235D01*
X1549Y235D02*
X1552Y235D01*
X1563Y235D02*
X1567Y235D01*
X1579Y235D02*
X1582Y235D01*
X1600Y235D02*
X1602Y235D01*
X1749Y235D02*
X1751Y235D01*
X1783Y235D02*
X1785Y235D01*
X1864Y235D02*
X1866Y235D01*
X1932Y235D02*
X1934Y235D01*
X2961Y235D02*
X2967Y235D01*
X2988Y235D02*
X2994Y235D01*
X3011Y235D02*
X3017Y235D01*
X3434Y235D02*
X3441Y235D01*
X0Y234D02*
X7Y234D01*
X351Y234D02*
X355Y234D01*
X1211Y234D02*
X1216Y234D01*
X1227Y234D02*
X1228Y234D01*
X1255Y234D02*
X1261Y234D01*
X1282Y234D02*
X1289Y234D01*
X1319Y234D02*
X1325Y234D01*
X1365Y234D02*
X1370Y234D01*
X1549Y234D02*
X1552Y234D01*
X1564Y234D02*
X1568Y234D01*
X1579Y234D02*
X1598Y234D01*
X1600Y234D02*
X1602Y234D01*
X1749Y234D02*
X1751Y234D01*
X1783Y234D02*
X1785Y234D01*
X1864Y234D02*
X1866Y234D01*
X1932Y234D02*
X1934Y234D01*
X2961Y234D02*
X2967Y234D01*
X2988Y234D02*
X2994Y234D01*
X3011Y234D02*
X3017Y234D01*
X3434Y234D02*
X3441Y234D01*
X0Y233D02*
X7Y233D01*
X353Y233D02*
X355Y233D01*
X1211Y233D02*
X1216Y233D01*
X1227Y233D02*
X1228Y233D01*
X1255Y233D02*
X1261Y233D01*
X1282Y233D02*
X1289Y233D01*
X1319Y233D02*
X1325Y233D01*
X1365Y233D02*
X1370Y233D01*
X1549Y233D02*
X1552Y233D01*
X1564Y233D02*
X1568Y233D01*
X1579Y233D02*
X1598Y233D01*
X1600Y233D02*
X1602Y233D01*
X1749Y233D02*
X1751Y233D01*
X1783Y233D02*
X1785Y233D01*
X1864Y233D02*
X1866Y233D01*
X1932Y233D02*
X1934Y233D01*
X2961Y233D02*
X2967Y233D01*
X2988Y233D02*
X2994Y233D01*
X3011Y233D02*
X3017Y233D01*
X3434Y233D02*
X3441Y233D01*
X0Y232D02*
X7Y232D01*
X353Y232D02*
X355Y232D01*
X966Y232D02*
X973Y232D01*
X1211Y232D02*
X1216Y232D01*
X1227Y232D02*
X1228Y232D01*
X1255Y232D02*
X1261Y232D01*
X1282Y232D02*
X1289Y232D01*
X1319Y232D02*
X1325Y232D01*
X1365Y232D02*
X1370Y232D01*
X1549Y232D02*
X1552Y232D01*
X1565Y232D02*
X1568Y232D01*
X1579Y232D02*
X1598Y232D01*
X1600Y232D02*
X1602Y232D01*
X1749Y232D02*
X1751Y232D01*
X1783Y232D02*
X1785Y232D01*
X1864Y232D02*
X1866Y232D01*
X1932Y232D02*
X1934Y232D01*
X2961Y232D02*
X2968Y232D01*
X2987Y232D02*
X2994Y232D01*
X3011Y232D02*
X3017Y232D01*
X3434Y232D02*
X3441Y232D01*
X0Y231D02*
X7Y231D01*
X353Y231D02*
X355Y231D01*
X963Y231D02*
X975Y231D01*
X987Y231D02*
X989Y231D01*
X1211Y231D02*
X1216Y231D01*
X1227Y231D02*
X1228Y231D01*
X1255Y231D02*
X1261Y231D01*
X1282Y231D02*
X1289Y231D01*
X1319Y231D02*
X1325Y231D01*
X1365Y231D02*
X1370Y231D01*
X1549Y231D02*
X1551Y231D01*
X1566Y231D02*
X1568Y231D01*
X1579Y231D02*
X1598Y231D01*
X1600Y231D02*
X1602Y231D01*
X1749Y231D02*
X1751Y231D01*
X1783Y231D02*
X1785Y231D01*
X1864Y231D02*
X1866Y231D01*
X1932Y231D02*
X1934Y231D01*
X2961Y231D02*
X2969Y231D01*
X2986Y231D02*
X2994Y231D01*
X3011Y231D02*
X3017Y231D01*
X3434Y231D02*
X3441Y231D01*
X0Y230D02*
X7Y230D01*
X353Y230D02*
X355Y230D01*
X962Y230D02*
X975Y230D01*
X986Y230D02*
X990Y230D01*
X1215Y230D02*
X1216Y230D01*
X1227Y230D02*
X1228Y230D01*
X1255Y230D02*
X1261Y230D01*
X1282Y230D02*
X1289Y230D01*
X1319Y230D02*
X1325Y230D01*
X1365Y230D02*
X1366Y230D01*
X1600Y230D02*
X1602Y230D01*
X1749Y230D02*
X1751Y230D01*
X1783Y230D02*
X1785Y230D01*
X1864Y230D02*
X1866Y230D01*
X1932Y230D02*
X1934Y230D01*
X2377Y230D02*
X2388Y230D01*
X2962Y230D02*
X2993Y230D01*
X3011Y230D02*
X3043Y230D01*
X3434Y230D02*
X3441Y230D01*
X0Y229D02*
X7Y229D01*
X353Y229D02*
X355Y229D01*
X961Y229D02*
X975Y229D01*
X986Y229D02*
X990Y229D01*
X1215Y229D02*
X1216Y229D01*
X1227Y229D02*
X1228Y229D01*
X1255Y229D02*
X1261Y229D01*
X1282Y229D02*
X1289Y229D01*
X1319Y229D02*
X1325Y229D01*
X1365Y229D02*
X1366Y229D01*
X1600Y229D02*
X1602Y229D01*
X1749Y229D02*
X1751Y229D01*
X1783Y229D02*
X1785Y229D01*
X1864Y229D02*
X1866Y229D01*
X1932Y229D02*
X1934Y229D01*
X2375Y229D02*
X2389Y229D01*
X2962Y229D02*
X2993Y229D01*
X3011Y229D02*
X3044Y229D01*
X3434Y229D02*
X3441Y229D01*
X0Y228D02*
X7Y228D01*
X353Y228D02*
X355Y228D01*
X960Y228D02*
X974Y228D01*
X986Y228D02*
X990Y228D01*
X1000Y228D02*
X1001Y228D01*
X1215Y228D02*
X1216Y228D01*
X1227Y228D02*
X1228Y228D01*
X1255Y228D02*
X1261Y228D01*
X1282Y228D02*
X1289Y228D01*
X1319Y228D02*
X1325Y228D01*
X1365Y228D02*
X1366Y228D01*
X1600Y228D02*
X1602Y228D01*
X1749Y228D02*
X1751Y228D01*
X1783Y228D02*
X1785Y228D01*
X1864Y228D02*
X1866Y228D01*
X1932Y228D02*
X1934Y228D01*
X2375Y228D02*
X2391Y228D01*
X2963Y228D02*
X2992Y228D01*
X3011Y228D02*
X3044Y228D01*
X3434Y228D02*
X3441Y228D01*
X0Y227D02*
X7Y227D01*
X353Y227D02*
X355Y227D01*
X960Y227D02*
X964Y227D01*
X986Y227D02*
X990Y227D01*
X999Y227D02*
X1002Y227D01*
X1215Y227D02*
X1216Y227D01*
X1227Y227D02*
X1228Y227D01*
X1255Y227D02*
X1261Y227D01*
X1282Y227D02*
X1289Y227D01*
X1319Y227D02*
X1325Y227D01*
X1365Y227D02*
X1366Y227D01*
X1600Y227D02*
X1602Y227D01*
X1749Y227D02*
X1751Y227D01*
X1783Y227D02*
X1785Y227D01*
X1864Y227D02*
X1866Y227D01*
X1932Y227D02*
X1934Y227D01*
X2375Y227D02*
X2393Y227D01*
X2964Y227D02*
X2991Y227D01*
X3011Y227D02*
X3044Y227D01*
X3434Y227D02*
X3441Y227D01*
X0Y226D02*
X7Y226D01*
X353Y226D02*
X355Y226D01*
X959Y226D02*
X963Y226D01*
X986Y226D02*
X990Y226D01*
X999Y226D02*
X1002Y226D01*
X1215Y226D02*
X1216Y226D01*
X1227Y226D02*
X1228Y226D01*
X1255Y226D02*
X1261Y226D01*
X1282Y226D02*
X1289Y226D01*
X1319Y226D02*
X1325Y226D01*
X1365Y226D02*
X1366Y226D01*
X1600Y226D02*
X1602Y226D01*
X1749Y226D02*
X1751Y226D01*
X1783Y226D02*
X1785Y226D01*
X1864Y226D02*
X1866Y226D01*
X1932Y226D02*
X1934Y226D01*
X2375Y226D02*
X2395Y226D01*
X2965Y226D02*
X2990Y226D01*
X3011Y226D02*
X3044Y226D01*
X3434Y226D02*
X3441Y226D01*
X0Y225D02*
X7Y225D01*
X353Y225D02*
X355Y225D01*
X959Y225D02*
X962Y225D01*
X986Y225D02*
X990Y225D01*
X999Y225D02*
X1002Y225D01*
X1215Y225D02*
X1216Y225D01*
X1227Y225D02*
X1228Y225D01*
X1255Y225D02*
X1261Y225D01*
X1282Y225D02*
X1289Y225D01*
X1319Y225D02*
X1325Y225D01*
X1365Y225D02*
X1366Y225D01*
X1600Y225D02*
X1602Y225D01*
X1749Y225D02*
X1751Y225D01*
X1783Y225D02*
X1785Y225D01*
X1864Y225D02*
X1866Y225D01*
X1932Y225D02*
X1934Y225D01*
X2375Y225D02*
X2393Y225D01*
X2966Y225D02*
X2989Y225D01*
X3011Y225D02*
X3044Y225D01*
X3434Y225D02*
X3441Y225D01*
X0Y224D02*
X7Y224D01*
X353Y224D02*
X355Y224D01*
X958Y224D02*
X962Y224D01*
X986Y224D02*
X990Y224D01*
X999Y224D02*
X1002Y224D01*
X1215Y224D02*
X1216Y224D01*
X1227Y224D02*
X1228Y224D01*
X1255Y224D02*
X1261Y224D01*
X1282Y224D02*
X1289Y224D01*
X1319Y224D02*
X1325Y224D01*
X1365Y224D02*
X1366Y224D01*
X1600Y224D02*
X1602Y224D01*
X1749Y224D02*
X1751Y224D01*
X1783Y224D02*
X1785Y224D01*
X1864Y224D02*
X1866Y224D01*
X1932Y224D02*
X1934Y224D01*
X2376Y224D02*
X2392Y224D01*
X2969Y224D02*
X2986Y224D01*
X3011Y224D02*
X3042Y224D01*
X3434Y224D02*
X3441Y224D01*
X0Y223D02*
X7Y223D01*
X353Y223D02*
X355Y223D01*
X958Y223D02*
X961Y223D01*
X986Y223D02*
X990Y223D01*
X999Y223D02*
X1002Y223D01*
X1215Y223D02*
X1216Y223D01*
X1227Y223D02*
X1228Y223D01*
X1255Y223D02*
X1261Y223D01*
X1282Y223D02*
X1289Y223D01*
X1319Y223D02*
X1325Y223D01*
X1365Y223D02*
X1366Y223D01*
X1600Y223D02*
X1602Y223D01*
X1749Y223D02*
X1751Y223D01*
X1783Y223D02*
X1785Y223D01*
X1864Y223D02*
X1866Y223D01*
X1932Y223D02*
X1934Y223D01*
X3434Y223D02*
X3441Y223D01*
X0Y222D02*
X7Y222D01*
X353Y222D02*
X355Y222D01*
X957Y222D02*
X961Y222D01*
X986Y222D02*
X990Y222D01*
X999Y222D02*
X1002Y222D01*
X1215Y222D02*
X1216Y222D01*
X1227Y222D02*
X1228Y222D01*
X1255Y222D02*
X1261Y222D01*
X1282Y222D02*
X1289Y222D01*
X1319Y222D02*
X1325Y222D01*
X1365Y222D02*
X1366Y222D01*
X1600Y222D02*
X1602Y222D01*
X1749Y222D02*
X1751Y222D01*
X1783Y222D02*
X1785Y222D01*
X1864Y222D02*
X1866Y222D01*
X1932Y222D02*
X1934Y222D01*
X3434Y222D02*
X3441Y222D01*
X0Y221D02*
X7Y221D01*
X353Y221D02*
X355Y221D01*
X565Y221D02*
X809Y221D01*
X957Y221D02*
X960Y221D01*
X986Y221D02*
X990Y221D01*
X999Y221D02*
X1002Y221D01*
X1215Y221D02*
X1216Y221D01*
X1227Y221D02*
X1228Y221D01*
X1255Y221D02*
X1261Y221D01*
X1282Y221D02*
X1289Y221D01*
X1319Y221D02*
X1325Y221D01*
X1365Y221D02*
X1366Y221D01*
X1600Y221D02*
X1602Y221D01*
X1749Y221D02*
X1751Y221D01*
X1783Y221D02*
X1785Y221D01*
X1864Y221D02*
X1866Y221D01*
X1932Y221D02*
X1934Y221D01*
X3434Y221D02*
X3441Y221D01*
X0Y220D02*
X7Y220D01*
X353Y220D02*
X355Y220D01*
X553Y220D02*
X820Y220D01*
X956Y220D02*
X960Y220D01*
X986Y220D02*
X990Y220D01*
X999Y220D02*
X1002Y220D01*
X1215Y220D02*
X1216Y220D01*
X1227Y220D02*
X1228Y220D01*
X1255Y220D02*
X1261Y220D01*
X1282Y220D02*
X1289Y220D01*
X1319Y220D02*
X1325Y220D01*
X1365Y220D02*
X1366Y220D01*
X1600Y220D02*
X1602Y220D01*
X1749Y220D02*
X1751Y220D01*
X1783Y220D02*
X1785Y220D01*
X1932Y220D02*
X1934Y220D01*
X3434Y220D02*
X3441Y220D01*
X0Y219D02*
X7Y219D01*
X353Y219D02*
X355Y219D01*
X548Y219D02*
X826Y219D01*
X956Y219D02*
X959Y219D01*
X986Y219D02*
X990Y219D01*
X999Y219D02*
X1002Y219D01*
X1215Y219D02*
X1216Y219D01*
X1227Y219D02*
X1228Y219D01*
X1255Y219D02*
X1261Y219D01*
X1282Y219D02*
X1289Y219D01*
X1319Y219D02*
X1325Y219D01*
X1365Y219D02*
X1366Y219D01*
X1600Y219D02*
X1602Y219D01*
X1749Y219D02*
X1751Y219D01*
X1783Y219D02*
X1785Y219D01*
X1932Y219D02*
X1934Y219D01*
X3434Y219D02*
X3441Y219D01*
X0Y218D02*
X7Y218D01*
X353Y218D02*
X355Y218D01*
X544Y218D02*
X830Y218D01*
X956Y218D02*
X959Y218D01*
X986Y218D02*
X990Y218D01*
X999Y218D02*
X1002Y218D01*
X1215Y218D02*
X1216Y218D01*
X1227Y218D02*
X1228Y218D01*
X1255Y218D02*
X1261Y218D01*
X1282Y218D02*
X1289Y218D01*
X1319Y218D02*
X1325Y218D01*
X1365Y218D02*
X1366Y218D01*
X1600Y218D02*
X1602Y218D01*
X1749Y218D02*
X1751Y218D01*
X1783Y218D02*
X1785Y218D01*
X1932Y218D02*
X1934Y218D01*
X3434Y218D02*
X3441Y218D01*
X0Y217D02*
X7Y217D01*
X353Y217D02*
X355Y217D01*
X540Y217D02*
X833Y217D01*
X955Y217D02*
X959Y217D01*
X986Y217D02*
X990Y217D01*
X999Y217D02*
X1002Y217D01*
X1215Y217D02*
X1216Y217D01*
X1227Y217D02*
X1228Y217D01*
X1255Y217D02*
X1261Y217D01*
X1282Y217D02*
X1289Y217D01*
X1319Y217D02*
X1325Y217D01*
X1365Y217D02*
X1366Y217D01*
X1600Y217D02*
X1602Y217D01*
X1749Y217D02*
X1751Y217D01*
X1783Y217D02*
X1785Y217D01*
X1932Y217D02*
X1934Y217D01*
X3434Y217D02*
X3441Y217D01*
X0Y216D02*
X7Y216D01*
X353Y216D02*
X355Y216D01*
X537Y216D02*
X836Y216D01*
X955Y216D02*
X959Y216D01*
X986Y216D02*
X990Y216D01*
X999Y216D02*
X1002Y216D01*
X1215Y216D02*
X1216Y216D01*
X1227Y216D02*
X1228Y216D01*
X1255Y216D02*
X1261Y216D01*
X1282Y216D02*
X1289Y216D01*
X1319Y216D02*
X1325Y216D01*
X1365Y216D02*
X1366Y216D01*
X1600Y216D02*
X1602Y216D01*
X1668Y216D02*
X1683Y216D01*
X1749Y216D02*
X1751Y216D01*
X1783Y216D02*
X1785Y216D01*
X1851Y216D02*
X1866Y216D01*
X1932Y216D02*
X1934Y216D01*
X3434Y216D02*
X3441Y216D01*
X0Y215D02*
X7Y215D01*
X353Y215D02*
X355Y215D01*
X535Y215D02*
X839Y215D01*
X955Y215D02*
X959Y215D01*
X986Y215D02*
X990Y215D01*
X999Y215D02*
X1002Y215D01*
X1215Y215D02*
X1216Y215D01*
X1227Y215D02*
X1228Y215D01*
X1255Y215D02*
X1261Y215D01*
X1282Y215D02*
X1289Y215D01*
X1319Y215D02*
X1325Y215D01*
X1365Y215D02*
X1366Y215D01*
X1600Y215D02*
X1751Y215D01*
X1783Y215D02*
X1934Y215D01*
X3434Y215D02*
X3441Y215D01*
X0Y214D02*
X7Y214D01*
X353Y214D02*
X355Y214D01*
X532Y214D02*
X842Y214D01*
X955Y214D02*
X959Y214D01*
X986Y214D02*
X1003Y214D01*
X1215Y214D02*
X1216Y214D01*
X1227Y214D02*
X1228Y214D01*
X1255Y214D02*
X1261Y214D01*
X1282Y214D02*
X1289Y214D01*
X1319Y214D02*
X1325Y214D01*
X1365Y214D02*
X1366Y214D01*
X1600Y214D02*
X1751Y214D01*
X1783Y214D02*
X1934Y214D01*
X3434Y214D02*
X3441Y214D01*
X0Y213D02*
X7Y213D01*
X353Y213D02*
X355Y213D01*
X529Y213D02*
X844Y213D01*
X956Y213D02*
X959Y213D01*
X986Y213D02*
X1004Y213D01*
X1215Y213D02*
X1216Y213D01*
X1227Y213D02*
X1228Y213D01*
X1255Y213D02*
X1261Y213D01*
X1282Y213D02*
X1289Y213D01*
X1319Y213D02*
X1325Y213D01*
X1334Y213D02*
X1337Y213D01*
X1365Y213D02*
X1366Y213D01*
X1600Y213D02*
X1751Y213D01*
X1783Y213D02*
X1934Y213D01*
X3434Y213D02*
X3441Y213D01*
X0Y212D02*
X7Y212D01*
X353Y212D02*
X355Y212D01*
X527Y212D02*
X846Y212D01*
X956Y212D02*
X960Y212D01*
X986Y212D02*
X1004Y212D01*
X1215Y212D02*
X1216Y212D01*
X1227Y212D02*
X1228Y212D01*
X1255Y212D02*
X1261Y212D01*
X1282Y212D02*
X1289Y212D01*
X1319Y212D02*
X1325Y212D01*
X1333Y212D02*
X1338Y212D01*
X1365Y212D02*
X1366Y212D01*
X3434Y212D02*
X3441Y212D01*
X0Y211D02*
X7Y211D01*
X353Y211D02*
X355Y211D01*
X525Y211D02*
X560Y211D01*
X813Y211D02*
X848Y211D01*
X957Y211D02*
X960Y211D01*
X986Y211D02*
X1004Y211D01*
X1215Y211D02*
X1216Y211D01*
X1227Y211D02*
X1228Y211D01*
X1255Y211D02*
X1261Y211D01*
X1282Y211D02*
X1289Y211D01*
X1319Y211D02*
X1325Y211D01*
X1333Y211D02*
X1339Y211D01*
X1365Y211D02*
X1366Y211D01*
X3434Y211D02*
X3441Y211D01*
X0Y210D02*
X7Y210D01*
X353Y210D02*
X355Y210D01*
X523Y210D02*
X552Y210D01*
X822Y210D02*
X850Y210D01*
X957Y210D02*
X961Y210D01*
X999Y210D02*
X1002Y210D01*
X1215Y210D02*
X1216Y210D01*
X1227Y210D02*
X1228Y210D01*
X1255Y210D02*
X1261Y210D01*
X1282Y210D02*
X1289Y210D01*
X1319Y210D02*
X1325Y210D01*
X1333Y210D02*
X1339Y210D01*
X1365Y210D02*
X1366Y210D01*
X3434Y210D02*
X3441Y210D01*
X0Y209D02*
X7Y209D01*
X353Y209D02*
X355Y209D01*
X521Y209D02*
X547Y209D01*
X827Y209D02*
X852Y209D01*
X958Y209D02*
X961Y209D01*
X999Y209D02*
X1002Y209D01*
X1215Y209D02*
X1216Y209D01*
X1227Y209D02*
X1228Y209D01*
X1255Y209D02*
X1261Y209D01*
X1282Y209D02*
X1289Y209D01*
X1319Y209D02*
X1325Y209D01*
X1333Y209D02*
X1339Y209D01*
X1365Y209D02*
X1366Y209D01*
X3434Y209D02*
X3441Y209D01*
X0Y208D02*
X7Y208D01*
X353Y208D02*
X355Y208D01*
X520Y208D02*
X543Y208D01*
X830Y208D02*
X854Y208D01*
X958Y208D02*
X962Y208D01*
X999Y208D02*
X1002Y208D01*
X1215Y208D02*
X1216Y208D01*
X1227Y208D02*
X1228Y208D01*
X1255Y208D02*
X1261Y208D01*
X1282Y208D02*
X1289Y208D01*
X1319Y208D02*
X1325Y208D01*
X1333Y208D02*
X1339Y208D01*
X1365Y208D02*
X1366Y208D01*
X3434Y208D02*
X3441Y208D01*
X0Y207D02*
X7Y207D01*
X353Y207D02*
X355Y207D01*
X518Y207D02*
X540Y207D01*
X834Y207D02*
X856Y207D01*
X959Y207D02*
X962Y207D01*
X999Y207D02*
X1002Y207D01*
X1215Y207D02*
X1216Y207D01*
X1227Y207D02*
X1228Y207D01*
X1255Y207D02*
X1261Y207D01*
X1282Y207D02*
X1289Y207D01*
X1319Y207D02*
X1325Y207D01*
X1333Y207D02*
X1339Y207D01*
X1365Y207D02*
X1366Y207D01*
X3434Y207D02*
X3441Y207D01*
X0Y206D02*
X7Y206D01*
X353Y206D02*
X355Y206D01*
X517Y206D02*
X537Y206D01*
X837Y206D02*
X857Y206D01*
X959Y206D02*
X963Y206D01*
X999Y206D02*
X1002Y206D01*
X1215Y206D02*
X1216Y206D01*
X1227Y206D02*
X1228Y206D01*
X1255Y206D02*
X1261Y206D01*
X1282Y206D02*
X1289Y206D01*
X1319Y206D02*
X1325Y206D01*
X1333Y206D02*
X1339Y206D01*
X1365Y206D02*
X1366Y206D01*
X3434Y206D02*
X3441Y206D01*
X0Y205D02*
X7Y205D01*
X353Y205D02*
X355Y205D01*
X515Y205D02*
X534Y205D01*
X839Y205D02*
X859Y205D01*
X960Y205D02*
X963Y205D01*
X999Y205D02*
X1002Y205D01*
X1215Y205D02*
X1216Y205D01*
X1227Y205D02*
X1228Y205D01*
X1255Y205D02*
X1261Y205D01*
X1282Y205D02*
X1289Y205D01*
X1319Y205D02*
X1325Y205D01*
X1333Y205D02*
X1339Y205D01*
X1365Y205D02*
X1366Y205D01*
X3434Y205D02*
X3441Y205D01*
X0Y204D02*
X7Y204D01*
X353Y204D02*
X355Y204D01*
X513Y204D02*
X532Y204D01*
X842Y204D02*
X860Y204D01*
X960Y204D02*
X964Y204D01*
X999Y204D02*
X1002Y204D01*
X1215Y204D02*
X1216Y204D01*
X1227Y204D02*
X1228Y204D01*
X1255Y204D02*
X1261Y204D01*
X1282Y204D02*
X1289Y204D01*
X1319Y204D02*
X1325Y204D01*
X1333Y204D02*
X1339Y204D01*
X1365Y204D02*
X1366Y204D01*
X3434Y204D02*
X3441Y204D01*
X0Y203D02*
X7Y203D01*
X353Y203D02*
X355Y203D01*
X512Y203D02*
X530Y203D01*
X844Y203D02*
X862Y203D01*
X961Y203D02*
X974Y203D01*
X999Y203D02*
X1002Y203D01*
X1215Y203D02*
X1216Y203D01*
X1227Y203D02*
X1228Y203D01*
X1255Y203D02*
X1261Y203D01*
X1282Y203D02*
X1289Y203D01*
X1319Y203D02*
X1325Y203D01*
X1333Y203D02*
X1339Y203D01*
X1365Y203D02*
X1366Y203D01*
X3434Y203D02*
X3441Y203D01*
X0Y202D02*
X7Y202D01*
X353Y202D02*
X355Y202D01*
X511Y202D02*
X528Y202D01*
X846Y202D02*
X863Y202D01*
X961Y202D02*
X975Y202D01*
X999Y202D02*
X1002Y202D01*
X1215Y202D02*
X1216Y202D01*
X1227Y202D02*
X1228Y202D01*
X1255Y202D02*
X1261Y202D01*
X1282Y202D02*
X1289Y202D01*
X1319Y202D02*
X1325Y202D01*
X1333Y202D02*
X1339Y202D01*
X1365Y202D02*
X1366Y202D01*
X3434Y202D02*
X3441Y202D01*
X0Y201D02*
X7Y201D01*
X353Y201D02*
X355Y201D01*
X509Y201D02*
X526Y201D01*
X848Y201D02*
X864Y201D01*
X962Y201D02*
X975Y201D01*
X999Y201D02*
X1002Y201D01*
X1215Y201D02*
X1216Y201D01*
X1227Y201D02*
X1228Y201D01*
X1255Y201D02*
X1261Y201D01*
X1282Y201D02*
X1289Y201D01*
X1319Y201D02*
X1325Y201D01*
X1333Y201D02*
X1339Y201D01*
X1365Y201D02*
X1366Y201D01*
X3434Y201D02*
X3441Y201D01*
X0Y200D02*
X7Y200D01*
X353Y200D02*
X355Y200D01*
X508Y200D02*
X524Y200D01*
X849Y200D02*
X866Y200D01*
X904Y200D02*
X1054Y200D01*
X1215Y200D02*
X1216Y200D01*
X1227Y200D02*
X1228Y200D01*
X1255Y200D02*
X1261Y200D01*
X1282Y200D02*
X1289Y200D01*
X1319Y200D02*
X1325Y200D01*
X1333Y200D02*
X1339Y200D01*
X1365Y200D02*
X1366Y200D01*
X3434Y200D02*
X3441Y200D01*
X0Y199D02*
X7Y199D01*
X353Y199D02*
X355Y199D01*
X507Y199D02*
X523Y199D01*
X851Y199D02*
X867Y199D01*
X904Y199D02*
X1054Y199D01*
X1215Y199D02*
X1216Y199D01*
X1227Y199D02*
X1228Y199D01*
X1255Y199D02*
X1261Y199D01*
X1282Y199D02*
X1288Y199D01*
X1319Y199D02*
X1325Y199D01*
X1333Y199D02*
X1339Y199D01*
X1365Y199D02*
X1366Y199D01*
X3434Y199D02*
X3441Y199D01*
X0Y198D02*
X7Y198D01*
X353Y198D02*
X355Y198D01*
X506Y198D02*
X521Y198D01*
X853Y198D02*
X868Y198D01*
X904Y198D02*
X1054Y198D01*
X1215Y198D02*
X1216Y198D01*
X1227Y198D02*
X1228Y198D01*
X1255Y198D02*
X1261Y198D01*
X1282Y198D02*
X1288Y198D01*
X1319Y198D02*
X1325Y198D01*
X1333Y198D02*
X1339Y198D01*
X1365Y198D02*
X1366Y198D01*
X3434Y198D02*
X3441Y198D01*
X0Y197D02*
X7Y197D01*
X353Y197D02*
X355Y197D01*
X505Y197D02*
X519Y197D01*
X854Y197D02*
X869Y197D01*
X904Y197D02*
X906Y197D01*
X971Y197D02*
X986Y197D01*
X1052Y197D02*
X1054Y197D01*
X1215Y197D02*
X1216Y197D01*
X1227Y197D02*
X1228Y197D01*
X1255Y197D02*
X1262Y197D01*
X1281Y197D02*
X1288Y197D01*
X1319Y197D02*
X1325Y197D01*
X1333Y197D02*
X1339Y197D01*
X1365Y197D02*
X1366Y197D01*
X3434Y197D02*
X3441Y197D01*
X0Y196D02*
X7Y196D01*
X353Y196D02*
X355Y196D01*
X504Y196D02*
X518Y196D01*
X856Y196D02*
X870Y196D01*
X904Y196D02*
X905Y196D01*
X1052Y196D02*
X1054Y196D01*
X1215Y196D02*
X1216Y196D01*
X1227Y196D02*
X1228Y196D01*
X1256Y196D02*
X1288Y196D01*
X1308Y196D02*
X1339Y196D01*
X1365Y196D02*
X1366Y196D01*
X3434Y196D02*
X3441Y196D01*
X0Y195D02*
X7Y195D01*
X353Y195D02*
X355Y195D01*
X502Y195D02*
X517Y195D01*
X857Y195D02*
X871Y195D01*
X904Y195D02*
X905Y195D01*
X1052Y195D02*
X1054Y195D01*
X1215Y195D02*
X1216Y195D01*
X1227Y195D02*
X1228Y195D01*
X1256Y195D02*
X1287Y195D01*
X1306Y195D02*
X1339Y195D01*
X1365Y195D02*
X1366Y195D01*
X3434Y195D02*
X3441Y195D01*
X0Y194D02*
X7Y194D01*
X353Y194D02*
X355Y194D01*
X501Y194D02*
X515Y194D01*
X858Y194D02*
X872Y194D01*
X904Y194D02*
X905Y194D01*
X1052Y194D02*
X1054Y194D01*
X1211Y194D02*
X1216Y194D01*
X1227Y194D02*
X1228Y194D01*
X1257Y194D02*
X1287Y194D01*
X1305Y194D02*
X1339Y194D01*
X1365Y194D02*
X1370Y194D01*
X3434Y194D02*
X3441Y194D01*
X0Y193D02*
X7Y193D01*
X353Y193D02*
X355Y193D01*
X500Y193D02*
X514Y193D01*
X860Y193D02*
X873Y193D01*
X904Y193D02*
X905Y193D01*
X1052Y193D02*
X1054Y193D01*
X1211Y193D02*
X1216Y193D01*
X1227Y193D02*
X1228Y193D01*
X1257Y193D02*
X1286Y193D01*
X1305Y193D02*
X1339Y193D01*
X1365Y193D02*
X1370Y193D01*
X3434Y193D02*
X3441Y193D01*
X0Y192D02*
X7Y192D01*
X353Y192D02*
X355Y192D01*
X499Y192D02*
X513Y192D01*
X861Y192D02*
X874Y192D01*
X904Y192D02*
X905Y192D01*
X1052Y192D02*
X1054Y192D01*
X1211Y192D02*
X1216Y192D01*
X1227Y192D02*
X1228Y192D01*
X1258Y192D02*
X1285Y192D01*
X1305Y192D02*
X1339Y192D01*
X1365Y192D02*
X1370Y192D01*
X3434Y192D02*
X3441Y192D01*
X0Y191D02*
X7Y191D01*
X353Y191D02*
X355Y191D01*
X498Y191D02*
X512Y191D01*
X862Y191D02*
X875Y191D01*
X904Y191D02*
X905Y191D01*
X1052Y191D02*
X1054Y191D01*
X1211Y191D02*
X1216Y191D01*
X1227Y191D02*
X1228Y191D01*
X1259Y191D02*
X1284Y191D01*
X1306Y191D02*
X1338Y191D01*
X1365Y191D02*
X1370Y191D01*
X3434Y191D02*
X3441Y191D01*
X0Y190D02*
X7Y190D01*
X353Y190D02*
X355Y190D01*
X498Y190D02*
X510Y190D01*
X863Y190D02*
X876Y190D01*
X904Y190D02*
X905Y190D01*
X1052Y190D02*
X1054Y190D01*
X1211Y190D02*
X1216Y190D01*
X1227Y190D02*
X1228Y190D01*
X1261Y190D02*
X1282Y190D01*
X1306Y190D02*
X1338Y190D01*
X1365Y190D02*
X1370Y190D01*
X3434Y190D02*
X3441Y190D01*
X0Y189D02*
X7Y189D01*
X353Y189D02*
X355Y189D01*
X497Y189D02*
X509Y189D01*
X864Y189D02*
X877Y189D01*
X904Y189D02*
X905Y189D01*
X1052Y189D02*
X1054Y189D01*
X1211Y189D02*
X1216Y189D01*
X1227Y189D02*
X1228Y189D01*
X1365Y189D02*
X1370Y189D01*
X3434Y189D02*
X3441Y189D01*
X0Y188D02*
X7Y188D01*
X353Y188D02*
X355Y188D01*
X496Y188D02*
X508Y188D01*
X865Y188D02*
X878Y188D01*
X904Y188D02*
X905Y188D01*
X1052Y188D02*
X1054Y188D01*
X1211Y188D02*
X1216Y188D01*
X1227Y188D02*
X1228Y188D01*
X1365Y188D02*
X1370Y188D01*
X3434Y188D02*
X3441Y188D01*
X0Y187D02*
X7Y187D01*
X353Y187D02*
X355Y187D01*
X495Y187D02*
X507Y187D01*
X866Y187D02*
X879Y187D01*
X904Y187D02*
X905Y187D01*
X1052Y187D02*
X1054Y187D01*
X1211Y187D02*
X1216Y187D01*
X1227Y187D02*
X1228Y187D01*
X1365Y187D02*
X1370Y187D01*
X3434Y187D02*
X3441Y187D01*
X0Y186D02*
X7Y186D01*
X353Y186D02*
X355Y186D01*
X494Y186D02*
X506Y186D01*
X867Y186D02*
X880Y186D01*
X904Y186D02*
X905Y186D01*
X1052Y186D02*
X1054Y186D01*
X1211Y186D02*
X1216Y186D01*
X1227Y186D02*
X1228Y186D01*
X1365Y186D02*
X1370Y186D01*
X3434Y186D02*
X3441Y186D01*
X0Y185D02*
X7Y185D01*
X353Y185D02*
X355Y185D01*
X493Y185D02*
X505Y185D01*
X868Y185D02*
X881Y185D01*
X904Y185D02*
X905Y185D01*
X1052Y185D02*
X1054Y185D01*
X1211Y185D02*
X1216Y185D01*
X1227Y185D02*
X1228Y185D01*
X1365Y185D02*
X1370Y185D01*
X1601Y185D02*
X1750Y185D01*
X1784Y185D02*
X1934Y185D01*
X3434Y185D02*
X3441Y185D01*
X0Y184D02*
X7Y184D01*
X351Y184D02*
X355Y184D01*
X492Y184D02*
X504Y184D01*
X869Y184D02*
X881Y184D01*
X904Y184D02*
X905Y184D01*
X1052Y184D02*
X1054Y184D01*
X1211Y184D02*
X1216Y184D01*
X1227Y184D02*
X1228Y184D01*
X1365Y184D02*
X1370Y184D01*
X1600Y184D02*
X1751Y184D01*
X1783Y184D02*
X1934Y184D01*
X3434Y184D02*
X3441Y184D01*
X0Y183D02*
X7Y183D01*
X351Y183D02*
X355Y183D01*
X492Y183D02*
X503Y183D01*
X870Y183D02*
X882Y183D01*
X904Y183D02*
X905Y183D01*
X1052Y183D02*
X1054Y183D01*
X1211Y183D02*
X1216Y183D01*
X1227Y183D02*
X1228Y183D01*
X1365Y183D02*
X1370Y183D01*
X1600Y183D02*
X1751Y183D01*
X1783Y183D02*
X1934Y183D01*
X3434Y183D02*
X3441Y183D01*
X0Y182D02*
X7Y182D01*
X351Y182D02*
X355Y182D01*
X491Y182D02*
X503Y182D01*
X871Y182D02*
X883Y182D01*
X904Y182D02*
X905Y182D01*
X1052Y182D02*
X1054Y182D01*
X1211Y182D02*
X1216Y182D01*
X1227Y182D02*
X1228Y182D01*
X1365Y182D02*
X1370Y182D01*
X1600Y182D02*
X1602Y182D01*
X1668Y182D02*
X1683Y182D01*
X1749Y182D02*
X1751Y182D01*
X1783Y182D02*
X1786Y182D01*
X1851Y182D02*
X1866Y182D01*
X1932Y182D02*
X1934Y182D01*
X3434Y182D02*
X3441Y182D01*
X0Y181D02*
X7Y181D01*
X351Y181D02*
X355Y181D01*
X490Y181D02*
X502Y181D01*
X872Y181D02*
X883Y181D01*
X904Y181D02*
X905Y181D01*
X1052Y181D02*
X1054Y181D01*
X1211Y181D02*
X1216Y181D01*
X1227Y181D02*
X1228Y181D01*
X1365Y181D02*
X1370Y181D01*
X1600Y181D02*
X1602Y181D01*
X1749Y181D02*
X1751Y181D01*
X1783Y181D02*
X1785Y181D01*
X1932Y181D02*
X1934Y181D01*
X3434Y181D02*
X3441Y181D01*
X0Y180D02*
X7Y180D01*
X351Y180D02*
X355Y180D01*
X490Y180D02*
X501Y180D01*
X873Y180D02*
X884Y180D01*
X904Y180D02*
X905Y180D01*
X1052Y180D02*
X1054Y180D01*
X1215Y180D02*
X1216Y180D01*
X1227Y180D02*
X1228Y180D01*
X1365Y180D02*
X1366Y180D01*
X1600Y180D02*
X1602Y180D01*
X1749Y180D02*
X1751Y180D01*
X1783Y180D02*
X1785Y180D01*
X1932Y180D02*
X1934Y180D01*
X3434Y180D02*
X3441Y180D01*
X0Y179D02*
X7Y179D01*
X351Y179D02*
X355Y179D01*
X489Y179D02*
X500Y179D01*
X874Y179D02*
X885Y179D01*
X904Y179D02*
X905Y179D01*
X1052Y179D02*
X1054Y179D01*
X1215Y179D02*
X1216Y179D01*
X1227Y179D02*
X1228Y179D01*
X1365Y179D02*
X1366Y179D01*
X1600Y179D02*
X1602Y179D01*
X1749Y179D02*
X1751Y179D01*
X1783Y179D02*
X1785Y179D01*
X1932Y179D02*
X1934Y179D01*
X3434Y179D02*
X3441Y179D01*
X0Y178D02*
X7Y178D01*
X351Y178D02*
X355Y178D01*
X488Y178D02*
X499Y178D01*
X875Y178D02*
X886Y178D01*
X904Y178D02*
X905Y178D01*
X1052Y178D02*
X1054Y178D01*
X1215Y178D02*
X1216Y178D01*
X1227Y178D02*
X1228Y178D01*
X1365Y178D02*
X1366Y178D01*
X1600Y178D02*
X1602Y178D01*
X1749Y178D02*
X1751Y178D01*
X1783Y178D02*
X1785Y178D01*
X1932Y178D02*
X1934Y178D01*
X3434Y178D02*
X3441Y178D01*
X0Y177D02*
X7Y177D01*
X351Y177D02*
X355Y177D01*
X488Y177D02*
X498Y177D01*
X875Y177D02*
X886Y177D01*
X904Y177D02*
X905Y177D01*
X1052Y177D02*
X1054Y177D01*
X1215Y177D02*
X1216Y177D01*
X1227Y177D02*
X1228Y177D01*
X1365Y177D02*
X1366Y177D01*
X1600Y177D02*
X1602Y177D01*
X1749Y177D02*
X1751Y177D01*
X1783Y177D02*
X1785Y177D01*
X1864Y177D02*
X1866Y177D01*
X1932Y177D02*
X1934Y177D01*
X3434Y177D02*
X3441Y177D01*
X0Y176D02*
X7Y176D01*
X351Y176D02*
X355Y176D01*
X487Y176D02*
X498Y176D01*
X876Y176D02*
X887Y176D01*
X904Y176D02*
X905Y176D01*
X1052Y176D02*
X1054Y176D01*
X1215Y176D02*
X1216Y176D01*
X1227Y176D02*
X1228Y176D01*
X1365Y176D02*
X1366Y176D01*
X1600Y176D02*
X1602Y176D01*
X1749Y176D02*
X1751Y176D01*
X1783Y176D02*
X1785Y176D01*
X1864Y176D02*
X1866Y176D01*
X1932Y176D02*
X1934Y176D01*
X3434Y176D02*
X3441Y176D01*
X0Y175D02*
X7Y175D01*
X351Y175D02*
X355Y175D01*
X486Y175D02*
X497Y175D01*
X877Y175D02*
X887Y175D01*
X904Y175D02*
X905Y175D01*
X1052Y175D02*
X1054Y175D01*
X1215Y175D02*
X1216Y175D01*
X1227Y175D02*
X1228Y175D01*
X1365Y175D02*
X1366Y175D01*
X1600Y175D02*
X1602Y175D01*
X1749Y175D02*
X1751Y175D01*
X1783Y175D02*
X1785Y175D01*
X1864Y175D02*
X1866Y175D01*
X1932Y175D02*
X1934Y175D01*
X3434Y175D02*
X3441Y175D01*
X0Y174D02*
X7Y174D01*
X351Y174D02*
X355Y174D01*
X486Y174D02*
X496Y174D01*
X877Y174D02*
X888Y174D01*
X904Y174D02*
X905Y174D01*
X1052Y174D02*
X1054Y174D01*
X1215Y174D02*
X1216Y174D01*
X1227Y174D02*
X1228Y174D01*
X1365Y174D02*
X1366Y174D01*
X1600Y174D02*
X1602Y174D01*
X1749Y174D02*
X1751Y174D01*
X1783Y174D02*
X1785Y174D01*
X1864Y174D02*
X1866Y174D01*
X1932Y174D02*
X1934Y174D01*
X3434Y174D02*
X3441Y174D01*
X0Y173D02*
X7Y173D01*
X351Y173D02*
X355Y173D01*
X485Y173D02*
X496Y173D01*
X878Y173D02*
X889Y173D01*
X904Y173D02*
X905Y173D01*
X1052Y173D02*
X1054Y173D01*
X1215Y173D02*
X1216Y173D01*
X1227Y173D02*
X1228Y173D01*
X1365Y173D02*
X1366Y173D01*
X1600Y173D02*
X1602Y173D01*
X1749Y173D02*
X1751Y173D01*
X1783Y173D02*
X1785Y173D01*
X1864Y173D02*
X1866Y173D01*
X1932Y173D02*
X1934Y173D01*
X3434Y173D02*
X3441Y173D01*
X0Y172D02*
X7Y172D01*
X351Y172D02*
X355Y172D01*
X485Y172D02*
X495Y172D01*
X879Y172D02*
X889Y172D01*
X904Y172D02*
X905Y172D01*
X1052Y172D02*
X1054Y172D01*
X1215Y172D02*
X1216Y172D01*
X1227Y172D02*
X1228Y172D01*
X1365Y172D02*
X1366Y172D01*
X1600Y172D02*
X1602Y172D01*
X1749Y172D02*
X1751Y172D01*
X1783Y172D02*
X1785Y172D01*
X1864Y172D02*
X1866Y172D01*
X1932Y172D02*
X1934Y172D01*
X3434Y172D02*
X3441Y172D01*
X0Y171D02*
X7Y171D01*
X351Y171D02*
X355Y171D01*
X484Y171D02*
X494Y171D01*
X879Y171D02*
X890Y171D01*
X904Y171D02*
X905Y171D01*
X1052Y171D02*
X1054Y171D01*
X1215Y171D02*
X1216Y171D01*
X1227Y171D02*
X1228Y171D01*
X1365Y171D02*
X1366Y171D01*
X1600Y171D02*
X1602Y171D01*
X1749Y171D02*
X1751Y171D01*
X1783Y171D02*
X1785Y171D01*
X1864Y171D02*
X1866Y171D01*
X1932Y171D02*
X1934Y171D01*
X3434Y171D02*
X3441Y171D01*
X0Y170D02*
X7Y170D01*
X351Y170D02*
X355Y170D01*
X483Y170D02*
X494Y170D01*
X880Y170D02*
X890Y170D01*
X904Y170D02*
X905Y170D01*
X1052Y170D02*
X1054Y170D01*
X1215Y170D02*
X1216Y170D01*
X1227Y170D02*
X1228Y170D01*
X1365Y170D02*
X1366Y170D01*
X1600Y170D02*
X1602Y170D01*
X1749Y170D02*
X1751Y170D01*
X1783Y170D02*
X1785Y170D01*
X1864Y170D02*
X1866Y170D01*
X1932Y170D02*
X1934Y170D01*
X3434Y170D02*
X3441Y170D01*
X0Y169D02*
X7Y169D01*
X351Y169D02*
X355Y169D01*
X483Y169D02*
X493Y169D01*
X881Y169D02*
X891Y169D01*
X904Y169D02*
X905Y169D01*
X1052Y169D02*
X1054Y169D01*
X1215Y169D02*
X1216Y169D01*
X1227Y169D02*
X1228Y169D01*
X1365Y169D02*
X1366Y169D01*
X1600Y169D02*
X1602Y169D01*
X1749Y169D02*
X1751Y169D01*
X1783Y169D02*
X1785Y169D01*
X1864Y169D02*
X1866Y169D01*
X1932Y169D02*
X1934Y169D01*
X3434Y169D02*
X3441Y169D01*
X0Y168D02*
X7Y168D01*
X351Y168D02*
X355Y168D01*
X482Y168D02*
X492Y168D01*
X881Y168D02*
X891Y168D01*
X904Y168D02*
X905Y168D01*
X1052Y168D02*
X1054Y168D01*
X1215Y168D02*
X1216Y168D01*
X1227Y168D02*
X1228Y168D01*
X1365Y168D02*
X1366Y168D01*
X1600Y168D02*
X1602Y168D01*
X1749Y168D02*
X1751Y168D01*
X1783Y168D02*
X1785Y168D01*
X1864Y168D02*
X1866Y168D01*
X1932Y168D02*
X1934Y168D01*
X3434Y168D02*
X3441Y168D01*
X0Y167D02*
X7Y167D01*
X351Y167D02*
X355Y167D01*
X482Y167D02*
X492Y167D01*
X653Y167D02*
X658Y167D01*
X716Y167D02*
X721Y167D01*
X882Y167D02*
X892Y167D01*
X904Y167D02*
X905Y167D01*
X1052Y167D02*
X1054Y167D01*
X1215Y167D02*
X1216Y167D01*
X1227Y167D02*
X1228Y167D01*
X1365Y167D02*
X1366Y167D01*
X1600Y167D02*
X1602Y167D01*
X1749Y167D02*
X1751Y167D01*
X1783Y167D02*
X1785Y167D01*
X1864Y167D02*
X1866Y167D01*
X1932Y167D02*
X1934Y167D01*
X3434Y167D02*
X3441Y167D01*
X0Y166D02*
X7Y166D01*
X351Y166D02*
X355Y166D01*
X482Y166D02*
X491Y166D01*
X652Y166D02*
X659Y166D01*
X715Y166D02*
X722Y166D01*
X882Y166D02*
X892Y166D01*
X904Y166D02*
X905Y166D01*
X1052Y166D02*
X1054Y166D01*
X1215Y166D02*
X1216Y166D01*
X1227Y166D02*
X1228Y166D01*
X1365Y166D02*
X1366Y166D01*
X1600Y166D02*
X1602Y166D01*
X1749Y166D02*
X1751Y166D01*
X1783Y166D02*
X1785Y166D01*
X1864Y166D02*
X1866Y166D01*
X1932Y166D02*
X1934Y166D01*
X3434Y166D02*
X3441Y166D01*
X0Y165D02*
X7Y165D01*
X351Y165D02*
X355Y165D01*
X481Y165D02*
X491Y165D01*
X651Y165D02*
X659Y165D01*
X714Y165D02*
X722Y165D01*
X883Y165D02*
X893Y165D01*
X904Y165D02*
X905Y165D01*
X1052Y165D02*
X1054Y165D01*
X1215Y165D02*
X1216Y165D01*
X1227Y165D02*
X1228Y165D01*
X1365Y165D02*
X1366Y165D01*
X1600Y165D02*
X1602Y165D01*
X1749Y165D02*
X1751Y165D01*
X1783Y165D02*
X1785Y165D01*
X1864Y165D02*
X1866Y165D01*
X1932Y165D02*
X1934Y165D01*
X3434Y165D02*
X3441Y165D01*
X0Y164D02*
X7Y164D01*
X351Y164D02*
X355Y164D01*
X481Y164D02*
X490Y164D01*
X651Y164D02*
X660Y164D01*
X714Y164D02*
X723Y164D01*
X883Y164D02*
X893Y164D01*
X904Y164D02*
X905Y164D01*
X1052Y164D02*
X1054Y164D01*
X1215Y164D02*
X1216Y164D01*
X1227Y164D02*
X1228Y164D01*
X1365Y164D02*
X1366Y164D01*
X1600Y164D02*
X1602Y164D01*
X1749Y164D02*
X1751Y164D01*
X1783Y164D02*
X1785Y164D01*
X1864Y164D02*
X1866Y164D01*
X1932Y164D02*
X1934Y164D01*
X3434Y164D02*
X3441Y164D01*
X0Y163D02*
X7Y163D01*
X351Y163D02*
X355Y163D01*
X480Y163D02*
X490Y163D01*
X651Y163D02*
X660Y163D01*
X714Y163D02*
X723Y163D01*
X884Y163D02*
X894Y163D01*
X904Y163D02*
X905Y163D01*
X1052Y163D02*
X1054Y163D01*
X1215Y163D02*
X1216Y163D01*
X1227Y163D02*
X1228Y163D01*
X1365Y163D02*
X1366Y163D01*
X1600Y163D02*
X1602Y163D01*
X1749Y163D02*
X1751Y163D01*
X1783Y163D02*
X1785Y163D01*
X1864Y163D02*
X1866Y163D01*
X1932Y163D02*
X1934Y163D01*
X3434Y163D02*
X3441Y163D01*
X0Y162D02*
X7Y162D01*
X351Y162D02*
X355Y162D01*
X480Y162D02*
X489Y162D01*
X651Y162D02*
X660Y162D01*
X714Y162D02*
X723Y162D01*
X884Y162D02*
X894Y162D01*
X904Y162D02*
X905Y162D01*
X1052Y162D02*
X1054Y162D01*
X1215Y162D02*
X1216Y162D01*
X1227Y162D02*
X1228Y162D01*
X1365Y162D02*
X1366Y162D01*
X1600Y162D02*
X1602Y162D01*
X1749Y162D02*
X1751Y162D01*
X1783Y162D02*
X1785Y162D01*
X1864Y162D02*
X1866Y162D01*
X1932Y162D02*
X1934Y162D01*
X3434Y162D02*
X3441Y162D01*
X0Y161D02*
X7Y161D01*
X351Y161D02*
X355Y161D01*
X479Y161D02*
X489Y161D01*
X651Y161D02*
X660Y161D01*
X714Y161D02*
X723Y161D01*
X885Y161D02*
X894Y161D01*
X904Y161D02*
X905Y161D01*
X1052Y161D02*
X1054Y161D01*
X1215Y161D02*
X1216Y161D01*
X1227Y161D02*
X1228Y161D01*
X1365Y161D02*
X1366Y161D01*
X1600Y161D02*
X1602Y161D01*
X1749Y161D02*
X1751Y161D01*
X1783Y161D02*
X1785Y161D01*
X1864Y161D02*
X1866Y161D01*
X1932Y161D02*
X1934Y161D01*
X3434Y161D02*
X3441Y161D01*
X0Y160D02*
X7Y160D01*
X351Y160D02*
X355Y160D01*
X479Y160D02*
X488Y160D01*
X651Y160D02*
X660Y160D01*
X714Y160D02*
X723Y160D01*
X885Y160D02*
X895Y160D01*
X904Y160D02*
X905Y160D01*
X1052Y160D02*
X1054Y160D01*
X1215Y160D02*
X1216Y160D01*
X1227Y160D02*
X1228Y160D01*
X1365Y160D02*
X1366Y160D01*
X1550Y160D02*
X1566Y160D01*
X1581Y160D02*
X1598Y160D01*
X1600Y160D02*
X1602Y160D01*
X1749Y160D02*
X1751Y160D01*
X1783Y160D02*
X1785Y160D01*
X1864Y160D02*
X1866Y160D01*
X1932Y160D02*
X1934Y160D01*
X3434Y160D02*
X3441Y160D01*
X0Y159D02*
X7Y159D01*
X351Y159D02*
X355Y159D01*
X478Y159D02*
X488Y159D01*
X651Y159D02*
X660Y159D01*
X714Y159D02*
X723Y159D01*
X886Y159D02*
X895Y159D01*
X904Y159D02*
X905Y159D01*
X1052Y159D02*
X1054Y159D01*
X1215Y159D02*
X1216Y159D01*
X1227Y159D02*
X1228Y159D01*
X1365Y159D02*
X1366Y159D01*
X1550Y159D02*
X1568Y159D01*
X1580Y159D02*
X1602Y159D01*
X1749Y159D02*
X1751Y159D01*
X1783Y159D02*
X1785Y159D01*
X1864Y159D02*
X1866Y159D01*
X1932Y159D02*
X1934Y159D01*
X3434Y159D02*
X3441Y159D01*
X0Y158D02*
X7Y158D01*
X351Y158D02*
X355Y158D01*
X478Y158D02*
X487Y158D01*
X651Y158D02*
X660Y158D01*
X714Y158D02*
X723Y158D01*
X886Y158D02*
X896Y158D01*
X904Y158D02*
X905Y158D01*
X1052Y158D02*
X1054Y158D01*
X1215Y158D02*
X1216Y158D01*
X1227Y158D02*
X1228Y158D01*
X1365Y158D02*
X1366Y158D01*
X1550Y158D02*
X1569Y158D01*
X1580Y158D02*
X1602Y158D01*
X1749Y158D02*
X1751Y158D01*
X1783Y158D02*
X1785Y158D01*
X1864Y158D02*
X1866Y158D01*
X1932Y158D02*
X1934Y158D01*
X3434Y158D02*
X3441Y158D01*
X0Y157D02*
X7Y157D01*
X351Y157D02*
X355Y157D01*
X478Y157D02*
X487Y157D01*
X651Y157D02*
X660Y157D01*
X714Y157D02*
X723Y157D01*
X887Y157D02*
X896Y157D01*
X904Y157D02*
X905Y157D01*
X1052Y157D02*
X1054Y157D01*
X1215Y157D02*
X1216Y157D01*
X1227Y157D02*
X1228Y157D01*
X1365Y157D02*
X1366Y157D01*
X1550Y157D02*
X1569Y157D01*
X1581Y157D02*
X1602Y157D01*
X1749Y157D02*
X1751Y157D01*
X1783Y157D02*
X1785Y157D01*
X1864Y157D02*
X1866Y157D01*
X1932Y157D02*
X1934Y157D01*
X3434Y157D02*
X3441Y157D01*
X0Y156D02*
X7Y156D01*
X351Y156D02*
X355Y156D01*
X477Y156D02*
X487Y156D01*
X651Y156D02*
X660Y156D01*
X714Y156D02*
X723Y156D01*
X887Y156D02*
X896Y156D01*
X904Y156D02*
X905Y156D01*
X1052Y156D02*
X1054Y156D01*
X1215Y156D02*
X1216Y156D01*
X1227Y156D02*
X1228Y156D01*
X1365Y156D02*
X1366Y156D01*
X1550Y156D02*
X1553Y156D01*
X1566Y156D02*
X1570Y156D01*
X1597Y156D02*
X1602Y156D01*
X1749Y156D02*
X1751Y156D01*
X1783Y156D02*
X1785Y156D01*
X1864Y156D02*
X1866Y156D01*
X1932Y156D02*
X1934Y156D01*
X3434Y156D02*
X3441Y156D01*
X0Y155D02*
X7Y155D01*
X351Y155D02*
X355Y155D01*
X477Y155D02*
X486Y155D01*
X651Y155D02*
X660Y155D01*
X714Y155D02*
X723Y155D01*
X887Y155D02*
X897Y155D01*
X904Y155D02*
X905Y155D01*
X1052Y155D02*
X1054Y155D01*
X1215Y155D02*
X1216Y155D01*
X1227Y155D02*
X1228Y155D01*
X1365Y155D02*
X1366Y155D01*
X1550Y155D02*
X1553Y155D01*
X1567Y155D02*
X1570Y155D01*
X1597Y155D02*
X1602Y155D01*
X1749Y155D02*
X1751Y155D01*
X1783Y155D02*
X1785Y155D01*
X1864Y155D02*
X1866Y155D01*
X1932Y155D02*
X1934Y155D01*
X3434Y155D02*
X3441Y155D01*
X0Y154D02*
X7Y154D01*
X351Y154D02*
X355Y154D01*
X477Y154D02*
X486Y154D01*
X651Y154D02*
X660Y154D01*
X714Y154D02*
X723Y154D01*
X888Y154D02*
X897Y154D01*
X904Y154D02*
X905Y154D01*
X1052Y154D02*
X1054Y154D01*
X1215Y154D02*
X1216Y154D01*
X1227Y154D02*
X1228Y154D01*
X1365Y154D02*
X1366Y154D01*
X1550Y154D02*
X1553Y154D01*
X1567Y154D02*
X1570Y154D01*
X1597Y154D02*
X1602Y154D01*
X1749Y154D02*
X1751Y154D01*
X1783Y154D02*
X1785Y154D01*
X1864Y154D02*
X1866Y154D01*
X1932Y154D02*
X1934Y154D01*
X3434Y154D02*
X3441Y154D01*
X0Y153D02*
X7Y153D01*
X351Y153D02*
X355Y153D01*
X476Y153D02*
X486Y153D01*
X651Y153D02*
X660Y153D01*
X714Y153D02*
X723Y153D01*
X888Y153D02*
X897Y153D01*
X904Y153D02*
X905Y153D01*
X1052Y153D02*
X1054Y153D01*
X1215Y153D02*
X1216Y153D01*
X1227Y153D02*
X1228Y153D01*
X1365Y153D02*
X1366Y153D01*
X1550Y153D02*
X1553Y153D01*
X1567Y153D02*
X1570Y153D01*
X1597Y153D02*
X1602Y153D01*
X1749Y153D02*
X1751Y153D01*
X1783Y153D02*
X1785Y153D01*
X1864Y153D02*
X1866Y153D01*
X1932Y153D02*
X1934Y153D01*
X3434Y153D02*
X3441Y153D01*
X0Y152D02*
X7Y152D01*
X351Y152D02*
X355Y152D01*
X476Y152D02*
X485Y152D01*
X651Y152D02*
X660Y152D01*
X714Y152D02*
X723Y152D01*
X888Y152D02*
X898Y152D01*
X904Y152D02*
X905Y152D01*
X1052Y152D02*
X1054Y152D01*
X1215Y152D02*
X1216Y152D01*
X1227Y152D02*
X1228Y152D01*
X1365Y152D02*
X1366Y152D01*
X1550Y152D02*
X1553Y152D01*
X1567Y152D02*
X1570Y152D01*
X1597Y152D02*
X1602Y152D01*
X1749Y152D02*
X1751Y152D01*
X1783Y152D02*
X1785Y152D01*
X1864Y152D02*
X1866Y152D01*
X1932Y152D02*
X1934Y152D01*
X2175Y152D02*
X2176Y152D01*
X2203Y152D02*
X2203Y152D01*
X2274Y152D02*
X2281Y152D01*
X2298Y152D02*
X2301Y152D01*
X3434Y152D02*
X3441Y152D01*
X0Y151D02*
X7Y151D01*
X351Y151D02*
X355Y151D01*
X476Y151D02*
X485Y151D01*
X651Y151D02*
X660Y151D01*
X714Y151D02*
X723Y151D01*
X889Y151D02*
X898Y151D01*
X904Y151D02*
X905Y151D01*
X1052Y151D02*
X1054Y151D01*
X1215Y151D02*
X1216Y151D01*
X1227Y151D02*
X1228Y151D01*
X1365Y151D02*
X1366Y151D01*
X1550Y151D02*
X1553Y151D01*
X1566Y151D02*
X1570Y151D01*
X1597Y151D02*
X1602Y151D01*
X1749Y151D02*
X1751Y151D01*
X1783Y151D02*
X1785Y151D01*
X1864Y151D02*
X1866Y151D01*
X1932Y151D02*
X1934Y151D01*
X2175Y151D02*
X2178Y151D01*
X2201Y151D02*
X2204Y151D01*
X2273Y151D02*
X2282Y151D01*
X2297Y151D02*
X2301Y151D01*
X3434Y151D02*
X3441Y151D01*
X0Y150D02*
X7Y150D01*
X351Y150D02*
X355Y150D01*
X475Y150D02*
X485Y150D01*
X651Y150D02*
X660Y150D01*
X714Y150D02*
X723Y150D01*
X889Y150D02*
X898Y150D01*
X904Y150D02*
X905Y150D01*
X1052Y150D02*
X1054Y150D01*
X1215Y150D02*
X1216Y150D01*
X1227Y150D02*
X1228Y150D01*
X1365Y150D02*
X1366Y150D01*
X1550Y150D02*
X1570Y150D01*
X1597Y150D02*
X1602Y150D01*
X1749Y150D02*
X1751Y150D01*
X1783Y150D02*
X1785Y150D01*
X1864Y150D02*
X1866Y150D01*
X1932Y150D02*
X1934Y150D01*
X2174Y150D02*
X2180Y150D01*
X2199Y150D02*
X2205Y150D01*
X2272Y150D02*
X2283Y150D01*
X2295Y150D02*
X2301Y150D01*
X3434Y150D02*
X3441Y150D01*
X0Y149D02*
X7Y149D01*
X351Y149D02*
X355Y149D01*
X475Y149D02*
X484Y149D01*
X651Y149D02*
X660Y149D01*
X714Y149D02*
X723Y149D01*
X889Y149D02*
X899Y149D01*
X904Y149D02*
X905Y149D01*
X1052Y149D02*
X1054Y149D01*
X1215Y149D02*
X1216Y149D01*
X1227Y149D02*
X1228Y149D01*
X1365Y149D02*
X1366Y149D01*
X1550Y149D02*
X1569Y149D01*
X1597Y149D02*
X1602Y149D01*
X1749Y149D02*
X1751Y149D01*
X1783Y149D02*
X1785Y149D01*
X1864Y149D02*
X1866Y149D01*
X1932Y149D02*
X1934Y149D01*
X2071Y149D02*
X2074Y149D01*
X2098Y149D02*
X2100Y149D01*
X2175Y149D02*
X2182Y149D01*
X2197Y149D02*
X2204Y149D01*
X2272Y149D02*
X2284Y149D01*
X2293Y149D02*
X2300Y149D01*
X3434Y149D02*
X3441Y149D01*
X0Y148D02*
X7Y148D01*
X351Y148D02*
X355Y148D01*
X475Y148D02*
X484Y148D01*
X651Y148D02*
X660Y148D01*
X714Y148D02*
X723Y148D01*
X890Y148D02*
X899Y148D01*
X904Y148D02*
X905Y148D01*
X1052Y148D02*
X1054Y148D01*
X1215Y148D02*
X1216Y148D01*
X1227Y148D02*
X1228Y148D01*
X1365Y148D02*
X1366Y148D01*
X1550Y148D02*
X1568Y148D01*
X1597Y148D02*
X1602Y148D01*
X1749Y148D02*
X1751Y148D01*
X1783Y148D02*
X1785Y148D01*
X1864Y148D02*
X1866Y148D01*
X1932Y148D02*
X1934Y148D01*
X2071Y148D02*
X2075Y148D01*
X2096Y148D02*
X2101Y148D01*
X2176Y148D02*
X2183Y148D01*
X2196Y148D02*
X2203Y148D01*
X2271Y148D02*
X2275Y148D01*
X2281Y148D02*
X2284Y148D01*
X2292Y148D02*
X2299Y148D01*
X3434Y148D02*
X3441Y148D01*
X0Y147D02*
X7Y147D01*
X351Y147D02*
X355Y147D01*
X475Y147D02*
X484Y147D01*
X651Y147D02*
X660Y147D01*
X714Y147D02*
X723Y147D01*
X890Y147D02*
X899Y147D01*
X904Y147D02*
X905Y147D01*
X1052Y147D02*
X1054Y147D01*
X1215Y147D02*
X1216Y147D01*
X1227Y147D02*
X1228Y147D01*
X1365Y147D02*
X1366Y147D01*
X1550Y147D02*
X1567Y147D01*
X1596Y147D02*
X1602Y147D01*
X1749Y147D02*
X1751Y147D01*
X1783Y147D02*
X1785Y147D01*
X1864Y147D02*
X1866Y147D01*
X1932Y147D02*
X1934Y147D01*
X2071Y147D02*
X2077Y147D01*
X2094Y147D02*
X2100Y147D01*
X2178Y147D02*
X2185Y147D01*
X2194Y147D02*
X2201Y147D01*
X2271Y147D02*
X2274Y147D01*
X2281Y147D02*
X2284Y147D01*
X2290Y147D02*
X2297Y147D01*
X3434Y147D02*
X3441Y147D01*
X0Y146D02*
X7Y146D01*
X351Y146D02*
X355Y146D01*
X474Y146D02*
X484Y146D01*
X651Y146D02*
X660Y146D01*
X714Y146D02*
X723Y146D01*
X890Y146D02*
X899Y146D01*
X904Y146D02*
X905Y146D01*
X1052Y146D02*
X1054Y146D01*
X1215Y146D02*
X1216Y146D01*
X1227Y146D02*
X1228Y146D01*
X1365Y146D02*
X1366Y146D01*
X1550Y146D02*
X1565Y146D01*
X1585Y146D02*
X1602Y146D01*
X1749Y146D02*
X1751Y146D01*
X1783Y146D02*
X1785Y146D01*
X1864Y146D02*
X1866Y146D01*
X1932Y146D02*
X1934Y146D01*
X2072Y146D02*
X2079Y146D01*
X2092Y146D02*
X2099Y146D01*
X2180Y146D02*
X2187Y146D01*
X2192Y146D02*
X2199Y146D01*
X2271Y146D02*
X2274Y146D01*
X2281Y146D02*
X2284Y146D01*
X2288Y146D02*
X2295Y146D01*
X3434Y146D02*
X3441Y146D01*
X0Y145D02*
X7Y145D01*
X352Y145D02*
X355Y145D01*
X474Y145D02*
X483Y145D01*
X651Y145D02*
X660Y145D01*
X714Y145D02*
X723Y145D01*
X890Y145D02*
X899Y145D01*
X904Y145D02*
X905Y145D01*
X1052Y145D02*
X1054Y145D01*
X1215Y145D02*
X1216Y145D01*
X1227Y145D02*
X1228Y145D01*
X1365Y145D02*
X1366Y145D01*
X1550Y145D02*
X1553Y145D01*
X1558Y145D02*
X1562Y145D01*
X1585Y145D02*
X1602Y145D01*
X1749Y145D02*
X1751Y145D01*
X1783Y145D02*
X1785Y145D01*
X1864Y145D02*
X1866Y145D01*
X1932Y145D02*
X1934Y145D01*
X2073Y145D02*
X2081Y145D01*
X2091Y145D02*
X2098Y145D01*
X2181Y145D02*
X2188Y145D01*
X2191Y145D02*
X2198Y145D01*
X2271Y145D02*
X2274Y145D01*
X2281Y145D02*
X2284Y145D01*
X2286Y145D02*
X2294Y145D01*
X3434Y145D02*
X3441Y145D01*
X0Y144D02*
X7Y144D01*
X353Y144D02*
X355Y144D01*
X474Y144D02*
X483Y144D01*
X651Y144D02*
X660Y144D01*
X714Y144D02*
X723Y144D01*
X891Y144D02*
X900Y144D01*
X904Y144D02*
X905Y144D01*
X1052Y144D02*
X1054Y144D01*
X1211Y144D02*
X1216Y144D01*
X1227Y144D02*
X1228Y144D01*
X1365Y144D02*
X1370Y144D01*
X1550Y144D02*
X1553Y144D01*
X1558Y144D02*
X1562Y144D01*
X1585Y144D02*
X1602Y144D01*
X1749Y144D02*
X1751Y144D01*
X1783Y144D02*
X1785Y144D01*
X1864Y144D02*
X1866Y144D01*
X1932Y144D02*
X1934Y144D01*
X2075Y144D02*
X2082Y144D01*
X2089Y144D02*
X2096Y144D01*
X2183Y144D02*
X2196Y144D01*
X2271Y144D02*
X2274Y144D01*
X2281Y144D02*
X2292Y144D01*
X3434Y144D02*
X3441Y144D01*
X0Y143D02*
X7Y143D01*
X353Y143D02*
X355Y143D01*
X474Y143D02*
X483Y143D01*
X651Y143D02*
X660Y143D01*
X714Y143D02*
X723Y143D01*
X891Y143D02*
X900Y143D01*
X904Y143D02*
X905Y143D01*
X1052Y143D02*
X1054Y143D01*
X1211Y143D02*
X1216Y143D01*
X1227Y143D02*
X1228Y143D01*
X1365Y143D02*
X1370Y143D01*
X1550Y143D02*
X1553Y143D01*
X1559Y143D02*
X1563Y143D01*
X1585Y143D02*
X1602Y143D01*
X1749Y143D02*
X1751Y143D01*
X1783Y143D02*
X1785Y143D01*
X1864Y143D02*
X1866Y143D01*
X1932Y143D02*
X1934Y143D01*
X2077Y143D02*
X2084Y143D01*
X2087Y143D02*
X2094Y143D01*
X2185Y143D02*
X2194Y143D01*
X2271Y143D02*
X2274Y143D01*
X2281Y143D02*
X2290Y143D01*
X3434Y143D02*
X3441Y143D01*
X0Y142D02*
X7Y142D01*
X353Y142D02*
X355Y142D01*
X474Y142D02*
X483Y142D01*
X651Y142D02*
X660Y142D01*
X714Y142D02*
X723Y142D01*
X891Y142D02*
X900Y142D01*
X904Y142D02*
X905Y142D01*
X1052Y142D02*
X1054Y142D01*
X1211Y142D02*
X1216Y142D01*
X1227Y142D02*
X1228Y142D01*
X1365Y142D02*
X1370Y142D01*
X1550Y142D02*
X1553Y142D01*
X1560Y142D02*
X1563Y142D01*
X1596Y142D02*
X1602Y142D01*
X1749Y142D02*
X1751Y142D01*
X1783Y142D02*
X1785Y142D01*
X1864Y142D02*
X1866Y142D01*
X1932Y142D02*
X1934Y142D01*
X2079Y142D02*
X2093Y142D01*
X2185Y142D02*
X2194Y142D01*
X2271Y142D02*
X2274Y142D01*
X2281Y142D02*
X2288Y142D01*
X3434Y142D02*
X3441Y142D01*
X0Y141D02*
X7Y141D01*
X353Y141D02*
X355Y141D01*
X473Y141D02*
X482Y141D01*
X651Y141D02*
X660Y141D01*
X714Y141D02*
X723Y141D01*
X891Y141D02*
X900Y141D01*
X904Y141D02*
X905Y141D01*
X1052Y141D02*
X1054Y141D01*
X1211Y141D02*
X1216Y141D01*
X1227Y141D02*
X1228Y141D01*
X1365Y141D02*
X1370Y141D01*
X1550Y141D02*
X1553Y141D01*
X1560Y141D02*
X1564Y141D01*
X1597Y141D02*
X1602Y141D01*
X1749Y141D02*
X1751Y141D01*
X1783Y141D02*
X1785Y141D01*
X1864Y141D02*
X1866Y141D01*
X1932Y141D02*
X1934Y141D01*
X2080Y141D02*
X2091Y141D01*
X2184Y141D02*
X2195Y141D01*
X2271Y141D02*
X2274Y141D01*
X2281Y141D02*
X2287Y141D01*
X3434Y141D02*
X3441Y141D01*
X0Y140D02*
X7Y140D01*
X353Y140D02*
X355Y140D01*
X473Y140D02*
X482Y140D01*
X651Y140D02*
X660Y140D01*
X714Y140D02*
X723Y140D01*
X892Y140D02*
X900Y140D01*
X904Y140D02*
X905Y140D01*
X1052Y140D02*
X1054Y140D01*
X1211Y140D02*
X1216Y140D01*
X1227Y140D02*
X1228Y140D01*
X1365Y140D02*
X1370Y140D01*
X1550Y140D02*
X1553Y140D01*
X1561Y140D02*
X1565Y140D01*
X1597Y140D02*
X1602Y140D01*
X1749Y140D02*
X1751Y140D01*
X1783Y140D02*
X1785Y140D01*
X1864Y140D02*
X1866Y140D01*
X1932Y140D02*
X1934Y140D01*
X2082Y140D02*
X2090Y140D01*
X2182Y140D02*
X2197Y140D01*
X2271Y140D02*
X2274Y140D01*
X2281Y140D02*
X2285Y140D01*
X3434Y140D02*
X3441Y140D01*
X0Y139D02*
X7Y139D01*
X353Y139D02*
X355Y139D01*
X473Y139D02*
X482Y139D01*
X651Y139D02*
X660Y139D01*
X714Y139D02*
X723Y139D01*
X892Y139D02*
X901Y139D01*
X904Y139D02*
X905Y139D01*
X1052Y139D02*
X1054Y139D01*
X1211Y139D02*
X1216Y139D01*
X1227Y139D02*
X1228Y139D01*
X1365Y139D02*
X1370Y139D01*
X1550Y139D02*
X1553Y139D01*
X1561Y139D02*
X1565Y139D01*
X1597Y139D02*
X1602Y139D01*
X1749Y139D02*
X1751Y139D01*
X1783Y139D02*
X1785Y139D01*
X1864Y139D02*
X1866Y139D01*
X1932Y139D02*
X1934Y139D01*
X2080Y139D02*
X2091Y139D01*
X2180Y139D02*
X2187Y139D01*
X2192Y139D02*
X2199Y139D01*
X2271Y139D02*
X2274Y139D01*
X2281Y139D02*
X2284Y139D01*
X3434Y139D02*
X3441Y139D01*
X0Y138D02*
X7Y138D01*
X353Y138D02*
X355Y138D01*
X473Y138D02*
X482Y138D01*
X651Y138D02*
X660Y138D01*
X714Y138D02*
X723Y138D01*
X892Y138D02*
X901Y138D01*
X904Y138D02*
X905Y138D01*
X1052Y138D02*
X1054Y138D01*
X1211Y138D02*
X1216Y138D01*
X1227Y138D02*
X1228Y138D01*
X1365Y138D02*
X1370Y138D01*
X1550Y138D02*
X1553Y138D01*
X1562Y138D02*
X1566Y138D01*
X1597Y138D02*
X1602Y138D01*
X1749Y138D02*
X1751Y138D01*
X1783Y138D02*
X1785Y138D01*
X1864Y138D02*
X1866Y138D01*
X1932Y138D02*
X1934Y138D01*
X2079Y138D02*
X2093Y138D01*
X2179Y138D02*
X2186Y138D01*
X2193Y138D02*
X2200Y138D01*
X2271Y138D02*
X2274Y138D01*
X2281Y138D02*
X2284Y138D01*
X3434Y138D02*
X3441Y138D01*
X0Y137D02*
X7Y137D01*
X353Y137D02*
X355Y137D01*
X473Y137D02*
X482Y137D01*
X651Y137D02*
X660Y137D01*
X714Y137D02*
X723Y137D01*
X892Y137D02*
X901Y137D01*
X904Y137D02*
X905Y137D01*
X1052Y137D02*
X1054Y137D01*
X1211Y137D02*
X1216Y137D01*
X1227Y137D02*
X1228Y137D01*
X1365Y137D02*
X1370Y137D01*
X1550Y137D02*
X1553Y137D01*
X1562Y137D02*
X1566Y137D01*
X1597Y137D02*
X1602Y137D01*
X1749Y137D02*
X1751Y137D01*
X1783Y137D02*
X1785Y137D01*
X1864Y137D02*
X1866Y137D01*
X1932Y137D02*
X1934Y137D01*
X2077Y137D02*
X2084Y137D01*
X2087Y137D02*
X2094Y137D01*
X2177Y137D02*
X2184Y137D01*
X2195Y137D02*
X2202Y137D01*
X2271Y137D02*
X2274Y137D01*
X2281Y137D02*
X2284Y137D01*
X3434Y137D02*
X3441Y137D01*
X0Y136D02*
X7Y136D01*
X353Y136D02*
X355Y136D01*
X473Y136D02*
X482Y136D01*
X651Y136D02*
X660Y136D01*
X714Y136D02*
X723Y136D01*
X892Y136D02*
X901Y136D01*
X904Y136D02*
X905Y136D01*
X1052Y136D02*
X1054Y136D01*
X1211Y136D02*
X1216Y136D01*
X1227Y136D02*
X1228Y136D01*
X1365Y136D02*
X1370Y136D01*
X1550Y136D02*
X1553Y136D01*
X1563Y136D02*
X1567Y136D01*
X1597Y136D02*
X1602Y136D01*
X1749Y136D02*
X1751Y136D01*
X1783Y136D02*
X1785Y136D01*
X1864Y136D02*
X1866Y136D01*
X1932Y136D02*
X1934Y136D01*
X2075Y136D02*
X2082Y136D01*
X2089Y136D02*
X2096Y136D01*
X2175Y136D02*
X2182Y136D01*
X2197Y136D02*
X2204Y136D01*
X2271Y136D02*
X2301Y136D01*
X3434Y136D02*
X3441Y136D01*
X0Y135D02*
X7Y135D01*
X353Y135D02*
X355Y135D01*
X473Y135D02*
X481Y135D01*
X651Y135D02*
X660Y135D01*
X714Y135D02*
X723Y135D01*
X892Y135D02*
X901Y135D01*
X904Y135D02*
X905Y135D01*
X1052Y135D02*
X1054Y135D01*
X1211Y135D02*
X1216Y135D01*
X1227Y135D02*
X1228Y135D01*
X1365Y135D02*
X1370Y135D01*
X1550Y135D02*
X1553Y135D01*
X1564Y135D02*
X1568Y135D01*
X1597Y135D02*
X1602Y135D01*
X1749Y135D02*
X1751Y135D01*
X1783Y135D02*
X1785Y135D01*
X1864Y135D02*
X1866Y135D01*
X1932Y135D02*
X1934Y135D01*
X2074Y135D02*
X2081Y135D01*
X2091Y135D02*
X2098Y135D01*
X2175Y135D02*
X2181Y135D01*
X2198Y135D02*
X2204Y135D01*
X2271Y135D02*
X2301Y135D01*
X3434Y135D02*
X3441Y135D01*
X0Y134D02*
X7Y134D01*
X353Y134D02*
X355Y134D01*
X472Y134D02*
X481Y134D01*
X651Y134D02*
X660Y134D01*
X714Y134D02*
X723Y134D01*
X892Y134D02*
X901Y134D01*
X904Y134D02*
X905Y134D01*
X1052Y134D02*
X1054Y134D01*
X1211Y134D02*
X1216Y134D01*
X1227Y134D02*
X1228Y134D01*
X1365Y134D02*
X1370Y134D01*
X1550Y134D02*
X1553Y134D01*
X1564Y134D02*
X1568Y134D01*
X1597Y134D02*
X1602Y134D01*
X1749Y134D02*
X1751Y134D01*
X1783Y134D02*
X1785Y134D01*
X1864Y134D02*
X1866Y134D01*
X1932Y134D02*
X1934Y134D01*
X2072Y134D02*
X2079Y134D01*
X2092Y134D02*
X2099Y134D01*
X2174Y134D02*
X2179Y134D01*
X2200Y134D02*
X2205Y134D01*
X2271Y134D02*
X2301Y134D01*
X3434Y134D02*
X3441Y134D01*
X0Y133D02*
X7Y133D01*
X353Y133D02*
X355Y133D01*
X472Y133D02*
X481Y133D01*
X651Y133D02*
X660Y133D01*
X714Y133D02*
X723Y133D01*
X893Y133D02*
X901Y133D01*
X904Y133D02*
X905Y133D01*
X1052Y133D02*
X1054Y133D01*
X1211Y133D02*
X1216Y133D01*
X1227Y133D02*
X1228Y133D01*
X1365Y133D02*
X1370Y133D01*
X1550Y133D02*
X1553Y133D01*
X1565Y133D02*
X1569Y133D01*
X1597Y133D02*
X1602Y133D01*
X1749Y133D02*
X1751Y133D01*
X1783Y133D02*
X1785Y133D01*
X1864Y133D02*
X1866Y133D01*
X1932Y133D02*
X1934Y133D01*
X2071Y133D02*
X2077Y133D01*
X2094Y133D02*
X2100Y133D01*
X2175Y133D02*
X2177Y133D01*
X2202Y133D02*
X2204Y133D01*
X2271Y133D02*
X2300Y133D01*
X3434Y133D02*
X3441Y133D01*
X0Y132D02*
X7Y132D01*
X353Y132D02*
X355Y132D01*
X472Y132D02*
X481Y132D01*
X651Y132D02*
X660Y132D01*
X714Y132D02*
X723Y132D01*
X893Y132D02*
X901Y132D01*
X904Y132D02*
X905Y132D01*
X1052Y132D02*
X1054Y132D01*
X1211Y132D02*
X1216Y132D01*
X1227Y132D02*
X1228Y132D01*
X1365Y132D02*
X1370Y132D01*
X1550Y132D02*
X1553Y132D01*
X1565Y132D02*
X1569Y132D01*
X1581Y132D02*
X1602Y132D01*
X1749Y132D02*
X1751Y132D01*
X1783Y132D02*
X1785Y132D01*
X1864Y132D02*
X1866Y132D01*
X1932Y132D02*
X1934Y132D01*
X2071Y132D02*
X2076Y132D01*
X2096Y132D02*
X2101Y132D01*
X3434Y132D02*
X3441Y132D01*
X0Y131D02*
X7Y131D01*
X353Y131D02*
X355Y131D01*
X472Y131D02*
X481Y131D01*
X651Y131D02*
X660Y131D01*
X714Y131D02*
X723Y131D01*
X893Y131D02*
X902Y131D01*
X904Y131D02*
X905Y131D01*
X1052Y131D02*
X1054Y131D01*
X1211Y131D02*
X1216Y131D01*
X1227Y131D02*
X1228Y131D01*
X1365Y131D02*
X1370Y131D01*
X1550Y131D02*
X1553Y131D01*
X1566Y131D02*
X1570Y131D01*
X1580Y131D02*
X1602Y131D01*
X1749Y131D02*
X1751Y131D01*
X1783Y131D02*
X1785Y131D01*
X1864Y131D02*
X1866Y131D01*
X1932Y131D02*
X1934Y131D01*
X2071Y131D02*
X2074Y131D01*
X2097Y131D02*
X2100Y131D01*
X3434Y131D02*
X3441Y131D01*
X0Y130D02*
X7Y130D01*
X353Y130D02*
X355Y130D01*
X472Y130D02*
X481Y130D01*
X651Y130D02*
X660Y130D01*
X714Y130D02*
X723Y130D01*
X893Y130D02*
X902Y130D01*
X904Y130D02*
X905Y130D01*
X1052Y130D02*
X1054Y130D01*
X1215Y130D02*
X1216Y130D01*
X1227Y130D02*
X1228Y130D01*
X1365Y130D02*
X1366Y130D01*
X1550Y130D02*
X1553Y130D01*
X1567Y130D02*
X1570Y130D01*
X1580Y130D02*
X1602Y130D01*
X1749Y130D02*
X1751Y130D01*
X1783Y130D02*
X1785Y130D01*
X1864Y130D02*
X1866Y130D01*
X1932Y130D02*
X1934Y130D01*
X3434Y130D02*
X3441Y130D01*
X0Y129D02*
X7Y129D01*
X353Y129D02*
X355Y129D01*
X472Y129D02*
X481Y129D01*
X651Y129D02*
X660Y129D01*
X714Y129D02*
X723Y129D01*
X893Y129D02*
X902Y129D01*
X904Y129D02*
X905Y129D01*
X972Y129D02*
X986Y129D01*
X1052Y129D02*
X1054Y129D01*
X1215Y129D02*
X1216Y129D01*
X1227Y129D02*
X1228Y129D01*
X1365Y129D02*
X1366Y129D01*
X1551Y129D02*
X1553Y129D01*
X1567Y129D02*
X1569Y129D01*
X1581Y129D02*
X1598Y129D01*
X1600Y129D02*
X1602Y129D01*
X1749Y129D02*
X1751Y129D01*
X1783Y129D02*
X1785Y129D01*
X1864Y129D02*
X1866Y129D01*
X1932Y129D02*
X1934Y129D01*
X3434Y129D02*
X3441Y129D01*
X0Y128D02*
X7Y128D01*
X353Y128D02*
X355Y128D01*
X472Y128D02*
X481Y128D01*
X651Y128D02*
X660Y128D01*
X714Y128D02*
X723Y128D01*
X893Y128D02*
X902Y128D01*
X904Y128D02*
X1054Y128D01*
X1215Y128D02*
X1216Y128D01*
X1227Y128D02*
X1228Y128D01*
X1365Y128D02*
X1366Y128D01*
X1600Y128D02*
X1602Y128D01*
X1749Y128D02*
X1751Y128D01*
X1783Y128D02*
X1785Y128D01*
X1864Y128D02*
X1866Y128D01*
X1932Y128D02*
X1934Y128D01*
X3434Y128D02*
X3441Y128D01*
X0Y127D02*
X7Y127D01*
X353Y127D02*
X355Y127D01*
X472Y127D02*
X481Y127D01*
X651Y127D02*
X660Y127D01*
X714Y127D02*
X723Y127D01*
X893Y127D02*
X902Y127D01*
X904Y127D02*
X1054Y127D01*
X1215Y127D02*
X1216Y127D01*
X1227Y127D02*
X1228Y127D01*
X1365Y127D02*
X1366Y127D01*
X1600Y127D02*
X1602Y127D01*
X1749Y127D02*
X1751Y127D01*
X1783Y127D02*
X1785Y127D01*
X1864Y127D02*
X1866Y127D01*
X1932Y127D02*
X1934Y127D01*
X3434Y127D02*
X3441Y127D01*
X0Y126D02*
X7Y126D01*
X353Y126D02*
X355Y126D01*
X472Y126D02*
X481Y126D01*
X651Y126D02*
X660Y126D01*
X714Y126D02*
X723Y126D01*
X893Y126D02*
X902Y126D01*
X904Y126D02*
X1054Y126D01*
X1215Y126D02*
X1216Y126D01*
X1227Y126D02*
X1228Y126D01*
X1365Y126D02*
X1366Y126D01*
X1600Y126D02*
X1602Y126D01*
X1749Y126D02*
X1751Y126D01*
X1783Y126D02*
X1785Y126D01*
X1864Y126D02*
X1866Y126D01*
X1932Y126D02*
X1934Y126D01*
X3434Y126D02*
X3441Y126D01*
X0Y125D02*
X7Y125D01*
X353Y125D02*
X355Y125D01*
X472Y125D02*
X481Y125D01*
X651Y125D02*
X660Y125D01*
X714Y125D02*
X723Y125D01*
X893Y125D02*
X902Y125D01*
X904Y125D02*
X1054Y125D01*
X1215Y125D02*
X1216Y125D01*
X1227Y125D02*
X1228Y125D01*
X1365Y125D02*
X1366Y125D01*
X1600Y125D02*
X1602Y125D01*
X1749Y125D02*
X1751Y125D01*
X1783Y125D02*
X1785Y125D01*
X1864Y125D02*
X1866Y125D01*
X1932Y125D02*
X1934Y125D01*
X3434Y125D02*
X3441Y125D01*
X0Y124D02*
X7Y124D01*
X353Y124D02*
X355Y124D01*
X472Y124D02*
X481Y124D01*
X651Y124D02*
X660Y124D01*
X714Y124D02*
X723Y124D01*
X893Y124D02*
X902Y124D01*
X904Y124D02*
X1054Y124D01*
X1215Y124D02*
X1216Y124D01*
X1227Y124D02*
X1228Y124D01*
X1365Y124D02*
X1366Y124D01*
X1600Y124D02*
X1602Y124D01*
X1749Y124D02*
X1751Y124D01*
X1783Y124D02*
X1785Y124D01*
X1864Y124D02*
X1866Y124D01*
X1932Y124D02*
X1934Y124D01*
X3434Y124D02*
X3441Y124D01*
X0Y123D02*
X7Y123D01*
X353Y123D02*
X355Y123D01*
X472Y123D02*
X481Y123D01*
X651Y123D02*
X660Y123D01*
X714Y123D02*
X723Y123D01*
X893Y123D02*
X902Y123D01*
X904Y123D02*
X1054Y123D01*
X1215Y123D02*
X1216Y123D01*
X1227Y123D02*
X1228Y123D01*
X1365Y123D02*
X1366Y123D01*
X1600Y123D02*
X1602Y123D01*
X1749Y123D02*
X1751Y123D01*
X1783Y123D02*
X1785Y123D01*
X1864Y123D02*
X1866Y123D01*
X1932Y123D02*
X1934Y123D01*
X2178Y123D02*
X2183Y123D01*
X2202Y123D02*
X2204Y123D01*
X2271Y123D02*
X2277Y123D01*
X3434Y123D02*
X3441Y123D01*
X0Y122D02*
X7Y122D01*
X353Y122D02*
X355Y122D01*
X472Y122D02*
X481Y122D01*
X651Y122D02*
X660Y122D01*
X714Y122D02*
X723Y122D01*
X893Y122D02*
X902Y122D01*
X904Y122D02*
X906Y122D01*
X971Y122D02*
X986Y122D01*
X1052Y122D02*
X1054Y122D01*
X1215Y122D02*
X1216Y122D01*
X1227Y122D02*
X1228Y122D01*
X1365Y122D02*
X1366Y122D01*
X1600Y122D02*
X1602Y122D01*
X1749Y122D02*
X1751Y122D01*
X1783Y122D02*
X1785Y122D01*
X1864Y122D02*
X1866Y122D01*
X1932Y122D02*
X1934Y122D01*
X2177Y122D02*
X2185Y122D01*
X2201Y122D02*
X2204Y122D01*
X2271Y122D02*
X2277Y122D01*
X3434Y122D02*
X3441Y122D01*
X0Y121D02*
X7Y121D01*
X353Y121D02*
X355Y121D01*
X472Y121D02*
X481Y121D01*
X651Y121D02*
X660Y121D01*
X714Y121D02*
X723Y121D01*
X893Y121D02*
X902Y121D01*
X904Y121D02*
X905Y121D01*
X1052Y121D02*
X1054Y121D01*
X1215Y121D02*
X1216Y121D01*
X1227Y121D02*
X1228Y121D01*
X1365Y121D02*
X1366Y121D01*
X1600Y121D02*
X1602Y121D01*
X1749Y121D02*
X1751Y121D01*
X1783Y121D02*
X1785Y121D01*
X1864Y121D02*
X1866Y121D01*
X1932Y121D02*
X1934Y121D01*
X2071Y121D02*
X2075Y121D01*
X2176Y121D02*
X2186Y121D01*
X2199Y121D02*
X2205Y121D01*
X2271Y121D02*
X2277Y121D01*
X3434Y121D02*
X3441Y121D01*
X0Y120D02*
X7Y120D01*
X353Y120D02*
X355Y120D01*
X414Y120D02*
X416Y120D01*
X472Y120D02*
X481Y120D01*
X651Y120D02*
X660Y120D01*
X714Y120D02*
X723Y120D01*
X893Y120D02*
X902Y120D01*
X904Y120D02*
X905Y120D01*
X1052Y120D02*
X1054Y120D01*
X1215Y120D02*
X1216Y120D01*
X1227Y120D02*
X1228Y120D01*
X1365Y120D02*
X1366Y120D01*
X1600Y120D02*
X1602Y120D01*
X1749Y120D02*
X1751Y120D01*
X1783Y120D02*
X1785Y120D01*
X1864Y120D02*
X1866Y120D01*
X1932Y120D02*
X1934Y120D01*
X2070Y120D02*
X2077Y120D01*
X2175Y120D02*
X2187Y120D01*
X2197Y120D02*
X2204Y120D01*
X2271Y120D02*
X2276Y120D01*
X3434Y120D02*
X3441Y120D01*
X0Y119D02*
X7Y119D01*
X353Y119D02*
X355Y119D01*
X413Y119D02*
X417Y119D01*
X472Y119D02*
X481Y119D01*
X651Y119D02*
X660Y119D01*
X714Y119D02*
X723Y119D01*
X893Y119D02*
X902Y119D01*
X904Y119D02*
X905Y119D01*
X1052Y119D02*
X1054Y119D01*
X1215Y119D02*
X1216Y119D01*
X1227Y119D02*
X1228Y119D01*
X1365Y119D02*
X1366Y119D01*
X1600Y119D02*
X1602Y119D01*
X1749Y119D02*
X1751Y119D01*
X1783Y119D02*
X1785Y119D01*
X1864Y119D02*
X1866Y119D01*
X1932Y119D02*
X1934Y119D01*
X2070Y119D02*
X2077Y119D01*
X2175Y119D02*
X2179Y119D01*
X2183Y119D02*
X2187Y119D01*
X2196Y119D02*
X2203Y119D01*
X2271Y119D02*
X2274Y119D01*
X3434Y119D02*
X3441Y119D01*
X0Y118D02*
X7Y118D01*
X353Y118D02*
X355Y118D01*
X413Y118D02*
X417Y118D01*
X472Y118D02*
X481Y118D01*
X651Y118D02*
X660Y118D01*
X714Y118D02*
X723Y118D01*
X893Y118D02*
X902Y118D01*
X904Y118D02*
X905Y118D01*
X1052Y118D02*
X1054Y118D01*
X1215Y118D02*
X1216Y118D01*
X1227Y118D02*
X1228Y118D01*
X1365Y118D02*
X1366Y118D01*
X1600Y118D02*
X1602Y118D01*
X1749Y118D02*
X1751Y118D01*
X1783Y118D02*
X1785Y118D01*
X1932Y118D02*
X1934Y118D01*
X2070Y118D02*
X2077Y118D01*
X2174Y118D02*
X2178Y118D01*
X2184Y118D02*
X2188Y118D01*
X2194Y118D02*
X2201Y118D01*
X2271Y118D02*
X2274Y118D01*
X3434Y118D02*
X3441Y118D01*
X0Y117D02*
X7Y117D01*
X353Y117D02*
X355Y117D01*
X413Y117D02*
X417Y117D01*
X472Y117D02*
X481Y117D01*
X651Y117D02*
X660Y117D01*
X714Y117D02*
X723Y117D01*
X893Y117D02*
X902Y117D01*
X904Y117D02*
X905Y117D01*
X1052Y117D02*
X1054Y117D01*
X1215Y117D02*
X1216Y117D01*
X1227Y117D02*
X1228Y117D01*
X1365Y117D02*
X1366Y117D01*
X1600Y117D02*
X1602Y117D01*
X1749Y117D02*
X1751Y117D01*
X1783Y117D02*
X1785Y117D01*
X1932Y117D02*
X1934Y117D01*
X2070Y117D02*
X2075Y117D01*
X2174Y117D02*
X2177Y117D01*
X2185Y117D02*
X2188Y117D01*
X2192Y117D02*
X2199Y117D01*
X2271Y117D02*
X2274Y117D01*
X3434Y117D02*
X3441Y117D01*
X0Y116D02*
X7Y116D01*
X353Y116D02*
X355Y116D01*
X413Y116D02*
X417Y116D01*
X424Y116D02*
X427Y116D01*
X472Y116D02*
X481Y116D01*
X651Y116D02*
X660Y116D01*
X714Y116D02*
X723Y116D01*
X893Y116D02*
X902Y116D01*
X904Y116D02*
X905Y116D01*
X1052Y116D02*
X1054Y116D01*
X1215Y116D02*
X1216Y116D01*
X1227Y116D02*
X1228Y116D01*
X1365Y116D02*
X1366Y116D01*
X1600Y116D02*
X1602Y116D01*
X1749Y116D02*
X1751Y116D01*
X1783Y116D02*
X1785Y116D01*
X1932Y116D02*
X1934Y116D01*
X2070Y116D02*
X2074Y116D01*
X2174Y116D02*
X2177Y116D01*
X2185Y116D02*
X2188Y116D01*
X2190Y116D02*
X2198Y116D01*
X2271Y116D02*
X2274Y116D01*
X3434Y116D02*
X3441Y116D01*
X0Y115D02*
X7Y115D01*
X353Y115D02*
X355Y115D01*
X413Y115D02*
X417Y115D01*
X424Y115D02*
X427Y115D01*
X472Y115D02*
X481Y115D01*
X651Y115D02*
X660Y115D01*
X714Y115D02*
X723Y115D01*
X893Y115D02*
X901Y115D01*
X904Y115D02*
X905Y115D01*
X1052Y115D02*
X1054Y115D01*
X1215Y115D02*
X1216Y115D01*
X1227Y115D02*
X1228Y115D01*
X1365Y115D02*
X1366Y115D01*
X1600Y115D02*
X1602Y115D01*
X1749Y115D02*
X1751Y115D01*
X1783Y115D02*
X1785Y115D01*
X1932Y115D02*
X1934Y115D01*
X2070Y115D02*
X2074Y115D01*
X2174Y115D02*
X2177Y115D01*
X2185Y115D02*
X2196Y115D01*
X2271Y115D02*
X2301Y115D01*
X3434Y115D02*
X3441Y115D01*
X0Y114D02*
X7Y114D01*
X353Y114D02*
X355Y114D01*
X413Y114D02*
X417Y114D01*
X424Y114D02*
X427Y114D01*
X472Y114D02*
X481Y114D01*
X651Y114D02*
X660Y114D01*
X714Y114D02*
X723Y114D01*
X893Y114D02*
X901Y114D01*
X904Y114D02*
X905Y114D01*
X1052Y114D02*
X1054Y114D01*
X1215Y114D02*
X1216Y114D01*
X1227Y114D02*
X1228Y114D01*
X1365Y114D02*
X1366Y114D01*
X1600Y114D02*
X1602Y114D01*
X1668Y114D02*
X1683Y114D01*
X1749Y114D02*
X1751Y114D01*
X1783Y114D02*
X1785Y114D01*
X1851Y114D02*
X1866Y114D01*
X1932Y114D02*
X1934Y114D01*
X2070Y114D02*
X2074Y114D01*
X2174Y114D02*
X2177Y114D01*
X2185Y114D02*
X2194Y114D01*
X2271Y114D02*
X2301Y114D01*
X3434Y114D02*
X3441Y114D01*
X0Y113D02*
X7Y113D01*
X353Y113D02*
X355Y113D01*
X413Y113D02*
X417Y113D01*
X424Y113D02*
X427Y113D01*
X472Y113D02*
X481Y113D01*
X651Y113D02*
X660Y113D01*
X714Y113D02*
X723Y113D01*
X892Y113D02*
X901Y113D01*
X904Y113D02*
X905Y113D01*
X1052Y113D02*
X1054Y113D01*
X1215Y113D02*
X1216Y113D01*
X1227Y113D02*
X1228Y113D01*
X1365Y113D02*
X1366Y113D01*
X1600Y113D02*
X1751Y113D01*
X1783Y113D02*
X1934Y113D01*
X2070Y113D02*
X2099Y113D01*
X2174Y113D02*
X2177Y113D01*
X2185Y113D02*
X2192Y113D01*
X2271Y113D02*
X2301Y113D01*
X3434Y113D02*
X3441Y113D01*
X0Y112D02*
X7Y112D01*
X353Y112D02*
X355Y112D01*
X413Y112D02*
X417Y112D01*
X424Y112D02*
X427Y112D01*
X473Y112D02*
X481Y112D01*
X651Y112D02*
X660Y112D01*
X714Y112D02*
X723Y112D01*
X892Y112D02*
X901Y112D01*
X904Y112D02*
X905Y112D01*
X1052Y112D02*
X1054Y112D01*
X1215Y112D02*
X1216Y112D01*
X1227Y112D02*
X1228Y112D01*
X1365Y112D02*
X1366Y112D01*
X1600Y112D02*
X1751Y112D01*
X1783Y112D02*
X1934Y112D01*
X2070Y112D02*
X2100Y112D01*
X2174Y112D02*
X2177Y112D01*
X2185Y112D02*
X2191Y112D01*
X2271Y112D02*
X2300Y112D01*
X3434Y112D02*
X3441Y112D01*
X0Y111D02*
X7Y111D01*
X353Y111D02*
X355Y111D01*
X413Y111D02*
X417Y111D01*
X424Y111D02*
X427Y111D01*
X473Y111D02*
X482Y111D01*
X651Y111D02*
X660Y111D01*
X714Y111D02*
X723Y111D01*
X892Y111D02*
X901Y111D01*
X904Y111D02*
X905Y111D01*
X1052Y111D02*
X1054Y111D01*
X1215Y111D02*
X1216Y111D01*
X1227Y111D02*
X1228Y111D01*
X1365Y111D02*
X1366Y111D01*
X1600Y111D02*
X1751Y111D01*
X1783Y111D02*
X1934Y111D01*
X2070Y111D02*
X2101Y111D01*
X2174Y111D02*
X2177Y111D01*
X2185Y111D02*
X2189Y111D01*
X2271Y111D02*
X2274Y111D01*
X3434Y111D02*
X3441Y111D01*
X0Y110D02*
X7Y110D01*
X353Y110D02*
X355Y110D01*
X413Y110D02*
X417Y110D01*
X424Y110D02*
X427Y110D01*
X473Y110D02*
X482Y110D01*
X651Y110D02*
X660Y110D01*
X714Y110D02*
X723Y110D01*
X892Y110D02*
X901Y110D01*
X904Y110D02*
X905Y110D01*
X1052Y110D02*
X1054Y110D01*
X1215Y110D02*
X1216Y110D01*
X1227Y110D02*
X1228Y110D01*
X1365Y110D02*
X1366Y110D01*
X2070Y110D02*
X2100Y110D01*
X2174Y110D02*
X2177Y110D01*
X2185Y110D02*
X2188Y110D01*
X2271Y110D02*
X2274Y110D01*
X3434Y110D02*
X3441Y110D01*
X0Y109D02*
X7Y109D01*
X353Y109D02*
X355Y109D01*
X413Y109D02*
X417Y109D01*
X424Y109D02*
X427Y109D01*
X473Y109D02*
X482Y109D01*
X651Y109D02*
X660Y109D01*
X714Y109D02*
X723Y109D01*
X892Y109D02*
X901Y109D01*
X904Y109D02*
X905Y109D01*
X1052Y109D02*
X1054Y109D01*
X1215Y109D02*
X1216Y109D01*
X1227Y109D02*
X1228Y109D01*
X1365Y109D02*
X1366Y109D01*
X2070Y109D02*
X2098Y109D01*
X2174Y109D02*
X2177Y109D01*
X2185Y109D02*
X2188Y109D01*
X2271Y109D02*
X2274Y109D01*
X3434Y109D02*
X3441Y109D01*
X0Y108D02*
X7Y108D01*
X353Y108D02*
X355Y108D01*
X413Y108D02*
X417Y108D01*
X424Y108D02*
X427Y108D01*
X473Y108D02*
X482Y108D01*
X651Y108D02*
X660Y108D01*
X714Y108D02*
X723Y108D01*
X892Y108D02*
X901Y108D01*
X904Y108D02*
X905Y108D01*
X1052Y108D02*
X1054Y108D01*
X1215Y108D02*
X1216Y108D01*
X1227Y108D02*
X1228Y108D01*
X1365Y108D02*
X1366Y108D01*
X2070Y108D02*
X2074Y108D01*
X2174Y108D02*
X2177Y108D01*
X2185Y108D02*
X2188Y108D01*
X2271Y108D02*
X2274Y108D01*
X3434Y108D02*
X3441Y108D01*
X0Y107D02*
X7Y107D01*
X353Y107D02*
X355Y107D01*
X413Y107D02*
X417Y107D01*
X424Y107D02*
X427Y107D01*
X473Y107D02*
X482Y107D01*
X651Y107D02*
X660Y107D01*
X714Y107D02*
X723Y107D01*
X891Y107D02*
X900Y107D01*
X904Y107D02*
X905Y107D01*
X1052Y107D02*
X1054Y107D01*
X1215Y107D02*
X1216Y107D01*
X1227Y107D02*
X1228Y107D01*
X1365Y107D02*
X1366Y107D01*
X1841Y107D02*
X1842Y107D01*
X1871Y107D02*
X1887Y107D01*
X2070Y107D02*
X2074Y107D01*
X2174Y107D02*
X2204Y107D01*
X2271Y107D02*
X2277Y107D01*
X3434Y107D02*
X3441Y107D01*
X0Y106D02*
X7Y106D01*
X353Y106D02*
X355Y106D01*
X413Y106D02*
X417Y106D01*
X424Y106D02*
X427Y106D01*
X473Y106D02*
X482Y106D01*
X651Y106D02*
X660Y106D01*
X714Y106D02*
X723Y106D01*
X891Y106D02*
X900Y106D01*
X904Y106D02*
X905Y106D01*
X1052Y106D02*
X1054Y106D01*
X1215Y106D02*
X1216Y106D01*
X1227Y106D02*
X1228Y106D01*
X1365Y106D02*
X1366Y106D01*
X1840Y106D02*
X1843Y106D01*
X1870Y106D02*
X1889Y106D01*
X2070Y106D02*
X2074Y106D01*
X2174Y106D02*
X2204Y106D01*
X2271Y106D02*
X2277Y106D01*
X3434Y106D02*
X3441Y106D01*
X0Y105D02*
X7Y105D01*
X353Y105D02*
X355Y105D01*
X413Y105D02*
X417Y105D01*
X424Y105D02*
X427Y105D01*
X474Y105D02*
X483Y105D01*
X651Y105D02*
X660Y105D01*
X714Y105D02*
X723Y105D01*
X891Y105D02*
X900Y105D01*
X904Y105D02*
X905Y105D01*
X1052Y105D02*
X1054Y105D01*
X1215Y105D02*
X1216Y105D01*
X1227Y105D02*
X1228Y105D01*
X1365Y105D02*
X1366Y105D01*
X1840Y105D02*
X1843Y105D01*
X1870Y105D02*
X1890Y105D01*
X2070Y105D02*
X2075Y105D01*
X2174Y105D02*
X2205Y105D01*
X2271Y105D02*
X2277Y105D01*
X3434Y105D02*
X3441Y105D01*
X0Y104D02*
X7Y104D01*
X353Y104D02*
X355Y104D01*
X413Y104D02*
X444Y104D01*
X474Y104D02*
X483Y104D01*
X651Y104D02*
X660Y104D01*
X714Y104D02*
X723Y104D01*
X891Y104D02*
X900Y104D01*
X904Y104D02*
X905Y104D01*
X1052Y104D02*
X1054Y104D01*
X1215Y104D02*
X1216Y104D01*
X1227Y104D02*
X1228Y104D01*
X1365Y104D02*
X1366Y104D01*
X1840Y104D02*
X1843Y104D01*
X1871Y104D02*
X1890Y104D01*
X2070Y104D02*
X2077Y104D01*
X2174Y104D02*
X2204Y104D01*
X2271Y104D02*
X2276Y104D01*
X3434Y104D02*
X3441Y104D01*
X0Y103D02*
X7Y103D01*
X353Y103D02*
X355Y103D01*
X413Y103D02*
X445Y103D01*
X474Y103D02*
X483Y103D01*
X651Y103D02*
X660Y103D01*
X714Y103D02*
X723Y103D01*
X891Y103D02*
X900Y103D01*
X904Y103D02*
X905Y103D01*
X1052Y103D02*
X1054Y103D01*
X1215Y103D02*
X1216Y103D01*
X1227Y103D02*
X1228Y103D01*
X1365Y103D02*
X1366Y103D01*
X1840Y103D02*
X1843Y103D01*
X1887Y103D02*
X1890Y103D01*
X2070Y103D02*
X2077Y103D01*
X3434Y103D02*
X3441Y103D01*
X0Y102D02*
X7Y102D01*
X353Y102D02*
X355Y102D01*
X413Y102D02*
X445Y102D01*
X474Y102D02*
X483Y102D01*
X651Y102D02*
X660Y102D01*
X714Y102D02*
X723Y102D01*
X890Y102D02*
X899Y102D01*
X904Y102D02*
X905Y102D01*
X1052Y102D02*
X1054Y102D01*
X1215Y102D02*
X1216Y102D01*
X1227Y102D02*
X1228Y102D01*
X1365Y102D02*
X1366Y102D01*
X1840Y102D02*
X1843Y102D01*
X1887Y102D02*
X1890Y102D01*
X2070Y102D02*
X2077Y102D01*
X3434Y102D02*
X3441Y102D01*
X0Y101D02*
X7Y101D01*
X353Y101D02*
X355Y101D01*
X413Y101D02*
X444Y101D01*
X475Y101D02*
X484Y101D01*
X651Y101D02*
X660Y101D01*
X714Y101D02*
X723Y101D01*
X890Y101D02*
X899Y101D01*
X904Y101D02*
X905Y101D01*
X1052Y101D02*
X1054Y101D01*
X1215Y101D02*
X1216Y101D01*
X1227Y101D02*
X1228Y101D01*
X1365Y101D02*
X1366Y101D01*
X1840Y101D02*
X1843Y101D01*
X1887Y101D02*
X1890Y101D01*
X3434Y101D02*
X3441Y101D01*
X0Y100D02*
X7Y100D01*
X353Y100D02*
X355Y100D01*
X475Y100D02*
X484Y100D01*
X651Y100D02*
X660Y100D01*
X714Y100D02*
X723Y100D01*
X890Y100D02*
X899Y100D01*
X904Y100D02*
X905Y100D01*
X1052Y100D02*
X1054Y100D01*
X1215Y100D02*
X1216Y100D01*
X1227Y100D02*
X1228Y100D01*
X1365Y100D02*
X1366Y100D01*
X1840Y100D02*
X1843Y100D01*
X1887Y100D02*
X1890Y100D01*
X3434Y100D02*
X3441Y100D01*
X0Y99D02*
X7Y99D01*
X353Y99D02*
X355Y99D01*
X475Y99D02*
X484Y99D01*
X651Y99D02*
X660Y99D01*
X714Y99D02*
X723Y99D01*
X890Y99D02*
X899Y99D01*
X904Y99D02*
X905Y99D01*
X1052Y99D02*
X1054Y99D01*
X1215Y99D02*
X1216Y99D01*
X1227Y99D02*
X1228Y99D01*
X1365Y99D02*
X1366Y99D01*
X1840Y99D02*
X1843Y99D01*
X1887Y99D02*
X1890Y99D01*
X3434Y99D02*
X3441Y99D01*
X0Y98D02*
X7Y98D01*
X353Y98D02*
X355Y98D01*
X475Y98D02*
X484Y98D01*
X651Y98D02*
X660Y98D01*
X714Y98D02*
X723Y98D01*
X889Y98D02*
X898Y98D01*
X904Y98D02*
X905Y98D01*
X1052Y98D02*
X1054Y98D01*
X1215Y98D02*
X1216Y98D01*
X1227Y98D02*
X1228Y98D01*
X1365Y98D02*
X1366Y98D01*
X1840Y98D02*
X1843Y98D01*
X1887Y98D02*
X1890Y98D01*
X3434Y98D02*
X3441Y98D01*
X0Y97D02*
X7Y97D01*
X353Y97D02*
X355Y97D01*
X476Y97D02*
X485Y97D01*
X651Y97D02*
X660Y97D01*
X714Y97D02*
X723Y97D01*
X889Y97D02*
X898Y97D01*
X904Y97D02*
X905Y97D01*
X1052Y97D02*
X1054Y97D01*
X1215Y97D02*
X1216Y97D01*
X1227Y97D02*
X1228Y97D01*
X1365Y97D02*
X1366Y97D01*
X1840Y97D02*
X1843Y97D01*
X1887Y97D02*
X1890Y97D01*
X3434Y97D02*
X3441Y97D01*
X0Y96D02*
X7Y96D01*
X353Y96D02*
X355Y96D01*
X476Y96D02*
X485Y96D01*
X651Y96D02*
X660Y96D01*
X714Y96D02*
X723Y96D01*
X889Y96D02*
X898Y96D01*
X904Y96D02*
X905Y96D01*
X1052Y96D02*
X1054Y96D01*
X1215Y96D02*
X1216Y96D01*
X1227Y96D02*
X1228Y96D01*
X1365Y96D02*
X1366Y96D01*
X1840Y96D02*
X1843Y96D01*
X1887Y96D02*
X1890Y96D01*
X3434Y96D02*
X3441Y96D01*
X0Y95D02*
X7Y95D01*
X353Y95D02*
X355Y95D01*
X476Y95D02*
X485Y95D01*
X651Y95D02*
X660Y95D01*
X714Y95D02*
X723Y95D01*
X888Y95D02*
X898Y95D01*
X904Y95D02*
X905Y95D01*
X1052Y95D02*
X1054Y95D01*
X1215Y95D02*
X1216Y95D01*
X1227Y95D02*
X1228Y95D01*
X1365Y95D02*
X1366Y95D01*
X1840Y95D02*
X1843Y95D01*
X1887Y95D02*
X1890Y95D01*
X3434Y95D02*
X3441Y95D01*
X0Y94D02*
X7Y94D01*
X353Y94D02*
X355Y94D01*
X476Y94D02*
X486Y94D01*
X651Y94D02*
X660Y94D01*
X714Y94D02*
X723Y94D01*
X888Y94D02*
X897Y94D01*
X904Y94D02*
X905Y94D01*
X1052Y94D02*
X1054Y94D01*
X1211Y94D02*
X1216Y94D01*
X1227Y94D02*
X1228Y94D01*
X1365Y94D02*
X1370Y94D01*
X1840Y94D02*
X1843Y94D01*
X1887Y94D02*
X1890Y94D01*
X2283Y94D02*
X2289Y94D01*
X3434Y94D02*
X3441Y94D01*
X0Y93D02*
X7Y93D01*
X353Y93D02*
X355Y93D01*
X477Y93D02*
X486Y93D01*
X651Y93D02*
X660Y93D01*
X714Y93D02*
X723Y93D01*
X888Y93D02*
X897Y93D01*
X904Y93D02*
X905Y93D01*
X1052Y93D02*
X1054Y93D01*
X1211Y93D02*
X1216Y93D01*
X1227Y93D02*
X1228Y93D01*
X1365Y93D02*
X1370Y93D01*
X1840Y93D02*
X1843Y93D01*
X1873Y93D02*
X1890Y93D01*
X2281Y93D02*
X2291Y93D01*
X3434Y93D02*
X3441Y93D01*
X0Y92D02*
X7Y92D01*
X353Y92D02*
X355Y92D01*
X477Y92D02*
X486Y92D01*
X651Y92D02*
X660Y92D01*
X714Y92D02*
X723Y92D01*
X887Y92D02*
X897Y92D01*
X904Y92D02*
X905Y92D01*
X1052Y92D02*
X1054Y92D01*
X1211Y92D02*
X1216Y92D01*
X1227Y92D02*
X1228Y92D01*
X1365Y92D02*
X1370Y92D01*
X1840Y92D02*
X1843Y92D01*
X1872Y92D02*
X1890Y92D01*
X2279Y92D02*
X2293Y92D01*
X3434Y92D02*
X3441Y92D01*
X0Y91D02*
X7Y91D01*
X353Y91D02*
X355Y91D01*
X478Y91D02*
X487Y91D01*
X651Y91D02*
X660Y91D01*
X714Y91D02*
X723Y91D01*
X887Y91D02*
X896Y91D01*
X904Y91D02*
X905Y91D01*
X1052Y91D02*
X1054Y91D01*
X1211Y91D02*
X1216Y91D01*
X1227Y91D02*
X1228Y91D01*
X1365Y91D02*
X1370Y91D01*
X1840Y91D02*
X1843Y91D01*
X1871Y91D02*
X1889Y91D01*
X2277Y91D02*
X2295Y91D01*
X3434Y91D02*
X3441Y91D01*
X0Y90D02*
X7Y90D01*
X353Y90D02*
X355Y90D01*
X478Y90D02*
X487Y90D01*
X651Y90D02*
X660Y90D01*
X714Y90D02*
X723Y90D01*
X887Y90D02*
X896Y90D01*
X904Y90D02*
X905Y90D01*
X1052Y90D02*
X1054Y90D01*
X1211Y90D02*
X1216Y90D01*
X1227Y90D02*
X1228Y90D01*
X1365Y90D02*
X1370Y90D01*
X1840Y90D02*
X1843Y90D01*
X1870Y90D02*
X1888Y90D01*
X2275Y90D02*
X2283Y90D01*
X2289Y90D02*
X2297Y90D01*
X3434Y90D02*
X3441Y90D01*
X0Y89D02*
X7Y89D01*
X353Y89D02*
X355Y89D01*
X478Y89D02*
X488Y89D01*
X651Y89D02*
X660Y89D01*
X714Y89D02*
X723Y89D01*
X886Y89D02*
X895Y89D01*
X904Y89D02*
X905Y89D01*
X1052Y89D02*
X1054Y89D01*
X1211Y89D02*
X1216Y89D01*
X1227Y89D02*
X1228Y89D01*
X1365Y89D02*
X1370Y89D01*
X1840Y89D02*
X1843Y89D01*
X1870Y89D02*
X1874Y89D01*
X2273Y89D02*
X2281Y89D01*
X2291Y89D02*
X2299Y89D01*
X3434Y89D02*
X3441Y89D01*
X0Y88D02*
X7Y88D01*
X353Y88D02*
X355Y88D01*
X479Y88D02*
X488Y88D01*
X651Y88D02*
X660Y88D01*
X714Y88D02*
X723Y88D01*
X886Y88D02*
X895Y88D01*
X904Y88D02*
X905Y88D01*
X1052Y88D02*
X1054Y88D01*
X1211Y88D02*
X1216Y88D01*
X1227Y88D02*
X1228Y88D01*
X1365Y88D02*
X1370Y88D01*
X1840Y88D02*
X1843Y88D01*
X1870Y88D02*
X1874Y88D01*
X2272Y88D02*
X2279Y88D01*
X2293Y88D02*
X2300Y88D01*
X3434Y88D02*
X3441Y88D01*
X0Y87D02*
X7Y87D01*
X353Y87D02*
X355Y87D01*
X479Y87D02*
X489Y87D01*
X651Y87D02*
X660Y87D01*
X714Y87D02*
X723Y87D01*
X885Y87D02*
X895Y87D01*
X904Y87D02*
X905Y87D01*
X1052Y87D02*
X1054Y87D01*
X1211Y87D02*
X1216Y87D01*
X1227Y87D02*
X1228Y87D01*
X1365Y87D02*
X1370Y87D01*
X1840Y87D02*
X1843Y87D01*
X1870Y87D02*
X1874Y87D01*
X2272Y87D02*
X2277Y87D01*
X2295Y87D02*
X2301Y87D01*
X3434Y87D02*
X3441Y87D01*
X0Y86D02*
X7Y86D01*
X353Y86D02*
X355Y86D01*
X479Y86D02*
X489Y86D01*
X651Y86D02*
X660Y86D01*
X714Y86D02*
X723Y86D01*
X885Y86D02*
X894Y86D01*
X904Y86D02*
X905Y86D01*
X1052Y86D02*
X1054Y86D01*
X1211Y86D02*
X1216Y86D01*
X1227Y86D02*
X1228Y86D01*
X1365Y86D02*
X1370Y86D01*
X1840Y86D02*
X1843Y86D01*
X1870Y86D02*
X1874Y86D01*
X2271Y86D02*
X2275Y86D01*
X2297Y86D02*
X2301Y86D01*
X3434Y86D02*
X3441Y86D01*
X0Y85D02*
X7Y85D01*
X353Y85D02*
X355Y85D01*
X480Y85D02*
X489Y85D01*
X651Y85D02*
X660Y85D01*
X714Y85D02*
X723Y85D01*
X884Y85D02*
X894Y85D01*
X904Y85D02*
X905Y85D01*
X1052Y85D02*
X1054Y85D01*
X1211Y85D02*
X1216Y85D01*
X1227Y85D02*
X1228Y85D01*
X1365Y85D02*
X1370Y85D01*
X1840Y85D02*
X1843Y85D01*
X1870Y85D02*
X1874Y85D01*
X2271Y85D02*
X2274Y85D01*
X2298Y85D02*
X2301Y85D01*
X3434Y85D02*
X3441Y85D01*
X0Y84D02*
X7Y84D01*
X353Y84D02*
X355Y84D01*
X480Y84D02*
X490Y84D01*
X651Y84D02*
X660Y84D01*
X714Y84D02*
X723Y84D01*
X884Y84D02*
X893Y84D01*
X904Y84D02*
X905Y84D01*
X1052Y84D02*
X1054Y84D01*
X1211Y84D02*
X1216Y84D01*
X1227Y84D02*
X1228Y84D01*
X1365Y84D02*
X1370Y84D01*
X1840Y84D02*
X1843Y84D01*
X1870Y84D02*
X1874Y84D01*
X2271Y84D02*
X2274Y84D01*
X2298Y84D02*
X2301Y84D01*
X3434Y84D02*
X3441Y84D01*
X0Y83D02*
X7Y83D01*
X353Y83D02*
X355Y83D01*
X481Y83D02*
X490Y83D01*
X651Y83D02*
X660Y83D01*
X714Y83D02*
X722Y83D01*
X883Y83D02*
X893Y83D01*
X904Y83D02*
X905Y83D01*
X1052Y83D02*
X1054Y83D01*
X1211Y83D02*
X1216Y83D01*
X1227Y83D02*
X1228Y83D01*
X1365Y83D02*
X1370Y83D01*
X1840Y83D02*
X1843Y83D01*
X1870Y83D02*
X1874Y83D01*
X2271Y83D02*
X2274Y83D01*
X2298Y83D02*
X2301Y83D01*
X3434Y83D02*
X3441Y83D01*
X0Y82D02*
X7Y82D01*
X353Y82D02*
X355Y82D01*
X481Y82D02*
X491Y82D01*
X652Y82D02*
X659Y82D01*
X715Y82D02*
X722Y82D01*
X883Y82D02*
X892Y82D01*
X904Y82D02*
X905Y82D01*
X1052Y82D02*
X1054Y82D01*
X1211Y82D02*
X1216Y82D01*
X1227Y82D02*
X1228Y82D01*
X1365Y82D02*
X1370Y82D01*
X1840Y82D02*
X1843Y82D01*
X1870Y82D02*
X1874Y82D01*
X2271Y82D02*
X2301Y82D01*
X3434Y82D02*
X3441Y82D01*
X0Y81D02*
X7Y81D01*
X353Y81D02*
X355Y81D01*
X482Y81D02*
X491Y81D01*
X652Y81D02*
X658Y81D01*
X715Y81D02*
X721Y81D01*
X882Y81D02*
X892Y81D01*
X904Y81D02*
X905Y81D01*
X1052Y81D02*
X1054Y81D01*
X1211Y81D02*
X1216Y81D01*
X1227Y81D02*
X1228Y81D01*
X1365Y81D02*
X1370Y81D01*
X1840Y81D02*
X1843Y81D01*
X1870Y81D02*
X1874Y81D01*
X2271Y81D02*
X2301Y81D01*
X3434Y81D02*
X3441Y81D01*
X0Y80D02*
X7Y80D01*
X353Y80D02*
X355Y80D01*
X482Y80D02*
X492Y80D01*
X654Y80D02*
X657Y80D01*
X717Y80D02*
X720Y80D01*
X882Y80D02*
X892Y80D01*
X904Y80D02*
X905Y80D01*
X1052Y80D02*
X1054Y80D01*
X1215Y80D02*
X1216Y80D01*
X1227Y80D02*
X1228Y80D01*
X1365Y80D02*
X1366Y80D01*
X1840Y80D02*
X1843Y80D01*
X1870Y80D02*
X1874Y80D01*
X2271Y80D02*
X2301Y80D01*
X3434Y80D02*
X3441Y80D01*
X0Y79D02*
X7Y79D01*
X353Y79D02*
X355Y79D01*
X483Y79D02*
X493Y79D01*
X881Y79D02*
X891Y79D01*
X904Y79D02*
X905Y79D01*
X1052Y79D02*
X1054Y79D01*
X1215Y79D02*
X1216Y79D01*
X1227Y79D02*
X1228Y79D01*
X1365Y79D02*
X1366Y79D01*
X1840Y79D02*
X1858Y79D01*
X1870Y79D02*
X1889Y79D01*
X2271Y79D02*
X2301Y79D01*
X3434Y79D02*
X3441Y79D01*
X0Y78D02*
X7Y78D01*
X353Y78D02*
X355Y78D01*
X483Y78D02*
X493Y78D01*
X880Y78D02*
X891Y78D01*
X904Y78D02*
X905Y78D01*
X1052Y78D02*
X1054Y78D01*
X1215Y78D02*
X1216Y78D01*
X1227Y78D02*
X1228Y78D01*
X1365Y78D02*
X1366Y78D01*
X1840Y78D02*
X1860Y78D01*
X1870Y78D02*
X1890Y78D01*
X2271Y78D02*
X2274Y78D01*
X2298Y78D02*
X2301Y78D01*
X3434Y78D02*
X3441Y78D01*
X0Y77D02*
X7Y77D01*
X353Y77D02*
X355Y77D01*
X484Y77D02*
X494Y77D01*
X880Y77D02*
X890Y77D01*
X904Y77D02*
X905Y77D01*
X1052Y77D02*
X1054Y77D01*
X1215Y77D02*
X1216Y77D01*
X1227Y77D02*
X1228Y77D01*
X1365Y77D02*
X1366Y77D01*
X1840Y77D02*
X1860Y77D01*
X1870Y77D02*
X1890Y77D01*
X2271Y77D02*
X2274Y77D01*
X2298Y77D02*
X2301Y77D01*
X3434Y77D02*
X3441Y77D01*
X0Y76D02*
X7Y76D01*
X351Y76D02*
X355Y76D01*
X484Y76D02*
X494Y76D01*
X879Y76D02*
X890Y76D01*
X904Y76D02*
X905Y76D01*
X1052Y76D02*
X1054Y76D01*
X1215Y76D02*
X1216Y76D01*
X1227Y76D02*
X1228Y76D01*
X1365Y76D02*
X1366Y76D01*
X1840Y76D02*
X1860Y76D01*
X1870Y76D02*
X1890Y76D01*
X2271Y76D02*
X2274Y76D01*
X2298Y76D02*
X2301Y76D01*
X3434Y76D02*
X3441Y76D01*
X0Y75D02*
X7Y75D01*
X351Y75D02*
X355Y75D01*
X485Y75D02*
X495Y75D01*
X879Y75D02*
X889Y75D01*
X904Y75D02*
X905Y75D01*
X1052Y75D02*
X1054Y75D01*
X1215Y75D02*
X1216Y75D01*
X1227Y75D02*
X1228Y75D01*
X1365Y75D02*
X1366Y75D01*
X1841Y75D02*
X1858Y75D01*
X1871Y75D02*
X1888Y75D01*
X2272Y75D02*
X2273Y75D01*
X2300Y75D02*
X2300Y75D01*
X3434Y75D02*
X3441Y75D01*
X0Y74D02*
X7Y74D01*
X351Y74D02*
X355Y74D01*
X485Y74D02*
X496Y74D01*
X878Y74D02*
X888Y74D01*
X904Y74D02*
X905Y74D01*
X1052Y74D02*
X1054Y74D01*
X1215Y74D02*
X1216Y74D01*
X1227Y74D02*
X1228Y74D01*
X1365Y74D02*
X1366Y74D01*
X3434Y74D02*
X3441Y74D01*
X0Y73D02*
X7Y73D01*
X351Y73D02*
X355Y73D01*
X486Y73D02*
X497Y73D01*
X877Y73D02*
X888Y73D01*
X904Y73D02*
X905Y73D01*
X1052Y73D02*
X1054Y73D01*
X1215Y73D02*
X1216Y73D01*
X1227Y73D02*
X1228Y73D01*
X1365Y73D02*
X1366Y73D01*
X3434Y73D02*
X3441Y73D01*
X0Y72D02*
X7Y72D01*
X351Y72D02*
X355Y72D01*
X487Y72D02*
X497Y72D01*
X876Y72D02*
X887Y72D01*
X904Y72D02*
X905Y72D01*
X1052Y72D02*
X1054Y72D01*
X1215Y72D02*
X1216Y72D01*
X1227Y72D02*
X1228Y72D01*
X1365Y72D02*
X1366Y72D01*
X3434Y72D02*
X3441Y72D01*
X0Y71D02*
X7Y71D01*
X351Y71D02*
X355Y71D01*
X487Y71D02*
X498Y71D01*
X876Y71D02*
X887Y71D01*
X904Y71D02*
X905Y71D01*
X1052Y71D02*
X1054Y71D01*
X1215Y71D02*
X1216Y71D01*
X1227Y71D02*
X1228Y71D01*
X1365Y71D02*
X1366Y71D01*
X3434Y71D02*
X3441Y71D01*
X0Y70D02*
X7Y70D01*
X351Y70D02*
X355Y70D01*
X488Y70D02*
X499Y70D01*
X875Y70D02*
X886Y70D01*
X904Y70D02*
X905Y70D01*
X1052Y70D02*
X1054Y70D01*
X1215Y70D02*
X1216Y70D01*
X1227Y70D02*
X1228Y70D01*
X1365Y70D02*
X1366Y70D01*
X3434Y70D02*
X3441Y70D01*
X0Y69D02*
X7Y69D01*
X351Y69D02*
X355Y69D01*
X488Y69D02*
X499Y69D01*
X874Y69D02*
X885Y69D01*
X904Y69D02*
X905Y69D01*
X1052Y69D02*
X1054Y69D01*
X1215Y69D02*
X1216Y69D01*
X1227Y69D02*
X1228Y69D01*
X1365Y69D02*
X1366Y69D01*
X3434Y69D02*
X3441Y69D01*
X0Y68D02*
X7Y68D01*
X351Y68D02*
X355Y68D01*
X489Y68D02*
X500Y68D01*
X873Y68D02*
X885Y68D01*
X904Y68D02*
X905Y68D01*
X1052Y68D02*
X1054Y68D01*
X1215Y68D02*
X1216Y68D01*
X1227Y68D02*
X1228Y68D01*
X1365Y68D02*
X1366Y68D01*
X3434Y68D02*
X3441Y68D01*
X0Y67D02*
X7Y67D01*
X351Y67D02*
X355Y67D01*
X490Y67D02*
X501Y67D01*
X873Y67D02*
X884Y67D01*
X904Y67D02*
X905Y67D01*
X1052Y67D02*
X1054Y67D01*
X1215Y67D02*
X1216Y67D01*
X1227Y67D02*
X1228Y67D01*
X1365Y67D02*
X1366Y67D01*
X3434Y67D02*
X3441Y67D01*
X0Y66D02*
X7Y66D01*
X351Y66D02*
X355Y66D01*
X491Y66D02*
X502Y66D01*
X872Y66D02*
X883Y66D01*
X904Y66D02*
X905Y66D01*
X1052Y66D02*
X1054Y66D01*
X1215Y66D02*
X1216Y66D01*
X1227Y66D02*
X1228Y66D01*
X1365Y66D02*
X1366Y66D01*
X3434Y66D02*
X3441Y66D01*
X0Y65D02*
X7Y65D01*
X351Y65D02*
X355Y65D01*
X491Y65D02*
X503Y65D01*
X871Y65D02*
X882Y65D01*
X904Y65D02*
X905Y65D01*
X1052Y65D02*
X1054Y65D01*
X1215Y65D02*
X1216Y65D01*
X1227Y65D02*
X1228Y65D01*
X1365Y65D02*
X1366Y65D01*
X3434Y65D02*
X3441Y65D01*
X0Y64D02*
X7Y64D01*
X351Y64D02*
X355Y64D01*
X492Y64D02*
X504Y64D01*
X870Y64D02*
X882Y64D01*
X904Y64D02*
X905Y64D01*
X1052Y64D02*
X1054Y64D01*
X1215Y64D02*
X1216Y64D01*
X1227Y64D02*
X1228Y64D01*
X1365Y64D02*
X1366Y64D01*
X3434Y64D02*
X3441Y64D01*
X0Y63D02*
X7Y63D01*
X351Y63D02*
X355Y63D01*
X493Y63D02*
X505Y63D01*
X869Y63D02*
X881Y63D01*
X904Y63D02*
X905Y63D01*
X1052Y63D02*
X1054Y63D01*
X1215Y63D02*
X1216Y63D01*
X1227Y63D02*
X1228Y63D01*
X1365Y63D02*
X1366Y63D01*
X3434Y63D02*
X3441Y63D01*
X0Y62D02*
X7Y62D01*
X351Y62D02*
X355Y62D01*
X493Y62D02*
X506Y62D01*
X868Y62D02*
X880Y62D01*
X904Y62D02*
X905Y62D01*
X1052Y62D02*
X1054Y62D01*
X1215Y62D02*
X1216Y62D01*
X1227Y62D02*
X1228Y62D01*
X1365Y62D02*
X1366Y62D01*
X3434Y62D02*
X3441Y62D01*
X0Y61D02*
X7Y61D01*
X351Y61D02*
X355Y61D01*
X494Y61D02*
X507Y61D01*
X867Y61D02*
X879Y61D01*
X904Y61D02*
X905Y61D01*
X1052Y61D02*
X1054Y61D01*
X1215Y61D02*
X1216Y61D01*
X1227Y61D02*
X1228Y61D01*
X1365Y61D02*
X1366Y61D01*
X3434Y61D02*
X3441Y61D01*
X0Y60D02*
X7Y60D01*
X351Y60D02*
X355Y60D01*
X495Y60D02*
X508Y60D01*
X866Y60D02*
X879Y60D01*
X904Y60D02*
X905Y60D01*
X1052Y60D02*
X1054Y60D01*
X1215Y60D02*
X1216Y60D01*
X1227Y60D02*
X1228Y60D01*
X1365Y60D02*
X1366Y60D01*
X3434Y60D02*
X3441Y60D01*
X0Y59D02*
X7Y59D01*
X351Y59D02*
X355Y59D01*
X496Y59D02*
X509Y59D01*
X865Y59D02*
X878Y59D01*
X904Y59D02*
X905Y59D01*
X1052Y59D02*
X1054Y59D01*
X1215Y59D02*
X1216Y59D01*
X1227Y59D02*
X1228Y59D01*
X1365Y59D02*
X1366Y59D01*
X3434Y59D02*
X3441Y59D01*
X0Y58D02*
X7Y58D01*
X351Y58D02*
X355Y58D01*
X497Y58D02*
X510Y58D01*
X864Y58D02*
X877Y58D01*
X904Y58D02*
X905Y58D01*
X1052Y58D02*
X1054Y58D01*
X1215Y58D02*
X1216Y58D01*
X1227Y58D02*
X1228Y58D01*
X1365Y58D02*
X1366Y58D01*
X3434Y58D02*
X3441Y58D01*
X0Y57D02*
X7Y57D01*
X351Y57D02*
X355Y57D01*
X498Y57D02*
X511Y57D01*
X863Y57D02*
X876Y57D01*
X904Y57D02*
X905Y57D01*
X1052Y57D02*
X1054Y57D01*
X1215Y57D02*
X1216Y57D01*
X1227Y57D02*
X1228Y57D01*
X1365Y57D02*
X1366Y57D01*
X3434Y57D02*
X3441Y57D01*
X0Y56D02*
X7Y56D01*
X351Y56D02*
X355Y56D01*
X499Y56D02*
X512Y56D01*
X862Y56D02*
X875Y56D01*
X904Y56D02*
X905Y56D01*
X1052Y56D02*
X1054Y56D01*
X1215Y56D02*
X1216Y56D01*
X1227Y56D02*
X1228Y56D01*
X1365Y56D02*
X1366Y56D01*
X3434Y56D02*
X3441Y56D01*
X0Y55D02*
X7Y55D01*
X351Y55D02*
X355Y55D01*
X500Y55D02*
X513Y55D01*
X860Y55D02*
X874Y55D01*
X904Y55D02*
X905Y55D01*
X1052Y55D02*
X1054Y55D01*
X1215Y55D02*
X1216Y55D01*
X1227Y55D02*
X1228Y55D01*
X1365Y55D02*
X1366Y55D01*
X3434Y55D02*
X3441Y55D01*
X0Y54D02*
X7Y54D01*
X351Y54D02*
X355Y54D01*
X501Y54D02*
X515Y54D01*
X859Y54D02*
X873Y54D01*
X904Y54D02*
X905Y54D01*
X972Y54D02*
X986Y54D01*
X1052Y54D02*
X1054Y54D01*
X1215Y54D02*
X1216Y54D01*
X1227Y54D02*
X1228Y54D01*
X1365Y54D02*
X1366Y54D01*
X3434Y54D02*
X3441Y54D01*
X0Y53D02*
X7Y53D01*
X351Y53D02*
X355Y53D01*
X502Y53D02*
X516Y53D01*
X858Y53D02*
X872Y53D01*
X904Y53D02*
X1054Y53D01*
X1215Y53D02*
X1216Y53D01*
X1227Y53D02*
X1228Y53D01*
X1365Y53D02*
X1366Y53D01*
X3434Y53D02*
X3441Y53D01*
X0Y52D02*
X7Y52D01*
X351Y52D02*
X355Y52D01*
X503Y52D02*
X517Y52D01*
X857Y52D02*
X871Y52D01*
X904Y52D02*
X1054Y52D01*
X1215Y52D02*
X1216Y52D01*
X1227Y52D02*
X1228Y52D01*
X1365Y52D02*
X1366Y52D01*
X3434Y52D02*
X3441Y52D01*
X0Y51D02*
X7Y51D01*
X351Y51D02*
X355Y51D01*
X504Y51D02*
X519Y51D01*
X855Y51D02*
X870Y51D01*
X904Y51D02*
X1054Y51D01*
X1215Y51D02*
X1216Y51D01*
X1227Y51D02*
X1228Y51D01*
X1365Y51D02*
X1366Y51D01*
X3434Y51D02*
X3441Y51D01*
X0Y50D02*
X7Y50D01*
X351Y50D02*
X355Y50D01*
X505Y50D02*
X520Y50D01*
X854Y50D02*
X869Y50D01*
X1215Y50D02*
X1216Y50D01*
X1227Y50D02*
X1228Y50D01*
X1364Y50D02*
X1366Y50D01*
X3434Y50D02*
X3441Y50D01*
X0Y49D02*
X7Y49D01*
X351Y49D02*
X355Y49D01*
X506Y49D02*
X522Y49D01*
X852Y49D02*
X868Y49D01*
X1215Y49D02*
X1216Y49D01*
X1227Y49D02*
X1228Y49D01*
X1364Y49D02*
X1366Y49D01*
X3434Y49D02*
X3441Y49D01*
X0Y48D02*
X7Y48D01*
X351Y48D02*
X355Y48D01*
X507Y48D02*
X523Y48D01*
X850Y48D02*
X866Y48D01*
X1215Y48D02*
X1217Y48D01*
X1227Y48D02*
X1228Y48D01*
X1364Y48D02*
X1366Y48D01*
X3434Y48D02*
X3441Y48D01*
X0Y47D02*
X7Y47D01*
X351Y47D02*
X355Y47D01*
X509Y47D02*
X525Y47D01*
X849Y47D02*
X865Y47D01*
X1215Y47D02*
X1217Y47D01*
X1227Y47D02*
X1228Y47D01*
X1363Y47D02*
X1366Y47D01*
X3434Y47D02*
X3441Y47D01*
X0Y46D02*
X7Y46D01*
X351Y46D02*
X355Y46D01*
X510Y46D02*
X527Y46D01*
X847Y46D02*
X864Y46D01*
X1215Y46D02*
X1218Y46D01*
X1227Y46D02*
X1228Y46D01*
X1363Y46D02*
X1366Y46D01*
X3434Y46D02*
X3441Y46D01*
X0Y45D02*
X7Y45D01*
X351Y45D02*
X355Y45D01*
X511Y45D02*
X529Y45D01*
X845Y45D02*
X862Y45D01*
X1215Y45D02*
X1218Y45D01*
X1227Y45D02*
X1228Y45D01*
X1362Y45D02*
X1366Y45D01*
X3434Y45D02*
X3441Y45D01*
X0Y44D02*
X7Y44D01*
X351Y44D02*
X355Y44D01*
X513Y44D02*
X531Y44D01*
X843Y44D02*
X861Y44D01*
X971Y44D02*
X980Y44D01*
X996Y44D02*
X1010Y44D01*
X1213Y44D02*
X1219Y44D01*
X1227Y44D02*
X1228Y44D01*
X1361Y44D02*
X1367Y44D01*
X3434Y44D02*
X3441Y44D01*
X0Y43D02*
X7Y43D01*
X351Y43D02*
X355Y43D01*
X514Y43D02*
X533Y43D01*
X841Y43D02*
X860Y43D01*
X969Y43D02*
X981Y43D01*
X996Y43D02*
X1011Y43D01*
X1214Y43D02*
X1220Y43D01*
X1227Y43D02*
X1228Y43D01*
X1360Y43D02*
X1367Y43D01*
X3434Y43D02*
X3441Y43D01*
X0Y42D02*
X7Y42D01*
X351Y42D02*
X355Y42D01*
X516Y42D02*
X535Y42D01*
X838Y42D02*
X858Y42D01*
X968Y42D02*
X981Y42D01*
X996Y42D02*
X1011Y42D01*
X1215Y42D02*
X1222Y42D01*
X1227Y42D02*
X1228Y42D01*
X1358Y42D02*
X1366Y42D01*
X3434Y42D02*
X3441Y42D01*
X0Y41D02*
X7Y41D01*
X351Y41D02*
X355Y41D01*
X517Y41D02*
X538Y41D01*
X836Y41D02*
X857Y41D01*
X967Y41D02*
X981Y41D01*
X996Y41D02*
X1011Y41D01*
X1215Y41D02*
X1225Y41D01*
X1227Y41D02*
X1228Y41D01*
X1355Y41D02*
X1365Y41D01*
X3434Y41D02*
X3441Y41D01*
X0Y40D02*
X7Y40D01*
X351Y40D02*
X355Y40D01*
X519Y40D02*
X541Y40D01*
X833Y40D02*
X855Y40D01*
X966Y40D02*
X980Y40D01*
X996Y40D02*
X1010Y40D01*
X1216Y40D02*
X1228Y40D01*
X1353Y40D02*
X1364Y40D01*
X3434Y40D02*
X3441Y40D01*
X0Y39D02*
X7Y39D01*
X351Y39D02*
X355Y39D01*
X520Y39D02*
X545Y39D01*
X829Y39D02*
X853Y39D01*
X966Y39D02*
X970Y39D01*
X996Y39D02*
X999Y39D01*
X1218Y39D02*
X1228Y39D01*
X1353Y39D02*
X1363Y39D01*
X3434Y39D02*
X3441Y39D01*
X0Y38D02*
X7Y38D01*
X351Y38D02*
X355Y38D01*
X522Y38D02*
X549Y38D01*
X825Y38D02*
X852Y38D01*
X966Y38D02*
X969Y38D01*
X996Y38D02*
X999Y38D01*
X1219Y38D02*
X1228Y38D01*
X1353Y38D02*
X1362Y38D01*
X3434Y38D02*
X3441Y38D01*
X0Y37D02*
X7Y37D01*
X351Y37D02*
X355Y37D01*
X524Y37D02*
X554Y37D01*
X819Y37D02*
X850Y37D01*
X965Y37D02*
X969Y37D01*
X996Y37D02*
X999Y37D01*
X1220Y37D02*
X1228Y37D01*
X1353Y37D02*
X1360Y37D01*
X3434Y37D02*
X3441Y37D01*
X0Y36D02*
X7Y36D01*
X351Y36D02*
X355Y36D01*
X526Y36D02*
X848Y36D01*
X965Y36D02*
X968Y36D01*
X996Y36D02*
X999Y36D01*
X1223Y36D02*
X1228Y36D01*
X1353Y36D02*
X1358Y36D01*
X3434Y36D02*
X3441Y36D01*
X0Y35D02*
X7Y35D01*
X351Y35D02*
X355Y35D01*
X528Y35D02*
X845Y35D01*
X964Y35D02*
X968Y35D01*
X996Y35D02*
X999Y35D01*
X1226Y35D02*
X1228Y35D01*
X1353Y35D02*
X1354Y35D01*
X3434Y35D02*
X3441Y35D01*
X0Y34D02*
X7Y34D01*
X351Y34D02*
X355Y34D01*
X530Y34D02*
X843Y34D01*
X964Y34D02*
X967Y34D01*
X996Y34D02*
X999Y34D01*
X3434Y34D02*
X3441Y34D01*
X0Y33D02*
X7Y33D01*
X351Y33D02*
X355Y33D01*
X533Y33D02*
X841Y33D01*
X963Y33D02*
X967Y33D01*
X996Y33D02*
X999Y33D01*
X3434Y33D02*
X3441Y33D01*
X0Y32D02*
X7Y32D01*
X351Y32D02*
X355Y32D01*
X536Y32D02*
X838Y32D01*
X963Y32D02*
X966Y32D01*
X996Y32D02*
X999Y32D01*
X3434Y32D02*
X3441Y32D01*
X0Y31D02*
X7Y31D01*
X351Y31D02*
X355Y31D01*
X538Y31D02*
X835Y31D01*
X962Y31D02*
X966Y31D01*
X996Y31D02*
X999Y31D01*
X3434Y31D02*
X3441Y31D01*
X0Y30D02*
X7Y30D01*
X351Y30D02*
X355Y30D01*
X542Y30D02*
X832Y30D01*
X962Y30D02*
X965Y30D01*
X996Y30D02*
X1007Y30D01*
X3434Y30D02*
X3441Y30D01*
X0Y29D02*
X7Y29D01*
X351Y29D02*
X355Y29D01*
X545Y29D02*
X828Y29D01*
X962Y29D02*
X965Y29D01*
X996Y29D02*
X1010Y29D01*
X3434Y29D02*
X3441Y29D01*
X0Y28D02*
X7Y28D01*
X351Y28D02*
X355Y28D01*
X550Y28D02*
X824Y28D01*
X962Y28D02*
X965Y28D01*
X996Y28D02*
X1011Y28D01*
X3434Y28D02*
X3441Y28D01*
X0Y27D02*
X7Y27D01*
X351Y27D02*
X355Y27D01*
X556Y27D02*
X817Y27D01*
X962Y27D02*
X965Y27D01*
X996Y27D02*
X1011Y27D01*
X3434Y27D02*
X3441Y27D01*
X0Y26D02*
X7Y26D01*
X351Y26D02*
X355Y26D01*
X962Y26D02*
X965Y26D01*
X996Y26D02*
X1011Y26D01*
X3434Y26D02*
X3441Y26D01*
X0Y25D02*
X7Y25D01*
X351Y25D02*
X355Y25D01*
X962Y25D02*
X966Y25D01*
X1008Y25D02*
X1012Y25D01*
X3434Y25D02*
X3441Y25D01*
X0Y24D02*
X7Y24D01*
X351Y24D02*
X355Y24D01*
X962Y24D02*
X966Y24D01*
X1008Y24D02*
X1012Y24D01*
X3434Y24D02*
X3441Y24D01*
X0Y23D02*
X7Y23D01*
X351Y23D02*
X355Y23D01*
X963Y23D02*
X967Y23D01*
X1008Y23D02*
X1012Y23D01*
X3434Y23D02*
X3441Y23D01*
X0Y22D02*
X7Y22D01*
X351Y22D02*
X355Y22D01*
X963Y22D02*
X967Y22D01*
X1008Y22D02*
X1012Y22D01*
X3434Y22D02*
X3441Y22D01*
X0Y21D02*
X7Y21D01*
X351Y21D02*
X355Y21D01*
X964Y21D02*
X968Y21D01*
X1008Y21D02*
X1012Y21D01*
X3434Y21D02*
X3441Y21D01*
X0Y20D02*
X7Y20D01*
X351Y20D02*
X355Y20D01*
X964Y20D02*
X968Y20D01*
X1008Y20D02*
X1012Y20D01*
X3434Y20D02*
X3441Y20D01*
X0Y19D02*
X7Y19D01*
X351Y19D02*
X355Y19D01*
X965Y19D02*
X969Y19D01*
X1008Y19D02*
X1012Y19D01*
X3434Y19D02*
X3441Y19D01*
X0Y18D02*
X7Y18D01*
X351Y18D02*
X355Y18D01*
X965Y18D02*
X969Y18D01*
X1008Y18D02*
X1012Y18D01*
X3434Y18D02*
X3441Y18D01*
X0Y17D02*
X7Y17D01*
X351Y17D02*
X355Y17D01*
X966Y17D02*
X970Y17D01*
X992Y17D02*
X995Y17D01*
X1008Y17D02*
X1012Y17D01*
X3434Y17D02*
X3441Y17D01*
X0Y16D02*
X7Y16D01*
X351Y16D02*
X355Y16D01*
X966Y16D02*
X971Y16D01*
X992Y16D02*
X997Y16D01*
X1008Y16D02*
X1011Y16D01*
X3434Y16D02*
X3441Y16D01*
X0Y15D02*
X7Y15D01*
X351Y15D02*
X355Y15D01*
X967Y15D02*
X981Y15D01*
X992Y15D02*
X1011Y15D01*
X3434Y15D02*
X3441Y15D01*
X0Y14D02*
X7Y14D01*
X351Y14D02*
X355Y14D01*
X968Y14D02*
X981Y14D01*
X992Y14D02*
X1011Y14D01*
X3434Y14D02*
X3441Y14D01*
X0Y13D02*
X7Y13D01*
X351Y13D02*
X355Y13D01*
X969Y13D02*
X981Y13D01*
X994Y13D02*
X1010Y13D01*
X3434Y13D02*
X3441Y13D01*
X0Y12D02*
X7Y12D01*
X351Y12D02*
X355Y12D01*
X971Y12D02*
X980Y12D01*
X997Y12D02*
X1009Y12D01*
X3434Y12D02*
X3441Y12D01*
X0Y11D02*
X7Y11D01*
X352Y11D02*
X355Y11D01*
X3434Y11D02*
X3441Y11D01*
X0Y10D02*
X7Y10D01*
X353Y10D02*
X354Y10D01*
X3434Y10D02*
X3441Y10D01*
X0Y9D02*
X7Y9D01*
X3434Y9D02*
X3441Y9D01*
X0Y8D02*
X3441Y8D01*
X0Y7D02*
X3441Y7D01*
X0Y6D02*
X3441Y6D01*
X0Y5D02*
X3441Y5D01*
X0Y4D02*
X3441Y4D01*
X0Y3D02*
X3441Y3D01*
X0Y2D02*
X3441Y2D01*
X0Y1D02*
X3441Y1D01*
D02*
G04 End of Silk1*
M02*