G04 MADE WITH FRITZING*
G04 WWW.FRITZING.ORG*
G04 DOUBLE SIDED*
G04 HOLES PLATED*
G04 CONTOUR ON CENTER OF CONTOUR VECTOR*
%ASAXBY*%
%FSLAX23Y23*%
%MOIN*%
%OFA0B0*%
%SFA1.0B1.0*%
%ADD10C,0.080925*%
%ADD11C,0.080866*%
%ADD12C,0.085000*%
%ADD13C,0.088000*%
%ADD14C,0.049370*%
%ADD15R,0.090000X0.036000*%
%ADD16R,0.065118X0.069055*%
%ADD17R,0.305276X0.069055*%
%ADD18R,0.265906X0.049370*%
%ADD19C,0.010000*%
%ADD20C,0.030000*%
%LNMASK1*%
G90*
G70*
G54D10*
X591Y123D03*
G54D11*
X784Y123D03*
G54D12*
X2650Y99D03*
X2650Y399D03*
X2750Y99D03*
X2750Y399D03*
X2850Y99D03*
X2850Y399D03*
X2950Y99D03*
X2950Y399D03*
X3050Y99D03*
X3050Y399D03*
X3150Y99D03*
X3150Y399D03*
X3250Y99D03*
X3250Y399D03*
X3350Y99D03*
X3350Y399D03*
G54D13*
X2286Y313D03*
X2186Y313D03*
X2086Y313D03*
X2286Y313D03*
X2186Y313D03*
X2086Y313D03*
X2086Y213D03*
X2186Y213D03*
X2286Y213D03*
G54D14*
X430Y207D03*
X436Y315D03*
X1720Y411D03*
X1252Y363D03*
X1972Y147D03*
X1252Y309D03*
X1492Y351D03*
X1084Y75D03*
X1966Y249D03*
X376Y453D03*
X1324Y81D03*
X598Y369D03*
X922Y321D03*
X2452Y81D03*
X2404Y249D03*
G54D15*
X1170Y162D03*
G54D16*
X922Y399D03*
X1003Y399D03*
X436Y369D03*
X517Y369D03*
G54D17*
X200Y110D03*
G54D18*
X220Y209D03*
X220Y287D03*
G54D17*
X200Y386D03*
G54D16*
X1636Y147D03*
X1717Y147D03*
X1636Y249D03*
X1717Y249D03*
G54D19*
G36*
X1210Y399D02*
X1130Y399D01*
X1130Y425D01*
X1210Y425D01*
X1210Y399D01*
G37*
D02*
G36*
X1210Y349D02*
X1130Y349D01*
X1130Y375D01*
X1210Y375D01*
X1210Y349D01*
G37*
D02*
G36*
X1210Y299D02*
X1130Y299D01*
X1130Y325D01*
X1210Y325D01*
X1210Y299D01*
G37*
D02*
G36*
X1210Y249D02*
X1130Y249D01*
X1130Y275D01*
X1210Y275D01*
X1210Y249D01*
G37*
D02*
G36*
X1210Y199D02*
X1130Y199D01*
X1130Y225D01*
X1210Y225D01*
X1210Y199D01*
G37*
D02*
G36*
X1210Y99D02*
X1130Y99D01*
X1130Y125D01*
X1210Y125D01*
X1210Y99D01*
G37*
D02*
G36*
X1210Y49D02*
X1130Y49D01*
X1130Y75D01*
X1210Y75D01*
X1210Y49D01*
G37*
D02*
G36*
X1452Y49D02*
X1372Y49D01*
X1372Y75D01*
X1452Y75D01*
X1452Y49D01*
G37*
D02*
G36*
X1452Y99D02*
X1372Y99D01*
X1372Y125D01*
X1452Y125D01*
X1452Y99D01*
G37*
D02*
G36*
X1452Y149D02*
X1372Y149D01*
X1372Y175D01*
X1452Y175D01*
X1452Y149D01*
G37*
D02*
G36*
X1452Y199D02*
X1372Y199D01*
X1372Y225D01*
X1452Y225D01*
X1452Y199D01*
G37*
D02*
G36*
X1452Y249D02*
X1372Y249D01*
X1372Y275D01*
X1452Y275D01*
X1452Y249D01*
G37*
D02*
G36*
X1452Y299D02*
X1372Y299D01*
X1372Y325D01*
X1452Y325D01*
X1452Y299D01*
G37*
D02*
G36*
X1452Y349D02*
X1372Y349D01*
X1372Y375D01*
X1452Y375D01*
X1452Y349D01*
G37*
D02*
G36*
X1452Y399D02*
X1372Y399D01*
X1372Y425D01*
X1452Y425D01*
X1452Y399D01*
G37*
D02*
G36*
X992Y58D02*
X992Y117D01*
X1047Y117D01*
X1047Y58D01*
X992Y58D01*
G37*
D02*
G36*
X912Y58D02*
X912Y117D01*
X967Y117D01*
X967Y58D01*
X912Y58D01*
G37*
D02*
G36*
X486Y418D02*
X486Y477D01*
X541Y477D01*
X541Y418D01*
X486Y418D01*
G37*
D02*
G36*
X406Y418D02*
X406Y477D01*
X461Y477D01*
X461Y418D01*
X406Y418D01*
G37*
D02*
G36*
X992Y133D02*
X992Y192D01*
X1047Y192D01*
X1047Y133D01*
X992Y133D01*
G37*
D02*
G36*
X912Y133D02*
X912Y192D01*
X967Y192D01*
X967Y133D01*
X912Y133D01*
G37*
D02*
G36*
X1608Y382D02*
X1608Y441D01*
X1663Y441D01*
X1663Y382D01*
X1608Y382D01*
G37*
D02*
G36*
X1528Y382D02*
X1528Y441D01*
X1583Y441D01*
X1583Y382D01*
X1528Y382D01*
G37*
D02*
G36*
X1872Y220D02*
X1872Y279D01*
X1927Y279D01*
X1927Y220D01*
X1872Y220D01*
G37*
D02*
G36*
X1792Y220D02*
X1792Y279D01*
X1847Y279D01*
X1847Y220D01*
X1792Y220D01*
G37*
D02*
G36*
X1872Y118D02*
X1872Y177D01*
X1927Y177D01*
X1927Y118D01*
X1872Y118D01*
G37*
D02*
G36*
X1792Y118D02*
X1792Y177D01*
X1847Y177D01*
X1847Y118D01*
X1792Y118D01*
G37*
D02*
G54D20*
G36*
X2622Y127D02*
X2677Y127D01*
X2677Y72D01*
X2622Y72D01*
X2622Y127D01*
G37*
D02*
G54D19*
G36*
X394Y71D02*
X465Y71D01*
X465Y32D01*
X394Y32D01*
X394Y71D01*
G37*
D02*
G36*
X394Y181D02*
X465Y181D01*
X465Y142D01*
X394Y142D01*
X394Y181D01*
G37*
D02*
G04 End of Mask1*
M02*