G04 MADE WITH FRITZING*
G04 WWW.FRITZING.ORG*
G04 DOUBLE SIDED*
G04 HOLES PLATED*
G04 CONTOUR ON CENTER OF CONTOUR VECTOR*
%ASAXBY*%
%FSLAX23Y23*%
%MOIN*%
%OFA0B0*%
%SFA1.0B1.0*%
%ADD10C,0.080925*%
%ADD11C,0.080866*%
%ADD12C,0.085000*%
%ADD13C,0.088000*%
%ADD14C,0.049370*%
%ADD15C,0.030000*%
%LNMASK0*%
G90*
G70*
G54D10*
X591Y123D03*
G54D11*
X784Y123D03*
G54D12*
X2650Y99D03*
X2650Y399D03*
X2750Y99D03*
X2750Y399D03*
X2850Y99D03*
X2850Y399D03*
X2950Y99D03*
X2950Y399D03*
X3050Y99D03*
X3050Y399D03*
X3150Y99D03*
X3150Y399D03*
X3250Y99D03*
X3250Y399D03*
X3350Y99D03*
X3350Y399D03*
G54D13*
X2286Y313D03*
X2186Y313D03*
X2086Y313D03*
X2286Y313D03*
X2186Y313D03*
X2086Y313D03*
X2086Y213D03*
X2186Y213D03*
X2286Y213D03*
G54D14*
X430Y207D03*
X436Y315D03*
X1720Y411D03*
X1252Y309D03*
X1252Y363D03*
X1972Y147D03*
X1966Y249D03*
X922Y321D03*
X1492Y351D03*
X1084Y75D03*
X376Y453D03*
X1324Y81D03*
X598Y369D03*
X2452Y81D03*
X2404Y249D03*
G54D15*
G36*
X2622Y127D02*
X2677Y127D01*
X2677Y72D01*
X2622Y72D01*
X2622Y127D01*
G37*
D02*
G04 End of Mask0*
M02*